<svg width="200" height="118" viewBox="0 0 200 118" fill="none" xmlns="http://www.w3.org/2000/svg" class="h-auto w-[80px] sm:w-[100px] lg:w-[160px] xl:w-[200px]"><path d="M199.991 28.6651C199.949 26.9879 198.819 25.5325 197.203 25.082C195.116 24.4998 193.077 24.2087 191.143 24.2087C186.545 24.2087 182.419 25.8651 179.042 29.0324C178.778 28.8661 178.508 28.7136 178.238 28.5611C178.328 28.471 178.425 28.3809 178.515 28.2839C180.97 25.7196 182.412 22.081 182.273 18.7889C182.197 17.0078 181.649 15.2751 180.692 13.7712C179.749 12.2949 178.425 11.0682 176.865 10.2365C175.256 9.37715 173.425 8.94052 171.435 8.94052C168.633 8.94052 165.998 9.77219 163.668 10.4999C163.197 10.6455 162.753 10.791 162.33 10.9157C159.515 11.7544 157.337 12.2534 155.285 12.5375C155.278 12.5375 155.264 12.5375 155.257 12.5375C155.07 11.0128 154.73 9.64744 154.21 8.36527C153.378 6.28608 151.998 4.53263 150.222 3.28512C148.406 2.00988 146.263 1.33761 144.03 1.33761C143.482 1.33761 142.927 1.3792 142.38 1.46236C139.717 1.85741 137.303 3.27126 135.591 5.45441C133.906 7.6029 133.08 10.2504 133.268 12.9118C133.462 15.6771 134.849 18.2899 137.068 20.085C138.572 21.2978 140.355 22.2543 142.407 22.9612C142.227 23.779 142.033 24.5899 141.825 25.3869C141.395 25.0196 140.916 24.6938 140.403 24.4028C138.725 23.4463 136.756 22.9404 134.71 22.9404C132.845 22.9404 130.979 23.3562 129.308 24.1463C126.916 25.2829 124.87 27.175 123.06 29.9334C122.568 30.6888 122.124 31.4512 121.715 32.2136C122.956 29.7255 124.01 27.2928 124.912 24.874C125.3 23.8344 126.368 22.878 127.602 21.7691C127.803 21.5889 128.004 21.4087 128.199 21.2285C129.121 20.3899 129.579 19.1493 129.412 17.9088C129.26 16.7791 128.615 15.7811 127.658 15.185C127.866 14.0207 128.025 12.7939 128.088 11.5326C128.185 9.55041 127.984 5.84252 125.55 3.31284C124.19 1.90592 122.27 1.09504 120.272 1.09504C119.218 1.09504 118.171 1.32375 117.228 1.76038C116.542 2.07919 115.945 2.46731 115.418 2.89007C114.808 2.66136 114.156 2.54354 113.477 2.54354C112.222 2.54354 111.043 3.15344 110.335 4.1861C109.628 5.21877 109.462 6.52173 109.912 7.693C110.204 8.4831 110.55 9.7514 110.682 10.8534C110.488 11.1306 110.328 11.4425 110.211 11.7751C109.843 12.8355 109.503 13.8613 109.177 14.8454C109.15 14.4642 109.094 14.0623 109.025 13.6464C108.366 9.98011 106.043 7.03459 102.479 5.35738C101.966 5.11481 101.411 4.99006 100.856 4.99006C100.343 4.99006 99.8367 5.09402 99.3582 5.295C98.4706 5.67619 97.7633 6.37618 97.3749 7.25637C96.8202 6.59103 96.1753 6.01579 95.4402 5.55144C94.1435 4.73362 92.6457 4.30392 91.1062 4.30392C89.2686 4.30392 87.4448 4.92768 85.9747 6.05737C84.0331 7.55439 82.6323 9.65437 81.814 12.3088C81.0443 14.8177 80.9819 17.2503 81.0721 18.8513C81.3425 23.9107 82.7849 27.0364 83.832 28.672C82.7849 31.2502 81.5783 33.9047 80.2468 36.7185C80.1706 36.8848 80.0874 37.0512 80.0042 37.2244C80.0319 37.1413 80.0596 37.0581 80.0804 36.9749C80.1359 36.7947 80.1914 36.6145 80.2468 36.4413C80.4202 35.8868 80.6005 35.3393 80.7877 34.7571C81.3772 32.9621 81.9874 31.1047 82.3965 29.1156C82.8195 27.0849 82.556 25.5255 81.5921 24.3473C80.8085 23.384 79.6436 22.8295 78.4023 22.8295C77.3899 22.8295 76.4052 23.1899 75.476 23.9038C74.0058 25.0404 73.0905 26.4889 72.3624 27.6602C72.2722 27.7988 72.189 27.9374 72.0989 28.0691C71.0518 29.7116 70.0879 31.3819 69.1587 33.0037C68.2017 34.674 67.2794 36.2749 66.2947 37.8066C66.4473 36.2333 66.7385 34.6116 67.0367 32.9413L67.1199 32.47C68.1462 31.2918 69.0893 30.0235 70.6357 27.8958C71.4054 26.8354 71.5788 25.4493 71.0864 24.2364C70.7536 23.4117 70.1503 22.7463 69.3944 22.3236C69.866 19.8701 70.1295 17.2088 69.4291 14.3949C68.8744 12.1633 67.6678 10.2504 65.9411 8.86428C64.2075 7.47122 62.0786 6.70885 59.7833 6.66034C59.707 6.66034 59.6238 6.66034 59.5475 6.66034C56.0179 6.66034 52.8419 8.29597 50.1722 10.2435C49.4787 9.59893 48.7367 9.28012 48.1334 9.12071C47.8144 9.03755 47.4885 8.99596 47.1626 8.99596C46.3651 8.99596 45.5746 9.24546 44.9228 9.72368C44.9228 9.61972 44.9228 9.51576 44.9228 9.4118C44.8812 7.18707 43.9936 5.05243 42.4403 3.38908C41.0672 1.91979 39.188 0.866329 37.1631 0.408907C35.9704 0.138613 34.7499 0 33.5295 0C30.5269 0 27.6837 0.831676 25.3052 2.40493C22.4205 4.31778 20.0142 7.65142 18.6898 11.5603C17.4624 15.1989 17.1018 18.6087 17.6357 21.7067C17.8923 23.2246 18.3916 24.6731 19.1058 26.0176C18.9533 26.0176 18.8215 26.0176 18.7036 26.0176C18.4401 26.0176 18.2598 26.0245 18.1974 26.0315C17.2613 26.0869 16.4014 26.482 15.7634 27.1057C15.1324 26.8423 14.4875 26.6136 13.8287 26.4196C12.0674 25.8998 10.2436 25.6364 8.39905 25.6364C6.79719 25.6364 5.72235 25.8443 5.52126 25.8859C3.83618 26.2324 2.59492 27.6671 2.4909 29.3859C2.27593 32.9066 2.66426 36.1155 3.64202 38.964C2.56718 40.1492 1.71424 41.5284 1.10401 43.0877C0.348158 45.0283 -0.0263022 47.2323 0.00143557 49.6233C0.0499767 53.4144 1.08321 56.45 1.20109 56.7827C1.58249 57.8708 2.43543 58.7233 3.52413 59.1044C3.64202 59.146 3.75991 59.1807 3.87779 59.2084C4.15517 60.8787 4.70299 62.5767 5.52126 64.2747C6.98442 67.3034 8.80818 69.3133 9.01622 69.5281C9.7374 70.3043 10.7498 70.741 11.8039 70.741C11.9009 70.741 11.998 70.741 12.102 70.7271C13.2601 70.637 14.3141 70.0202 14.966 69.0638C15.2087 68.7034 15.4444 68.343 15.6664 67.9826C15.9576 69.1053 16.3182 70.1588 16.6926 71.1222C15.708 73.4162 15.2711 75.9459 15.382 78.6765C15.4583 80.43 15.7565 82.2389 16.2835 84.0824C14.0992 87.1458 12.9827 91.1101 13.0313 95.6982C13.0729 99.5863 13.9258 102.587 14.0229 102.913C14.328 103.946 15.0492 104.798 16.0131 105.262C16.0963 106.947 16.3806 108.693 16.8521 110.502C17.608 113.399 18.6066 115.395 18.7175 115.617C19.2445 116.649 20.2084 117.384 21.3457 117.62C21.6022 117.675 21.8588 117.696 22.1154 117.696C22.9961 117.696 23.8559 117.391 24.5494 116.816C25.1041 116.358 25.6312 115.894 26.1374 115.416C26.3523 115.45 26.5742 115.471 26.7961 115.471C27.6768 115.471 28.5367 115.166 29.2301 114.591C30.624 113.434 31.8722 112.228 32.9539 110.987C36.8719 109.899 39.8121 107.965 41.7052 105.242C42.2669 104.431 42.7315 103.544 43.0852 102.608C44.2085 104.209 45.5053 105.366 46.3097 106.004C46.9199 106.656 47.752 107.078 48.6466 107.182C48.7991 107.203 48.9517 107.21 49.0973 107.21C49.2845 107.21 49.4718 107.196 49.659 107.168C49.8046 107.148 49.9433 107.127 50.082 107.092C50.4981 106.988 50.8933 106.815 51.2539 106.586C51.4897 106.635 51.7324 106.656 51.9751 106.656C52.6547 106.656 53.3273 106.475 53.9237 106.122C56.1774 104.784 57.9873 103.253 59.291 101.582C59.7348 101.014 60.1161 100.432 60.449 99.8358C60.872 100.349 61.4337 100.751 62.0717 100.986C62.5085 101.589 63.0009 102.116 63.5418 102.553C64.8038 103.571 66.3363 104.112 67.966 104.112C68.916 104.112 69.8105 103.932 70.608 103.661C71.1905 103.994 71.8492 104.174 72.5149 104.174C72.8201 104.174 73.1182 104.14 73.4234 104.063C74.4566 103.814 75.3373 103.142 75.8504 102.213C76.6479 100.778 77.2581 99.3714 77.6742 98.0061C78.7421 99.6417 79.7129 100.647 79.8793 100.806C80.6005 101.527 81.5713 101.922 82.5768 101.922C82.7363 101.922 82.9027 101.915 83.0622 101.894C84.0539 101.769 84.9484 101.257 85.5586 100.487C86.3769 100.439 87.1813 100.127 87.8331 99.5585C89.0467 98.4982 90.0106 97.3338 90.7109 96.0724C91.0022 96.6061 91.342 97.1259 91.7303 97.6318C93.5679 100.03 95.8979 101.347 96.1545 101.485C96.7231 101.797 97.3472 101.95 97.9782 101.95C98.3596 101.95 98.741 101.894 99.1086 101.776C99.3998 101.686 99.6772 101.562 99.9338 101.409C100.149 101.444 100.364 101.464 100.586 101.464C101.341 101.464 102.104 101.243 102.756 100.785C104.927 99.2813 106.334 97.7912 107.222 96.3705C108.408 98.1655 109.607 99.2397 109.767 99.3783C110.439 99.9675 111.292 100.293 112.166 100.314C112.693 100.667 113.276 100.972 113.907 101.222C115.404 101.811 116.812 101.936 117.603 101.943C117.7 101.95 117.804 101.957 117.901 101.957C118.976 101.957 120.016 101.506 120.744 100.695C120.806 100.626 120.869 100.55 120.924 100.48C121.021 100.356 121.112 100.224 121.195 100.085C121.472 100.03 121.743 99.9397 121.999 99.8219C122.859 99.4269 123.539 98.7338 123.913 97.8744C125.328 100.064 126.909 101.423 127.172 101.645C127.859 102.22 128.726 102.532 129.613 102.532C129.745 102.532 129.884 102.532 130.015 102.511C130.3 102.483 130.577 102.421 130.848 102.331C133.781 104.015 136.991 104.32 138.954 104.32C139.744 104.32 140.271 104.264 140.369 104.258C140.667 104.223 140.951 104.16 141.228 104.063C141.859 104.216 142.497 104.285 143.142 104.285C143.905 104.285 144.668 104.174 145.403 103.959C145.542 104.077 145.653 104.16 145.722 104.216C146.381 104.701 147.178 104.964 147.989 104.964C148.184 104.964 148.371 104.951 148.565 104.923C148.655 104.909 148.738 104.895 148.829 104.874C149.071 105.893 149.716 106.78 150.638 107.307C151.221 107.647 151.88 107.813 152.538 107.813C152.705 107.813 152.871 107.799 153.038 107.778C154.036 109.178 155.319 110.481 156.859 111.632C158.842 113.115 160.603 113.877 160.797 113.953C161.269 114.154 161.775 114.251 162.274 114.251C162.829 114.251 163.384 114.127 163.897 113.891C164.23 113.732 164.535 113.531 164.805 113.288C166.206 113.919 167.78 114.418 169.528 114.778C172.309 115.353 174.535 115.374 174.777 115.374C175.159 115.374 175.533 115.319 175.887 115.208C180.415 117.578 185.692 117.661 186.427 117.661C188.168 117.661 189.686 116.483 190.116 114.806C190.29 114.12 190.449 113.454 190.581 112.796C191.143 112.45 191.614 111.957 191.947 111.341C193.826 107.792 194.374 104.112 193.563 100.577C195.56 97.3061 195.934 93.917 195.976 93.4804C196.094 92.2398 195.594 91.0339 194.665 90.2368C195.123 88.6844 195.185 87.4923 195.199 87.2775C195.255 85.725 194.367 84.2973 192.952 83.6597C191.337 82.932 189.735 82.5646 188.195 82.5646C186.108 82.5646 184.166 83.23 182.481 84.5052C183.709 82.2181 184.166 79.9726 184.243 78.0251C186.316 75.1558 187.876 72.1825 188.896 69.1469C189.499 68.835 190.012 68.3707 190.38 67.7885C191.794 65.5499 192.883 63.3391 193.646 61.1698C193.826 61.1282 194.006 61.0727 194.187 61.0104C195.255 60.6015 196.08 59.7421 196.44 58.6539C197.89 54.3084 198.535 50.1778 198.347 46.3798C198.223 43.8709 197.744 41.4868 196.905 39.269C198.098 37.3284 198.978 35.1452 199.499 32.8581C200.026 30.5364 200.005 28.8384 199.998 28.6512" fill="black"></path><path d="M42.754 52.3681L43.3295 52.6176C44.5708 53.1513 45.9785 53.4216 47.5041 53.4216C48.9118 53.4216 50.0282 53.1859 50.4374 53.082C51.5469 48.2305 50.9297 44.5226 48.5997 42.0623L48.3501 41.7989L48.6483 41.5979C49.8063 40.8217 50.5622 40.0177 50.8604 39.6781C49.9311 38.3059 48.8979 37.1831 47.7884 36.3376L47.615 36.2059L47.6844 35.998C48.0172 35.0277 48.1767 34.2792 48.2461 33.9188C45.8537 32.8307 43.5445 32.2831 41.3602 32.2831C37.6918 32.2831 34.3286 33.8217 31.3815 36.8574L31.1249 37.1207L30.9169 36.8158C26.5204 30.4465 19.9813 30.1208 18.7123 30.1208H18.6915C18.525 31.0633 18.4071 31.9921 18.3517 32.8861L18.3101 33.4821L17.8524 33.101C14.4684 30.3218 10.8486 29.7327 8.40767 29.7327C7.55473 29.7327 6.91676 29.8089 6.59778 29.8574C6.39668 33.7247 7.04158 37.0861 8.51169 39.8445L8.64344 40.087L8.41461 40.2395C6.81968 41.3138 5.6547 42.7692 4.94738 44.5711C4.37876 46.0266 4.10138 47.7038 4.12218 49.5612C4.14992 52.0562 4.71854 54.2047 4.96818 55.0364C6.08463 54.3295 7.09013 53.5671 7.95693 52.7701L8.92082 51.883L8.44928 53.1028C7.07626 56.6443 8.10949 60.1443 9.22594 62.4591C10.1482 64.3789 11.2785 65.8274 11.7778 66.4165C13.1786 64.2749 14.1355 62.175 14.6209 60.1581L14.8498 59.2017L15.2034 60.1166C15.6542 61.2809 16.1188 62.175 16.3753 62.6324C17.2352 61.7453 17.998 60.8443 18.6429 59.9294L19.3849 58.8829L19.1907 60.1581C18.525 64.5383 20.1477 68.8907 21.174 71.0947L21.2433 71.2402L21.1601 71.3788C18.4696 75.9253 19.5097 81.1718 20.855 84.7688L20.9243 84.949L20.7857 85.0876C19.4404 86.4391 18.4487 88.151 17.8524 90.1678C17.367 91.7965 17.1312 93.6262 17.152 95.6083C17.1797 98.2697 17.6652 100.508 17.8801 101.354C18.6707 100.917 19.4196 100.46 20.12 99.9816L20.7995 99.5172L20.5846 100.307C19.0867 105.866 21.5484 111.868 22.2211 113.365C23.601 112.186 24.8076 110.96 25.8131 109.705L26.146 109.289L26.3332 109.788C26.5621 110.384 26.7631 110.856 26.8949 111.147C28.3234 109.934 29.5577 108.666 30.5702 107.383L30.6395 107.3L30.7435 107.28C34.2732 106.503 36.8181 105.027 38.309 102.879C39.4185 101.285 39.9317 99.337 39.8484 97.0915L39.8276 96.6133L40.2715 96.8004C40.7707 97.0152 41.1799 97.1677 41.4503 97.2647C41.6306 90.8539 40.5766 85.4827 38.3298 81.2896L37.567 79.8689L38.7944 80.9154C39.2868 81.3312 39.7028 81.65 39.9871 81.858C40.6043 76.7293 40.0981 72.3006 38.4824 68.6898L38.0802 67.7888L38.9192 68.3016C39.3422 68.5581 39.689 68.7521 39.9247 68.8769C41.1105 63.8383 41.0065 59.5275 39.6127 56.0552L39.37 55.4453L39.9941 55.6532C41.4572 56.1314 42.6569 56.2077 43.2463 56.2077C43.3157 56.2077 43.3781 56.2077 43.4336 56.2077C43.3712 55.0641 43.2047 53.9691 42.9343 52.9434L42.7748 52.3404L42.754 52.3681Z" fill="#00D12E"></path><path d="M153.143 82.6897L153.088 82.5581L153.219 82.4957C154.024 82.1076 154.606 81.7402 154.877 81.56C153.323 80.368 151.784 79.4323 150.293 78.767L150.154 78.7046L150.21 78.566C150.238 78.5036 150.258 78.4413 150.279 78.3927H150.175L150.335 78.164C150.453 78.0116 150.543 77.8799 150.605 77.7898C147.401 76.9027 142.963 76.3621 139.628 78.5799C137.908 79.7234 137.166 81.165 136.972 81.5878C137.312 81.761 137.659 81.9135 137.998 82.0521L138.179 82.1284L138.061 82.2878C137.118 83.5769 136.806 84.7828 136.729 85.1709C138.525 85.7253 140.231 85.8917 141.812 85.6699L142.117 85.6283L141.965 85.8986C141.237 87.1739 141.133 88.6085 141.126 89.1629V89.3223L140.966 89.3154C138.685 89.2115 136.667 89.6065 134.968 90.4936L134.718 90.6253L134.746 90.3481C135.114 86.363 134.531 83.3412 133.019 81.366L132.236 80.3472L133.234 81.1581C133.865 81.6709 134.379 82.0175 134.635 82.1769C135.384 79.4393 135.717 76.9096 135.62 74.6571L135.606 74.2552L135.883 74.5393C136.313 74.9829 136.674 75.3017 136.861 75.4611C138.296 72.0096 138.879 68.877 138.595 66.1602L138.581 66.0562L138.671 66.0077C139.295 65.675 139.878 65.3008 140.405 64.9057L140.626 64.7394L140.647 65.0166C140.779 66.5829 141.306 67.9968 142.214 69.2027L142.263 69.2651L142.235 69.3413C141.466 71.4621 142.596 73.6799 142.929 74.2552C143.359 73.9225 143.747 73.576 144.094 73.2363L144.191 73.1393L144.295 73.2225C145.501 74.1789 147.152 74.4769 147.609 74.5393C147.748 74.1027 147.866 73.6799 147.956 73.2779L147.984 73.1393L148.123 73.1601C151.16 73.5967 153.719 73.0215 155.723 71.469C158.996 68.9324 159.814 64.4899 159.946 63.5889C159.343 63.575 158.746 63.575 158.178 63.5889L157.838 63.6028L158.053 63.3394C158.49 62.8127 158.788 62.383 158.933 62.1543C157.616 61.7939 156.347 61.5444 155.147 61.4196H155.092L155.05 61.3711C152.387 58.5365 149.697 57.0603 147.055 56.9771H146.757L146.944 56.7276C147.186 56.4157 147.346 56.1662 147.429 56.0207C142.741 53.7751 138.83 54.9533 136.369 56.3395L136.154 56.4642V56.2147C136.098 55.2236 135.8 54.4613 135.689 54.2048C133.158 54.5167 131.376 55.5078 130.391 57.1573L130.287 57.3375L130.148 57.1781C129.011 55.882 127.458 55.6603 127.049 55.6256C126.127 57.9543 126.279 59.9018 127.493 61.4196L127.583 61.5305L127.472 61.6275C123.408 65.1899 124.864 71.2473 125.149 72.2799L125.523 72.1482L125.232 72.5502C124.018 74.2205 123.519 76.2928 123.741 78.7046C123.914 80.6244 124.504 82.1907 124.754 82.7798L124.781 82.8561L124.74 82.9254C123.29 85.1917 123.332 87.8045 123.623 89.5996C123.88 91.1936 124.379 92.4411 124.552 92.85C124.885 92.6768 125.211 92.5035 125.523 92.3233L125.697 92.2263L125.745 92.4203C126.529 95.6154 128.99 97.9856 129.566 98.5054C129.885 98.0896 130.197 97.6668 130.488 97.2371L130.599 97.0777L130.731 97.2233C133.692 100.564 138.803 100.397 139.76 100.328C139.704 99.9539 139.642 99.5866 139.579 99.2331L139.51 98.8589L139.822 99.0876C142.097 100.751 144.239 100.744 146.209 99.0737L146.347 98.9559L146.438 99.1084C147.055 100.12 147.686 100.716 147.942 100.938C150.168 97.8262 150.889 94.4441 150.085 90.8887L149.946 90.2788L150.349 90.757C150.619 91.0827 150.862 91.2976 150.993 91.4015C154.377 88.2342 154.031 84.9145 153.136 82.6828" fill="#00D12E"></path><path d="M121.721 58.6609C122.56 58.6609 123.219 58.3213 123.517 58.1341C122.934 56.4015 121.915 55.4104 120.493 55.1955L119.953 55.1124L120.306 54.6965C121.014 53.8718 121.097 52.8946 121.09 52.4787C120.618 52.3748 120.168 52.3193 119.751 52.3193C118.316 52.3193 117.234 52.957 116.541 54.2114L116.43 54.4124L116.208 54.3639C115.993 54.3154 115.778 54.2738 115.563 54.2461H115.549H115.535C115.085 54.1421 114.62 54.0936 114.148 54.0936C111.541 54.0936 109.357 55.6807 108.622 56.2837C109.156 56.6995 109.697 57.0807 110.217 57.4064L110.459 57.5589L110.321 57.8084C108.497 61.1143 111.978 65.8757 112.013 65.9242V65.938L112.026 65.9519L112.117 66.0974L112.033 66.2568C111.86 66.5756 110.397 69.5004 111.832 73.7142L112.602 75.9736L111.284 73.9776C111.139 73.7627 110.972 73.5063 110.792 73.2221C109.703 71.5518 107.88 68.7588 106.985 67.9271L106.902 67.8509L106.888 67.74V67.7192V67.6846L106.833 67.1855L107.297 67.3657C107.9 67.6014 108.407 67.6915 108.698 67.7192C108.982 64.6004 107.914 62.1262 105.536 60.3727L104.981 59.9638L105.661 59.8321C106.306 59.7005 106.784 59.5203 107.075 59.3817C106.382 58.7232 105.619 58.1757 104.801 57.7599L104.419 57.5658L104.731 57.2678C105.529 56.5124 105.938 55.7015 106.098 55.3272C104.6 54.3916 103.13 53.9134 101.722 53.9134C100.418 53.9134 99.1561 54.3154 97.9773 55.1193L97.8386 55.2163L97.686 55.147C96.5002 54.6272 95.2243 54.5233 94.3644 54.5233C94.0663 54.5233 93.8166 54.5371 93.6433 54.551C93.7681 56.3876 94.1287 57.9124 94.7181 59.0836L94.8082 59.2638L94.6765 59.4163C92.9151 61.4747 92.2425 64.0252 92.6655 66.9984C92.9013 68.641 93.4214 69.9647 93.6918 70.5608C93.9414 70.3459 94.1911 70.1311 94.4407 69.9024L95.2312 69.1746L94.94 70.2073C94.4269 72.0301 94.621 74.0261 95.5086 76.133L95.578 76.2993L95.467 76.4379C92.2772 80.527 93.4005 85.0666 94.3506 87.4091L94.406 87.5408L94.3436 87.6656C92.9845 90.3131 93.1995 92.8358 94.9747 95.1576C96.001 96.5021 97.2769 97.3892 97.8317 97.7358C98.1506 97.0843 98.428 96.4397 98.6499 95.8229L98.8441 95.2823L99.1839 95.7467C99.7178 96.4813 100.3 97.0427 100.585 97.2922C103.497 95.2269 104.745 93.2239 104.302 91.3249L104.163 90.7358L104.718 90.9715C105.043 91.1101 105.314 91.2141 105.508 91.2834C105.917 87.1458 105.314 83.8745 103.719 81.5527L103.664 81.4765V81.3795C103.664 80.9498 103.358 78.6488 103.192 77.4082C103.137 76.9785 103.095 76.6736 103.081 76.5419L103.677 76.4241C105.418 82.3775 107.464 82.5508 107.484 82.5508L107.838 82.5369L107.783 82.8904C107.692 83.8468 108.476 84.6022 108.941 85.0458C109.052 85.1497 109.142 85.2398 109.211 85.3161L109.322 85.4478L109.274 85.6141C108.455 88.1923 108.746 90.7705 110.126 93.2932C110.827 94.5685 111.631 95.4972 112.096 95.9685C112.179 95.6427 112.248 95.3101 112.318 94.9843L112.533 93.917L112.9 94.9427C113.323 96.114 114.162 96.9526 115.397 97.4447C116.374 97.8328 117.317 97.8813 117.706 97.8813C118.122 97.0774 118.489 96.2873 118.808 95.518L118.961 95.1506L119.273 95.3932C119.634 95.6704 119.98 95.8645 120.209 95.9823C120.805 94.0695 120.778 92.5378 120.133 91.422L120.077 91.3249L120.098 91.214C120.611 88.1576 120.063 85.6141 118.469 83.6666L117.234 82.1557L118.871 83.2161C119.183 83.4171 119.446 83.5696 119.634 83.6735C120.965 80.6102 121.513 77.9003 121.27 75.6063C121.076 73.7974 120.396 72.2588 119.245 71.032L118.503 70.235L119.55 70.5261C120.265 70.7271 120.875 70.8241 121.222 70.8657C121.263 68.0935 120.799 65.8549 119.849 64.2123L119.481 63.5885L120.181 63.7687C120.778 63.9212 121.277 63.9975 121.575 64.0321C121.603 62.1123 121.388 60.442 120.937 59.0559L120.785 58.5916L121.27 58.6609C121.416 58.6817 121.561 58.6886 121.707 58.6886" fill="#00D12E"></path><path d="M91.3495 55.1118C90.136 54.6821 89.0126 54.4603 88.0002 54.4603C87.1334 54.4603 86.3429 54.6197 85.6425 54.9386L85.5107 55.0009L85.379 54.9386C84.1308 54.3425 82.9242 54.2178 82.1406 54.2178C81.8493 54.2178 81.6205 54.2316 81.461 54.2524C81.4263 54.5296 81.3917 54.8069 81.3709 55.0841L81.3431 55.4514L80.9895 55.3544C80.6705 55.2643 80.3446 55.2227 80.0117 55.2227C78.5624 55.2227 77.3766 56.0682 76.9883 56.3801C77.3697 58.0227 78.0076 59.2148 78.9022 59.9147L79.1172 60.088L78.9715 60.3167C76.9883 63.4563 77.127 66.88 77.5985 69.1949C77.9799 71.0661 78.6248 72.5424 78.9438 73.1938C79.242 72.8958 79.5263 72.5909 79.8175 72.2721L80.8022 71.184L80.3307 72.577C79.3737 75.4047 79.6303 78.378 81.0727 81.3997L81.1489 81.566L81.0449 81.7116C79.658 83.6244 78.8883 85.6621 78.7496 87.762C78.6387 89.4462 78.9299 91.1858 79.6164 92.9254C80.5318 95.2402 81.9117 96.959 82.4942 97.6174C82.9935 96.7372 83.4373 95.857 83.8048 95.0045L84.0545 94.4224L84.3527 94.9838C84.6925 95.6283 85.0808 96.0649 85.3096 96.2867C87.3483 94.4224 88.2152 92.26 87.8754 89.8412L87.8615 89.7511L87.9031 89.668C91.0791 83.0353 89.7823 78.7314 88.1319 76.2918L88.0418 76.1602L88.0973 76.0146C89.1998 73.1592 90.0944 68.9662 88.0834 65.2098L87.7644 64.6068L88.4232 64.7662C89.3593 64.9949 90.1499 65.0781 90.5729 65.1058C90.3718 62.2712 89.7615 59.9425 88.7491 58.1752L88.6035 57.9257L88.8462 57.7663C90.1291 56.9346 90.9889 55.6801 91.3357 55.1118" fill="#00D12E"></path><path d="M75.6135 81.4277C75.4401 79.3208 74.7397 77.4703 73.5331 75.9317L73.4222 75.7931L73.4915 75.6268C74.393 73.5199 74.7744 71.4961 74.6288 69.611C74.5178 68.1209 74.074 66.714 73.3182 65.4249L72.9715 64.8289L73.651 64.9744C74.1295 65.0784 74.5317 65.1338 74.7883 65.1615C74.5941 62.2922 73.8729 60.0398 72.6386 58.4665L72.4514 58.2309L72.6871 58.0438C73.6788 57.2398 74.3653 56.3111 74.6704 55.8537C73.0477 55.1676 71.5638 54.828 70.2393 54.828C69.0604 54.828 68.0064 55.1052 67.1049 55.6527L66.9524 55.7497L66.7929 55.6596C65.7943 55.0775 64.7749 54.7864 63.7556 54.7864C62.1329 54.7864 60.9263 55.5418 60.4895 55.8537C60.7599 56.422 61.065 56.9349 61.4048 57.3784L61.5712 57.6002L61.3632 57.7873C60.6143 58.4665 60.2051 59.215 60.0387 59.5685C60.9957 60.2546 61.9526 60.7051 62.8957 60.9061L63.3395 61.0031L63.0829 61.3774C61.5227 63.6714 62.2785 66.0694 62.5559 66.7556C62.6599 66.7417 62.7778 66.7279 62.9026 66.7071L63.3603 66.6378L63.2424 67.0813C62.9096 68.3773 63.2494 70.3664 63.4782 71.6763C63.5059 71.8565 63.5406 72.0159 63.5614 72.1684L63.6169 72.5011L63.2771 72.5219C60.3577 72.6813 57.8336 74.0535 56.2317 75.1694L55.4758 75.6961L55.7671 74.8228C56.627 72.2585 56.2664 68.8209 55.6908 67.4278L55.462 66.8665L56.0514 67.012C56.4675 67.116 56.8073 67.1576 57.0084 67.1783C57.9722 64.6487 57.8336 62.514 56.5854 60.8299L56.4189 60.6012L56.6339 60.414C57.6671 59.5131 58.0763 58.224 58.1941 57.7665C56.8627 56.6646 55.5937 56.1101 54.4218 56.1101C53.5342 56.1101 52.6882 56.4359 51.9046 57.0735L51.7798 57.1774L51.6272 57.1289C50.9754 56.9349 50.2681 56.8309 49.5261 56.8309C46.9603 56.8309 44.6165 58.0299 43.8398 58.4735C44.5264 59.4438 45.2337 60.2962 45.9548 61.0101L46.1351 61.1903L45.9826 61.3982C42.5362 66.2288 44.5402 71.905 45.5665 74.1159L45.6289 74.2545L45.5527 74.3931C42.7789 79.3208 44.5957 85.3435 45.1019 86.8059C45.6289 86.5009 46.1421 86.1891 46.6414 85.8633L47.5983 85.2396L47.0852 86.2514C46.1005 88.1851 45.6428 90.3336 45.7191 92.6484V92.7247L45.6913 92.794C44.5888 95.0741 44.7066 97.3751 46.045 99.6276C47.0921 101.388 48.6038 102.601 49.1239 102.989C49.9005 102.303 50.6356 101.61 51.3013 100.924L51.7104 100.501L51.8214 101.076C51.9254 101.644 52.0572 102.109 52.1473 102.4C55.2747 100.466 57.1193 98.2414 57.6325 95.7741C58.0555 93.7365 57.4175 92.1078 57.1193 91.4979L57.0708 91.4009L57.0985 91.2969C58.0277 87.3881 57.6533 86.792 56.6616 85.2049C56.5576 85.0317 56.4397 84.8515 56.3218 84.6505L56.0029 84.1168L56.62 84.1861C56.7171 84.2 56.8142 84.2 56.9182 84.2C58.4646 84.2 60.2259 83.001 60.4756 82.3842C60.4825 82.3356 60.4894 82.2802 60.5033 82.2317L60.9471 79.6535L61.1066 82.2663C61.1066 82.3564 61.0997 82.4465 61.0719 82.5366C60.961 83.2574 60.9333 83.8673 60.9263 84.2277C61.3771 84.1307 61.8209 84.0198 62.2439 83.902L63.0275 83.6802L62.5837 84.3594C61.8625 85.4683 61.5227 86.6465 61.5643 87.8593C61.5851 88.4207 61.6822 88.8574 61.7585 89.1138C62.119 89.0098 62.4727 88.8989 62.8125 88.7811L63.4227 88.5663L63.1939 89.1762C61.9942 92.3781 63.1453 95.9058 63.5475 96.9662C63.7209 96.8622 63.8943 96.7513 64.0746 96.6335L64.4005 96.4187L64.5253 96.786C65.2673 98.9137 66.4253 99.9949 67.9717 99.9949C69.1922 99.9949 70.3502 99.3365 70.9258 98.9414L71.1269 98.8028L71.3072 98.9761C71.7579 99.4127 72.1601 99.7315 72.4167 99.9186C74.2959 96.4118 74.7328 93.3969 73.7204 90.9573L73.6718 90.8395L73.7204 90.7217C75.2113 87.2564 75.8562 84.1237 75.6343 81.4208" fill="#00D12E"></path><path d="M192.205 38.819L192.323 38.6665C195.527 34.626 195.846 30.0448 195.88 28.9844C194.237 28.5409 192.649 28.3191 191.151 28.3191C186.574 28.3191 182.726 30.3844 179.73 34.4527L179.515 34.7507L179.265 34.4804C177.733 32.8448 175.708 31.6458 173.239 30.9181C171.402 30.3775 169.349 30.1003 167.151 30.1003C165.688 30.1003 164.523 30.225 163.947 30.3082C164.377 31.2022 164.842 32.0616 165.327 32.8656L165.729 33.5309L164.98 33.3161C163.815 32.9834 162.553 32.8101 161.243 32.8101C156.187 32.8101 151.527 35.3052 150.245 36.0467C151.139 36.8368 152.054 37.5507 152.956 38.1745L153.261 38.3893L152.991 38.6457C149.766 41.7507 148.566 46.5467 148.289 47.8565C148.712 47.8773 149.135 47.8843 149.544 47.8843C150.48 47.8843 151.396 47.8358 152.249 47.7387L152.894 47.6694L152.54 48.21C151.631 49.5961 151.229 51.1417 151.084 51.8417C151.805 51.7654 152.484 51.6407 153.102 51.4674L153.393 51.3912L153.476 51.6823C154.163 54.0387 156.68 55.903 157.429 56.4159C157.99 55.7852 158.469 55.1545 158.857 54.5515L159.211 53.9971L159.405 54.6278C159.946 56.3882 161.097 57.8089 161.624 58.3911C162.588 56.6585 163.066 55.0159 163.066 53.505V53.1862L163.385 53.2001C163.593 53.207 163.794 53.2139 163.996 53.2139C166.887 53.2139 169.377 52.2575 171.409 50.3654L172.379 49.4575L171.901 50.6981C171.006 52.9991 170.66 55.5634 170.875 58.3287L170.888 58.4881L170.764 58.5921C165.486 62.7782 163.115 68.0039 163.711 74.1167L163.725 74.2623L163.621 74.3662C158.975 78.9335 157.137 84.2285 158.164 90.0988L158.198 90.3067L158.018 90.4176C154.69 92.4413 153.455 96.0175 153.011 98.6581C152.644 100.855 152.734 102.782 152.803 103.586C153.455 103.302 154.079 103.004 154.662 102.692L154.988 102.518L155.099 102.865C156.437 107.058 160.868 109.449 162.082 110.038C162.338 109.144 162.539 108.271 162.678 107.439L162.782 106.829L163.205 107.28C165.112 109.331 168.149 110.308 170.361 110.766C172.303 111.168 173.967 111.258 174.557 111.272C174.668 110.849 174.772 110.426 174.869 109.976L174.994 109.428L175.389 109.83C177.261 111.75 180.139 112.658 182.219 113.088C184.071 113.469 185.631 113.545 186.207 113.559C186.63 111.875 186.893 110.288 186.997 108.839L187.032 108.312L187.469 108.604C187.885 108.881 188.231 109.061 188.453 109.165C190.034 106.053 190.249 102.976 189.105 100.01L189.043 99.8432L189.161 99.7046C191.22 97.2512 191.768 94.0492 191.872 93.273C191.123 92.7671 190.381 92.3581 189.667 92.0601L189.32 91.9146L189.535 91.6027C190.742 89.8908 191.019 87.9503 191.082 87.3334C190.069 86.9037 189.105 86.6889 188.211 86.6889C186.546 86.6889 185.069 87.4374 183.821 88.9067L183.703 89.0453L183.523 89.0037C182.836 88.8512 182.164 88.775 181.526 88.775C180.305 88.775 179.14 89.0522 178.066 89.6067L177.92 89.6829L177.774 89.5998C176.554 88.9067 175.375 88.4146 174.286 88.1374L173.648 87.9711L174.189 87.5899C178.364 84.6513 180.368 81.0196 180.139 76.785V76.6741L180.201 76.584C183.128 72.8138 185.014 68.8702 185.811 64.8574L185.908 64.3515L186.304 64.6841C186.637 64.9683 186.907 65.1831 187.087 65.3217C189.057 62.1406 190.27 59.0703 190.7 56.201L190.776 55.709L191.179 56C191.83 56.4713 192.357 56.804 192.676 56.9981C194.937 49.9981 194.819 43.9407 192.316 38.9923L192.226 38.819H192.205Z" fill="#00D12E"></path><path d="M105.092 17.5208C105.182 17.0842 105.39 15.8159 105.12 14.3327C104.69 11.9486 103.282 10.1605 100.945 9.01001C100.82 9.47436 100.501 10.8536 100.709 12.3991C101.049 14.8664 102.519 16.5852 105.085 17.5139" fill="#F6F9EE"></path><path d="M178.313 18.9623C178.215 16.7514 176.974 14.797 174.991 13.7297C173.951 13.1752 172.786 12.898 171.434 12.898C169.242 12.898 166.912 13.6326 164.853 14.2772C164.367 14.4296 163.903 14.5752 163.452 14.7069C160.436 15.6009 158.085 16.1415 155.824 16.4534C154.846 16.592 153.882 16.6544 152.884 16.6544C151.324 16.6544 149.687 16.488 147.877 16.1415C146.241 15.8296 144.653 15.4831 143.252 14.6861C141.227 13.5356 140.957 11.8445 141.595 10.6732C142.066 9.80691 142.954 9.29405 143.966 9.29405C144.507 9.29405 145.041 9.44652 145.513 9.73068C146.476 10.3128 146.844 11.4079 147.114 12.392C147.309 13.092 147.413 13.8544 147.426 14.7831C148.626 15.0603 150.492 15.3376 151.442 15.4346C151.442 13.1891 151.15 11.4079 150.519 9.84157C149.396 7.04159 146.906 5.302 144.015 5.302C143.661 5.302 143.3 5.32972 142.947 5.37824C139.535 5.88418 136.962 9.13464 137.212 12.6277C137.33 14.298 138.183 15.892 139.556 16.994C141.851 18.8445 145.11 19.9603 149.243 20.2999C150.152 20.3761 150.97 20.4108 151.747 20.4108C152.898 20.4108 153.938 20.3276 154.923 20.1613C156.677 19.8633 158.411 19.3019 160.082 18.7613C160.332 18.6781 160.581 18.6019 160.831 18.5187C161.122 18.4217 161.42 18.3316 161.711 18.2346C163.23 17.7494 164.79 17.2435 166.344 16.7791C167.765 16.3564 169.416 15.9128 170.948 15.9128C172.869 15.9128 174.173 16.6405 174.824 18.0752C175.324 19.1702 175.15 21.4088 173.868 23.3979C173.077 24.6246 172.12 25.3038 171.184 25.3038C171.066 25.3038 170.941 25.2899 170.823 25.2692C170.158 25.1444 169.644 24.784 169.346 24.2365C168.986 23.5711 168.979 22.6494 169.319 21.8316C169.416 21.6028 169.513 21.388 169.61 21.1801C169.776 20.8197 170.026 20.2652 169.97 20.1613C169.97 20.1613 169.957 20.1613 169.929 20.1613C169.887 20.1613 169.825 20.1751 169.748 20.1959C168.077 20.6672 166.912 22.3514 167.1 24.0216C167.287 25.685 168.611 27.0642 170.4 27.4454C170.74 27.5147 171.087 27.5563 171.427 27.5563C173.313 27.5563 174.762 26.4612 175.643 25.5394C177.328 23.786 178.396 21.1385 178.299 18.9553" fill="#F6F9EE"></path><path d="M93.5317 24.4299C94.6898 21.2349 95.8825 17.9359 95.7993 14.4775C95.7646 12.9597 95.3902 10.2152 93.3168 8.90531C92.658 8.48948 91.8952 8.26769 91.1047 8.26769C90.1339 8.26769 89.17 8.60037 88.3864 9.20333C87.1035 10.1875 86.1674 11.6291 85.5987 13.4795C85.0024 15.427 84.9538 17.3676 85.0232 18.6498C85.3005 23.7785 86.9856 26.3566 87.5265 27.0566C87.686 26.5854 88.1367 25.2685 89.3849 21.5745C88.5736 19.8003 88.5875 15.0736 89.6831 13.2231C89.9813 12.7241 90.3419 12.4538 90.751 12.433C90.7649 12.433 90.7787 12.433 90.7926 12.433C91.0076 12.433 91.1948 12.5231 91.3474 12.7102C91.9576 13.4379 91.8328 15.4894 91.6733 16.3696C90.3766 23.6537 87.6028 30.4526 83.8304 38.4298C82.6308 40.9733 81.1607 43.4822 78.5741 44.6258C78.1858 44.7991 77.8113 44.8822 77.4577 44.8822C76.0222 44.8822 75.2664 43.4684 75.1554 42.0753C74.989 39.9338 75.6547 37.8268 76.2996 35.7892C76.3551 35.616 76.4106 35.4358 76.4661 35.2625C76.6463 34.6873 76.8405 34.0982 77.0208 33.5368C77.5756 31.8457 78.1511 30.0923 78.5187 28.318C78.6643 27.6111 78.6643 27.0358 78.5187 26.8556C78.4909 26.821 78.4562 26.8002 78.4008 26.8002C78.3176 26.8002 78.165 26.8418 77.8946 27.0497C76.9792 27.7566 76.3343 28.7824 75.7102 29.7734C75.6201 29.919 75.523 30.0645 75.4328 30.2101C74.4343 31.7695 73.4981 33.4051 72.5897 34.9853C71.39 37.0714 70.1488 39.2338 68.7549 41.2575C68.6163 41.4516 68.4706 41.6872 68.3111 41.9298C67.3265 43.4545 65.9673 45.5476 64.2129 45.5476C64.1089 45.5476 63.9979 45.5406 63.8939 45.5268C62.507 45.3189 62.3475 42.8723 62.2712 41.7011C62.2712 41.6318 62.2643 41.5625 62.2574 41.5001C62.0355 38.3882 62.5902 35.2694 63.1311 32.2546L63.1658 32.0744C62.8676 32.317 62.6873 32.4348 62.2643 32.719C62.2296 32.7467 62.1811 32.7605 62.1395 32.7605C62.0424 32.7605 61.9592 32.7051 61.9245 32.615C61.869 32.4625 61.8829 32.2408 62.0216 32.1021C64.1574 29.9883 64.9133 29.0457 67.2918 25.7745C67.056 25.7398 66.8272 25.726 66.6053 25.726C65.9604 25.726 65.364 25.8646 64.7815 26.1557C64.7607 26.1695 64.7399 26.1695 64.7122 26.1695C64.6775 26.1695 64.6498 26.1557 64.622 26.1418C64.5735 26.1071 64.5527 26.0517 64.5665 25.9893C64.7052 25.2685 64.8717 24.5339 65.0312 23.827C65.6553 21.0547 66.3002 18.1924 65.5928 15.3577C64.8925 12.5439 62.5833 10.6865 59.7124 10.631C59.6639 10.631 59.6084 10.631 59.5599 10.631C55.9609 10.631 52.5006 13.2855 49.8863 15.5934C49.5604 15.8775 49.4356 16.5983 49.3316 17.1736C49.2484 17.6518 49.179 18.033 49.0195 18.1993C48.9779 18.2409 48.9224 18.2686 48.86 18.2686C48.7976 18.2686 48.7421 18.2409 48.6936 18.1993C48.652 18.1577 48.6242 18.0953 48.6312 18.033C48.652 16.9171 48.3746 13.736 47.3691 13.0568C47.4246 13.5766 47.4246 14.5053 47.1749 15.635C46.7866 17.3745 45.9198 18.9963 44.6716 20.327C39.6441 25.6428 34.7276 26.0586 33.3407 26.0586C32.1272 26.0586 30.9275 25.8438 29.7764 25.421C28.022 24.7765 26.7322 23.4804 26.0526 21.6923C25.4424 20.0914 25.3176 18.1508 25.6851 16.0716C26.1081 13.7082 27.1691 11.3657 28.5837 9.65382C30.1717 7.74097 32.044 6.73603 33.9995 6.73603C34.4918 6.73603 34.9981 6.80533 35.4904 6.93701C37.5153 7.4776 37.966 8.82908 37.9799 9.8756C38.0007 11.0677 37.4598 12.5092 36.5028 13.8191C35.5806 15.0874 34.4086 16.03 33.3754 16.3419C33.313 16.3627 33.2714 16.3765 33.2436 16.3904C33.3823 16.4874 33.7845 16.6052 33.9718 16.626C34.1035 16.6399 34.2491 16.6468 34.3878 16.6468C35.3587 16.6468 36.4196 16.3142 37.3835 15.7112C39.5193 14.3736 41.031 11.7677 40.9894 9.50135C40.9617 8.23997 40.4763 7.0687 39.5817 6.11227C38.7427 5.21822 37.5846 4.56674 36.3225 4.28258C35.4072 4.07466 34.471 3.9707 33.5488 3.9707C31.3297 3.9707 29.2425 4.57367 27.5158 5.71722C25.3522 7.15186 23.5077 9.75085 22.4675 12.8419C21.4482 15.8498 21.143 18.6151 21.5591 21.0547C21.996 23.5983 23.3759 25.9131 25.4563 27.5556C27.4811 29.1566 30.0191 30.0437 32.6126 30.0437C32.9801 30.0437 33.3546 30.0229 33.7152 29.9883C35.428 29.822 37.1824 29.3853 38.9438 28.6923C41.7383 27.5903 44.5121 25.8784 47.4038 23.4596C48.4509 22.5864 49.4564 21.6092 50.4272 20.6597C51.8765 19.2458 53.3813 17.7835 55.0802 16.6191L55.108 16.5983C56.1828 15.8637 57.9788 14.63 59.5391 14.63C59.9898 14.63 60.392 14.734 60.7457 14.935C62.0285 15.6835 61.9384 17.5062 61.8898 18.5943C61.7789 20.8676 61.1964 23.1408 60.6278 25.3448C60.4267 26.121 60.2256 26.918 60.0453 27.6943C59.3657 30.6675 58.6861 33.8694 58.3741 37.1684C58.3255 37.6813 58.3047 38.1803 58.6029 38.6585C59.0121 39.3239 59.1715 40.0446 59.2686 40.6615C59.2825 40.7654 59.234 40.8625 59.1369 40.904L59.0606 40.9387C59.0606 40.9387 58.9982 40.9595 58.9635 40.9595C58.8872 40.9595 58.811 40.9179 58.7693 40.8555C58.7485 40.8209 58.7208 40.7793 58.6931 40.7238C58.3255 40.1001 57.2022 38.1942 55.6419 38.1942C55.6142 38.1942 55.5934 38.1942 55.5656 38.1942C55.635 38.3466 55.6974 38.4922 55.7667 38.6447C56.1204 39.4278 56.481 40.2456 56.9595 40.9456C57.1259 41.1951 57.3131 41.4446 57.4934 41.6803C57.7084 41.9714 57.9303 42.2694 58.1314 42.5813C58.381 42.9624 58.4642 43.3921 58.5474 43.8149C58.5752 43.9604 58.6029 44.106 58.6376 44.2446C59.3588 47.1139 60.6139 48.3267 61.2935 48.7911C62.0909 49.3386 62.9716 49.6158 63.9008 49.6158C66.6816 49.6158 69.4345 47.1832 70.9601 45.104C71.182 44.806 71.397 44.501 71.6189 44.1822C71.7298 44.0298 71.8338 43.8773 71.9517 43.7179C71.9795 43.6763 72.028 43.6555 72.0765 43.6555C72.0835 43.6555 72.0974 43.6555 72.1043 43.6555C72.1598 43.6694 72.2083 43.7109 72.2222 43.7664L72.2638 43.9258C72.2915 44.0228 72.3123 44.106 72.3331 44.1822C72.5897 45.1802 72.9711 46.0327 73.512 46.7882C74.5036 48.1812 75.9252 48.9505 77.527 48.9505C77.9986 48.9505 78.4909 48.8812 78.9833 48.7495C80.0997 48.4515 81.1121 47.8832 82.0899 47.0169C83.0538 46.1644 83.8651 45.1109 84.4684 44.2793C88.5181 38.7348 90.9937 31.6863 92.977 26.024C93.1642 25.4903 93.3584 24.9497 93.5525 24.4299" fill="#F6F9EE"></path><path d="M108.111 39.3731C107.39 40.4335 106.648 41.5216 105.878 42.5751C104.907 43.8988 102.875 45.8671 101.274 45.8671C100.344 45.8671 99.7064 45.2365 99.3597 43.9959C98.902 42.3325 98.5484 38.888 101.371 34.591C101.468 34.4455 101.593 34.2583 101.731 34.0573C101.87 33.8564 102.036 33.6138 102.147 33.4405C101.315 33.5445 100.164 34.4316 99.5955 34.8752C99.429 35.0068 99.3112 35.0969 99.2349 35.1385C99.1655 35.1801 99.0893 35.2009 99.013 35.2009C98.8743 35.2009 98.7495 35.1316 98.6801 35.0138C98.6039 34.889 98.6038 34.7366 98.6732 34.6049C98.7911 34.3762 99.006 34.2168 99.1933 34.0712L99.2279 34.0435C99.3597 33.9465 99.4845 33.8494 99.6163 33.7593C99.7896 33.6346 99.9699 33.5029 100.136 33.3712L100.213 33.3158C100.435 33.1494 100.663 32.9762 100.74 32.7336C101.745 29.6148 102.792 26.2881 103.617 22.9891L103.631 22.9268C104.013 21.4575 103.867 21.1179 103.812 21.0416C103.791 21.0208 103.777 21.007 103.742 21.007C103.742 21.007 103.728 21.007 103.721 21.007C103.507 21.0278 103.333 21.2773 103.201 21.4852L103.174 21.5268C102.3 22.8089 100.982 23.904 99.4637 24.6178C98.7425 24.9574 97.9589 25.2208 97.1407 25.401C96.2323 25.602 95.2545 25.699 94.2421 25.699C94.2213 25.699 94.2005 25.699 94.1797 25.699L92.668 29.8643C93.084 29.9544 93.4793 30.0029 93.8884 30.0029C95.0257 30.0029 96.0381 29.6633 97.2516 29.2128C97.2655 29.2128 97.2863 29.2059 97.3071 29.2059C97.3418 29.2059 97.3834 29.2198 97.4111 29.2475C97.4527 29.2891 97.4735 29.3445 97.4527 29.4C97.4389 29.4623 95.8093 35.6306 95.5735 36.8712C95.0742 39.4494 94.6443 42.7899 95.6983 45.7493C96.6275 48.3552 98.7772 49.977 101.301 49.977C101.385 49.977 101.475 49.977 101.558 49.977C104.11 49.8661 106.606 48.1958 109.2 44.8622C108.985 44.0583 108.374 41.7018 108.111 39.3801H108.104L108.111 39.3731Z" fill="#F6F9EE"></path><path d="M149.815 27.4244C149.815 27.4244 149.752 27.4521 149.724 27.4521C149.697 27.4521 149.669 27.4452 149.641 27.4244C149.586 27.3898 149.558 27.3274 149.579 27.265C149.808 26.267 150.03 25.2759 150.251 24.2918C150.459 23.3631 150.668 22.4344 150.882 21.4987L146.833 21.1037C145.994 25.6294 144.815 29.8709 143.338 33.6966L143.185 34.0986C141.819 37.6332 140.12 42.0411 136.91 44.4253C136.008 45.0975 134.815 45.4649 133.56 45.4649C132.555 45.4649 131.556 45.2361 130.689 44.7995C129.4 44.155 127.326 42.4292 127.971 38.1253C127.971 38.1253 127.971 38.1253 127.971 38.1184C128.45 35.8313 129.954 33.1006 132.666 32.5739C132.34 32.4491 131.993 32.3798 131.626 32.3798C130.474 32.3798 129.517 33.0244 129.511 33.0313C129.483 33.0521 129.455 33.059 129.427 33.059C129.4 33.059 129.372 33.0521 129.344 33.0382C129.296 33.0036 129.268 32.9481 129.275 32.8858C129.504 31.4165 131.924 29.5591 134.593 29.4482C134.781 29.4412 134.968 29.4343 135.148 29.4343C138.102 29.4343 139.933 30.5224 140.73 32.7541C140.814 32.5531 140.918 32.0818 140.869 31.4373C140.8 30.564 140.384 28.9353 138.456 27.8403C137.374 27.2234 136.077 26.8977 134.718 26.8977C133.435 26.8977 132.153 27.1819 131.008 27.7224C129.296 28.5333 127.784 29.968 126.383 32.0957C125.35 33.6759 124.525 35.4085 123.72 37.0788C123.283 38.0006 122.826 38.9501 122.34 39.8649C122.209 40.1144 122.07 40.3778 121.931 40.6481C120.96 42.5332 119.865 44.6748 118.11 45.7767C117.66 46.0609 117.223 46.2064 116.814 46.2064C114.837 46.2064 113.922 42.9213 113.624 41.8401C112.868 39.1095 112.674 36.0669 113.048 32.5462C113.603 27.2789 114.865 21.7482 116.911 15.6423C116.938 15.5661 116.966 15.4691 117.008 15.3443C117.264 14.5681 117.791 12.9533 118.374 11.5186C119.365 9.07211 119.837 8.7533 120.142 8.7533C120.163 8.7533 120.184 8.7533 120.204 8.7533C120.392 8.78795 120.544 8.9127 120.648 9.11369C121.314 10.4374 119.976 15.3651 119.109 18.1859C117.812 22.4413 115.995 27.2234 114.477 30.3769C114.234 31.5759 113.749 34.5699 114.109 37.6956C117.181 32.7056 119.497 28.0551 121.196 23.4809C121.924 21.5195 123.464 20.1403 124.955 18.8027C125.086 18.6849 125.218 18.5671 125.357 18.4423C125.17 18.3799 124.968 18.3453 124.747 18.3453C123.859 18.3453 122.902 18.879 122.209 19.274C122.16 19.3017 122.111 19.3156 122.063 19.3156C121.931 19.3156 121.806 19.2255 121.772 19.0938L121.73 18.9552C121.695 18.8235 121.751 18.6849 121.862 18.6087C122.056 18.4908 122.534 18.1928 122.791 18.0126C122.916 17.9225 123.006 17.8186 123.027 17.7423C123.512 15.8503 124.025 13.6117 124.136 11.3246C124.192 10.2434 124.157 7.5543 122.701 6.05035C122.084 5.41273 121.203 5.04541 120.281 5.04541C119.802 5.04541 119.324 5.14937 118.901 5.34343C117.937 5.78699 117.084 6.6048 116.217 7.92162C116.162 8.01172 116.099 8.09489 116.044 8.18499C115.974 8.29588 115.898 8.40677 115.822 8.51766C115.794 8.55924 115.746 8.58696 115.697 8.58696C115.69 8.58696 115.683 8.58696 115.676 8.58696C115.621 8.58003 115.572 8.53845 115.551 8.483C115.489 8.28895 114.962 6.68104 113.714 6.50777C114.005 7.33252 114.941 10.2572 114.671 12.5929C114.588 13.2929 114.463 13.9998 114.345 14.6859V14.7136C114.317 14.8315 114.241 14.9146 114.172 14.9909C114.123 15.0394 114.061 15.0671 113.998 15.0671C113.915 15.0671 113.839 15.0255 113.797 14.9493C113.749 14.8523 113.693 14.7552 113.693 14.6374C113.693 14.4018 113.686 14.1661 113.686 13.9305C110.607 22.9819 109.172 29.961 109.054 36.4689C109.012 38.7837 109.387 41.3203 110.198 44.2312C110.621 45.7629 111.523 47.2668 112.66 48.3549C113.547 49.2074 115.004 50.2193 116.911 50.2193C117.105 50.2193 117.306 50.2054 117.5 50.1846C120.399 49.8589 123.568 46.3866 124.532 44.5292C124.559 44.4807 124.608 44.453 124.656 44.4461C124.656 44.4461 124.656 44.4461 124.663 44.4461C124.712 44.4461 124.76 44.4738 124.788 44.5154C126.189 46.6777 127.326 47.6688 129.476 48.5906C130.766 49.145 132.132 49.4292 133.532 49.4292C136.175 49.4292 138.671 48.4242 140.557 46.5946C144.066 43.1985 145.924 38.3887 147.533 33.759C147.769 33.0798 148.206 32.5115 148.629 31.964L148.691 31.8878C149.121 31.3333 149.565 30.7373 150.14 29.968C151 28.8106 152.644 26.5165 153.157 25.7749C151.881 25.872 150.917 26.5927 149.981 27.2997L149.835 27.4106L149.815 27.4244Z" fill="#F6F9EE"></path><path d="M27.7889 46.0473C27.248 46.9898 26.7349 47.9324 26.0068 48.7364C25.4728 47.5304 24.7932 46.3314 24.5367 45.0423C24.4673 44.6958 23.9264 44.6265 23.7669 44.9453C23.1637 46.1928 22.5812 47.4473 21.8946 48.6532C21.3122 49.6789 20.5563 51.2868 19.4607 51.966C19.2041 50.4967 18.7533 49.0552 18.4136 47.5997C18.0252 45.9156 17.7478 44.2453 17.6161 42.5265C17.5953 42.2978 17.2763 42.2978 17.2555 42.5265C16.9643 45.8809 17.942 49.3809 18.8435 52.5898C18.9128 52.8462 19.2457 52.9294 19.4329 52.7492C20.5147 51.7027 21.541 50.7393 22.3315 49.4364C22.9417 48.4383 23.4757 47.3918 23.9958 46.3384C24.1137 46.6918 24.2593 47.0384 24.4119 47.378C24.7447 48.0918 25.244 48.7017 25.667 49.3671C25.7502 49.4987 25.979 49.568 26.0969 49.4225C26.8736 48.4314 27.7057 47.4126 28.1148 46.1928C28.1842 45.9918 27.8791 45.8671 27.7751 46.0473" fill="black"></path><path d="M33.3059 89.1139C33.4723 90.5624 33.7081 91.9901 33.7427 93.4525C33.7843 95.0188 33.5624 96.4118 32.9591 97.8396C31.6 97.2435 30.4835 95.9821 29.6653 94.797C28.8193 93.5634 28.0287 91.997 28.0704 90.4584C28.0704 90.299 27.8207 90.2574 27.786 90.4238C27.474 92.1149 28.2368 93.8336 29.1175 95.2406C30.0259 96.6891 31.3226 98.1653 33.0493 98.5881C33.2296 98.6296 33.396 98.5326 33.4584 98.3594C34.457 95.4346 34.9077 92.0109 33.8606 89.0446C33.7635 88.7674 33.2712 88.7881 33.3128 89.1208" fill="black"></path><path d="M56.3293 72.2241C56.0172 73.8597 55.5596 75.53 55.0464 77.1102C54.5957 78.4824 54.0201 80.0765 52.98 81.1646C52.4599 80.2636 51.8427 79.4111 51.3296 78.5032C50.6777 77.3389 50.3379 76.029 50.1715 74.7122C50.1507 74.5735 49.9704 74.5735 49.9565 74.7122C49.797 76.1052 49.8733 77.3874 50.4142 78.6973C50.9204 79.9171 51.704 81.0814 52.4391 82.1695C52.6055 82.419 52.9591 82.4952 53.188 82.2665C54.4501 80.9913 55.192 79.321 55.7815 77.6507C56.3986 75.8904 56.7523 74.1577 56.891 72.3072C56.9118 71.9884 56.3917 71.9122 56.3293 72.231" fill="black"></path><path d="M68.4527 84.3457C68.418 85.3923 68.2239 86.2794 67.6969 87.1942C67.3363 87.818 66.9202 88.4071 66.5457 89.017C66.1158 88.3447 65.7413 87.6517 65.4848 86.8893C65.4085 86.6675 65.1381 86.5843 64.9647 86.7507C63.7026 87.9289 62.3712 89.0378 60.804 89.7932C60.7416 89.8209 60.7832 89.9318 60.8526 89.9041C62.4059 89.3081 63.7581 88.5249 65.034 87.4922C65.3322 88.3239 65.7622 89.0586 66.2684 89.8002C66.4071 90.0011 66.7122 90.0289 66.8439 89.8002C67.8286 88.0536 69.2502 86.4734 69.0629 84.3319C69.0283 83.9507 68.4666 83.9368 68.4527 84.3319" fill="black"></path><path d="M85.025 61.8899C84.9556 61.7998 84.7892 61.8968 84.8308 62.0008C85.3648 63.4562 86.5713 64.676 87.986 65.2651C88.1871 65.3483 88.3188 65.0572 88.1871 64.9186C87.1677 63.872 85.9334 63.0542 85.025 61.8829" fill="black"></path><path d="M85.4963 83.9154C85.323 84.8302 85.4339 85.7381 85.1773 86.653C84.9138 87.5886 84.5463 88.4342 83.8875 89.148C82.9653 88.2955 82.2094 87.1589 82.0984 85.8906C82.0915 85.7797 81.9182 85.7728 81.9182 85.8906C81.9043 87.3599 82.6809 88.6421 83.7419 89.6124C83.8321 89.6955 83.9638 89.6955 84.054 89.6124C84.8029 88.9193 85.4062 88.0044 85.746 87.048C86.058 86.1609 86.4255 84.8372 86.0927 83.9154C85.9956 83.652 85.5518 83.5896 85.4894 83.9154" fill="black"></path><path d="M98.887 68.1205C99.4001 67.4968 99.7676 66.7067 100.045 65.9582C100.288 65.3067 100.6 64.4196 100.295 63.7404C100.204 63.5325 99.9133 63.6226 99.8508 63.7958C99.6775 64.281 99.6983 64.8216 99.5457 65.3206C99.3654 65.9235 99.095 66.4988 98.7829 67.0394C98.5472 67.4483 98.2074 68.169 97.6596 67.9611C97.1741 67.7809 96.7442 67.1156 96.4114 66.7552C96.2588 66.5889 95.9814 66.6443 95.8705 66.8245C95.0869 68.0789 94.5113 69.4027 93.8803 70.7334C93.8733 70.7542 93.8941 70.768 93.908 70.7542C94.9135 69.8532 95.5237 68.7027 96.2172 67.573C96.98 68.4116 97.9369 69.271 98.887 68.1205Z" fill="black"></path><path d="M100.73 85.5934C100.377 86.1479 100.342 86.9449 100.148 87.5686C100.03 87.9429 99.9261 88.3865 99.718 88.7191C99.5169 89.0518 99.3921 88.9132 99.1217 88.6568C98.3519 87.929 97.818 86.7231 97.5614 85.7112C97.5475 85.6558 97.4505 85.6627 97.4574 85.7251C97.6377 87.1667 98.2479 88.8508 99.614 89.5231C99.7527 89.5924 99.9122 89.5577 99.9954 89.4261C100.349 88.83 100.613 88.1785 100.834 87.5132C101.029 86.931 101.299 86.2726 101.202 85.6558C101.167 85.4202 100.841 85.4271 100.73 85.5934Z" fill="black"></path><path d="M121.624 63.9627C120.181 63.8795 119.238 63.2973 118.115 62.4518C117.921 62.3062 117.56 62.4102 117.456 62.625C117.102 63.3735 116.887 64.2468 116.388 64.9191C115.577 64.2815 115.126 63.0825 115.091 62.0914C115.084 61.8557 114.752 61.8627 114.731 62.0914C114.613 63.5122 115.008 65.023 116.249 65.8547C116.416 65.9656 116.631 65.9102 116.769 65.7854C117.456 65.1894 117.747 64.3993 118.08 63.5953C119.176 64.3508 120.327 64.9676 121.728 64.6765C122.151 64.5864 122.026 63.9765 121.631 63.9557" fill="black"></path><path d="M128.914 68.2394C127.146 70.4017 124.913 71.9196 122.403 73.0839C121.973 73.2849 122.181 74.0265 122.645 73.9849C125.544 73.7285 128.054 70.9631 129.136 68.4127C129.191 68.281 129.025 68.1008 128.914 68.2394Z" fill="black"></path><path d="M184.542 48.0708C183.98 49.8104 183.315 51.4946 182.261 53.0054C181.935 53.4767 181.623 53.9549 181.255 54.3916C181.089 54.5995 180.867 54.9114 180.617 55.0292C180.194 55.2302 179.91 54.8559 179.612 54.5995C178.454 53.6153 177.587 52.5688 177.192 51.0718C176.796 49.5678 177.192 47.8976 176.609 46.4491C176.491 46.158 176.179 46.0609 175.937 46.2689C174.778 47.253 173.835 48.5282 172.476 49.2768C172.296 49.3807 171.935 49.6025 171.713 49.5055C171.408 49.3738 171.353 48.6738 171.325 48.4035C171.235 47.6273 171.221 46.6778 171.408 45.9154C171.457 45.7144 171.159 45.5689 171.055 45.7699C170.521 46.8025 169.924 50.4896 171.949 50.3025C172.865 50.2193 173.718 49.4223 174.376 48.854C174.945 48.355 175.472 47.8075 176.02 47.2877C176.179 48.057 176.124 48.8678 176.179 49.6441C176.249 50.5312 176.464 51.4183 176.803 52.2361C177.108 52.9639 177.545 53.6223 178.086 54.1975C178.398 54.5302 178.745 54.8143 179.092 55.1054C179.341 55.3133 179.605 55.6321 179.917 55.7638C181.137 56.2628 182.143 54.3846 182.684 53.6015C183.849 51.9035 184.702 50.1847 184.868 48.1124C184.882 47.9114 184.591 47.8906 184.528 48.0639" fill="black"></path><path d="M174.352 96.1767C174.165 97.3479 173.978 98.3806 173.423 99.4479C173.319 99.6489 173.118 100.266 172.91 100.37C172.688 100.474 172.029 100.266 171.828 100.196C170.226 99.6628 170.212 97.6044 169.879 96.239C169.81 95.9618 169.449 96.0034 169.359 96.239C169.13 96.8767 168.721 97.5073 168.416 98.1242C168.09 98.7895 167.757 99.4479 167.369 100.079C166.717 101.125 165.899 102.005 165.157 102.969C164.998 102.768 164.713 102.594 164.561 102.428C164.262 102.109 164.027 101.77 163.846 101.375C163.41 100.418 163.229 99.337 163.146 98.2974C163.063 97.237 163.104 96.1836 163.215 95.1301C163.306 94.2638 163.354 93.1896 163.763 92.3995C163.763 92.3995 163.763 92.3856 163.749 92.3995C162.654 94.34 162.3 96.5093 162.404 98.7271C162.46 99.8499 162.647 101.007 163.202 102.005C163.465 102.477 164.484 103.856 165.185 103.378C166.426 102.906 167.334 101.693 168.042 100.612C168.465 99.9608 168.853 99.2747 169.172 98.5677C169.352 98.1658 169.477 97.7499 169.595 97.341C169.963 98.9281 170.365 100.501 172.258 100.834C173.125 100.987 173.305 100.799 173.728 100.044C174.352 98.9212 174.969 97.5004 174.782 96.1905C174.754 95.9757 174.387 95.9826 174.359 96.1905" fill="black"></path><path d="M170.429 70.1178C170.491 70.0139 170.346 69.903 170.263 69.9862C168.98 71.2198 167.607 72.405 165.929 73.0564C164.271 73.6941 162.475 73.9089 160.735 74.2069C160.152 74.3109 160.298 75.2257 160.873 75.2257C162.822 75.2119 164.764 74.8723 166.504 73.9505C168.168 73.0703 169.458 71.698 170.436 70.1178" fill="black"></path><path d="M35.5748 75.7798C35.4569 75.3709 34.8883 75.4748 34.8536 75.8768C34.7912 76.7154 34.8605 77.7689 34.3682 78.5035C33.1755 77.5124 32.6207 75.9114 31.7747 74.6431C31.5528 74.3105 31.0535 74.6016 31.2338 74.962C32.0243 76.5144 32.7247 78.3649 34.2295 79.3768C34.3682 79.4738 34.5901 79.4322 34.701 79.3144C35.2281 78.7807 35.4083 78.0877 35.4916 77.3738C35.8383 77.9421 36.2474 78.4689 36.6704 79.0233C37.3847 79.9659 38.1683 80.8461 39.0767 81.6015C39.1044 81.6223 39.1391 81.5876 39.1113 81.5668C37.4263 79.9797 36.185 78.0184 35.5609 75.7798" fill="black"></path><path d="M147.818 64.4479C147.339 65.4667 147.027 66.5756 146.334 67.4835C145.592 66.9221 145.439 65.9241 145.266 65.0508C145.238 64.9053 145.016 64.8429 144.919 64.9607C143.65 66.5617 142.568 68.3706 140.661 69.2716C140.606 69.2993 140.599 69.3963 140.661 69.4241C141.736 69.9161 142.797 69.0221 143.505 68.2597C144.163 67.5459 144.607 66.7211 144.982 65.8548C145.148 66.735 145.439 67.5736 146.251 68.1003C146.348 68.1627 146.507 68.1488 146.583 68.0587C147.423 67.0746 147.901 65.8548 148.171 64.6073C148.213 64.3994 147.915 64.2469 147.811 64.4548" fill="black"></path><path d="M105.711 18.3942C105.454 17.1605 104.573 15.9962 103.963 14.9011C103.297 13.7091 102.694 12.4962 101.924 11.3734C101.911 11.3596 101.883 11.3596 101.883 11.3804C102.015 12.718 102.618 13.8199 103.284 14.9774C103.956 16.1486 104.553 17.5278 105.433 18.5536C105.551 18.6852 105.738 18.5397 105.711 18.3942Z" fill="black"></path></svg>