<svg width="945" height="325" viewBox="0 0 945 325" fill="none" xmlns="http://www.w3.org/2000/svg">
<g clip-path="url(#clip0_1397_3068)">
<path d="M224.618 111.491V29.9128C224.618 15.2286 211.928 14.1409 209.027 13.5971L209.571 3.44507H268.126C294.957 3.44507 321.243 16.4976 321.243 41.1525C321.243 65.8074 299.126 82.8482 263.413 85.0236L261.963 76.5032C281.542 70.8834 291.875 60.3688 291.875 45.3221C291.875 27.0122 276.103 16.6789 257.793 16.6789H253.261V106.053C253.261 126.175 265.951 127.082 273.384 127.807L272.84 137.959H209.571L209.027 127.807C211.928 127.444 224.618 126.175 224.618 111.491Z" fill="#06260F"/>
<path d="M433.269 122.369L406.258 140.316C398.1 139.228 391.936 134.152 390.123 124.725L368.913 140.316C343.17 141.766 335.375 130.527 335.375 106.959V79.7666C335.375 69.6146 329.936 66.714 322.866 67.983L319.422 60.5503L346.615 42.603C356.585 44.7785 362.568 51.486 362.568 64.7199V96.8075C362.568 108.772 363.293 111.673 366.556 114.936C368.732 117.111 372.176 118.018 374.714 118.018C381.059 118.018 388.129 113.123 390.123 111.854V79.7666C390.123 69.6146 384.685 66.714 377.615 67.983L374.17 60.5503L401.363 42.603C411.334 44.7785 417.316 51.486 417.316 64.7199V103.152C417.316 113.304 422.755 116.205 429.825 114.936L433.269 122.369Z" fill="#06260F"/>
<path d="M444.691 116.93V79.7666C444.691 69.6146 439.253 67.0766 432.183 68.3456L428.738 60.9129L455.931 42.603C464.089 44.4159 469.528 49.1293 471.34 57.831L487.656 42.603C503.609 42.603 511.586 51.486 514.668 64.9012L495.089 78.6789L488.925 75.4157C488.019 70.3397 484.574 65.8076 479.68 65.8076C476.416 65.8076 474.06 66.714 471.884 68.1643V113.486C471.884 126.72 484.756 127.445 487.112 127.807L486.75 137.959H434.721L434.358 127.807C436.715 127.445 444.691 126.72 444.691 116.93Z" fill="#06260F"/>
<path d="M597.875 120.918L570.682 139.047C566.694 139.772 562.887 140.135 559.08 140.135C530.799 140.135 511.945 119.468 511.945 91.7315C511.945 63.9947 533.7 44.4159 555.816 42.603C579.384 44.4159 594.068 60.7316 595.881 83.7549L541.132 98.439C545.664 109.679 554.548 118.562 569.776 118.562C579.384 118.562 588.448 115.299 593.705 113.304L597.875 120.918ZM538.232 87.7432L566.15 77.9537C563.974 68.7082 556.904 60.1877 546.752 60.1877C544.939 60.1877 543.126 60.369 541.132 60.9129C538.413 66.3515 537.507 72.5152 537.507 78.3163C537.507 81.3982 537.688 84.6613 538.232 87.7432Z" fill="#06260F"/>
<path d="M589.538 25.7432L586.094 18.3105L613.287 0.000671387C623.257 2.1761 629.602 8.88367 629.602 22.1175V102.427C629.602 113.486 633.409 115.298 640.842 113.304L644.649 122.369L617.637 140.316C615.099 139.772 602.409 133.427 602.409 119.105V37.1642C602.409 27.0122 596.608 24.4742 589.538 25.7432Z" fill="#06260F"/>
<path d="M681.81 140.316L652.985 72.3335C650.266 65.9885 646.459 64.1756 639.751 66.351L636.488 59.6435L661.868 42.6026C672.745 45.3219 676.734 52.392 680.903 63.4505L695.587 97.1696L697.944 110.222L714.079 72.1522C712.447 66.7136 702.658 60.5499 693.775 64.1756L690.33 57.468L712.628 42.6026C712.628 42.7839 729.307 42.4213 735.47 58.3745L675.646 179.836H640.839L640.477 168.596C653.892 166.421 666.944 164.064 681.81 140.316Z" fill="#06260F"/>
<path d="M471.969 228.058V239.842H427.191V228.058H471.969Z" fill="#06260F"/>
<path d="M42.7873 203.947L63.0913 187.631C88.4713 187.631 105.512 207.935 105.512 233.134C105.512 260.871 78.3193 282.444 53.4832 285.344C50.4013 284.982 46.9569 284.438 43.1499 283.35V300.391C43.1499 313.625 56.0212 314.35 58.3779 314.713L58.0153 324.865H5.98633L5.62376 314.713C7.98048 314.35 15.957 313.625 15.957 303.835V224.795C15.957 216.274 12.15 213.011 6.53019 213.011C5.62376 213.011 4.53605 213.193 3.44833 213.374L0.00390625 205.941L27.1968 187.631C35.5359 189.444 41.1558 194.52 42.7873 203.947ZM68.5299 268.122C68.8925 268.122 69.2551 268.122 70.3428 267.941C77.9568 260.146 79.2258 249.45 79.2258 241.654C79.2258 224.251 69.6176 208.117 55.6586 208.117C50.7639 208.117 46.413 210.111 43.1499 213.193V255.976C48.951 262.321 58.7405 268.122 68.5299 268.122Z" fill="#06260F"/>
<path d="M99.8936 170.772L96.4492 163.339L123.642 145.029C133.613 147.205 139.958 153.912 139.958 167.146V247.456C139.958 258.514 143.765 260.327 151.198 258.333L155.005 267.397L127.993 285.344C125.455 284.8 112.765 278.455 112.765 264.134V182.193C112.765 172.041 106.964 169.503 99.8936 170.772Z" fill="#06260F"/>
<path d="M157.723 259.964C157.723 242.198 172.951 235.491 187.635 230.052C194.524 227.514 201.05 225.339 207.939 222.982C207.395 211.561 201.05 207.935 193.799 207.935C185.459 207.935 177.845 211.198 165.518 216.818L160.986 208.479L190.535 188.538C195.249 187.631 199.962 187.087 204.313 187.087C221.898 187.087 235.132 194.339 235.132 215.549V247.456C235.132 255.976 237.307 259.058 241.839 259.058C243.108 259.058 244.74 258.877 246.371 258.333L250.541 267.397L223.167 285.344C220.991 284.8 211.021 280.087 208.483 269.391L187.635 285.344C166.787 285.526 157.723 271.567 157.723 259.964ZM197.243 264.859C200.144 264.859 204.676 263.227 207.939 261.415V234.04C203.225 236.216 199.056 238.029 194.161 240.385C187.997 243.467 184.734 247.818 184.734 253.257C184.734 259.783 189.085 264.859 197.243 264.859Z" fill="#06260F"/>
<path d="M288.248 203.222L310.364 187.631C335.563 187.631 343.902 197.965 343.902 220.988V249.087C343.902 260.146 347.709 261.958 355.142 259.964L358.949 269.029L331.937 286.976C329.399 286.432 316.709 280.087 316.709 265.766V231.14C316.709 216.093 313.809 209.929 304.563 209.929C297.674 209.929 290.242 214.824 288.248 216.093V261.958C288.248 271.748 296.224 272.473 298.581 272.836L298.218 282.988H251.084L250.721 272.836C253.078 272.473 261.055 271.748 261.055 261.958V224.795C261.055 216.093 257.066 212.649 251.447 212.649C250.54 212.649 249.634 212.83 248.546 213.011L245.102 205.579L272.294 187.631C280.452 188.719 286.435 193.795 288.248 203.222Z" fill="#06260F"/>
<path d="M379.618 164.608H391.583V193.795L417.506 191.438L421.495 196.152L415.875 206.304L391.764 205.397V245.28C391.764 262.684 401.553 266.672 416.781 260.327L420.407 268.485L394.846 285.344C376.898 285.344 365.477 273.561 365.477 253.982V206.304H348.98V195.608C365.659 193.795 376.173 179.473 379.618 164.608Z" fill="#06260F"/>
<path d="M513.939 167.146V203.584L533.88 187.631C559.26 187.631 576.845 209.567 576.845 234.765C576.845 262.502 551.465 285.344 525.541 285.344C508.863 285.344 496.536 279.18 486.746 266.853V182.193C486.746 173.491 482.758 170.409 477.319 170.409C476.05 170.409 474.963 170.59 474.237 170.772L470.793 163.339L497.986 145.029C507.957 147.204 513.939 153.912 513.939 167.146ZM539.682 268.303C540.407 268.303 541.132 268.303 542.763 267.941C548.383 260.871 550.559 250.356 550.559 242.561C550.559 224.251 540.407 208.66 526.448 208.66C522.097 208.66 517.383 210.473 513.939 213.192V255.795C519.015 261.596 529.711 268.303 539.682 268.303Z" fill="#06260F"/>
<path d="M579.566 259.964C579.566 242.198 594.794 235.491 609.479 230.052C616.367 227.514 622.894 225.339 629.783 222.982C629.239 211.561 622.894 207.935 615.642 207.935C607.303 207.935 599.689 211.198 587.362 216.818L582.83 208.479L612.379 188.538C617.093 187.631 621.806 187.087 626.157 187.087C643.742 187.087 656.975 194.339 656.975 215.549V247.455C656.975 255.976 659.151 259.058 663.683 259.058C664.952 259.058 666.584 258.876 668.215 258.333L672.385 267.397L645.011 285.344C642.835 284.8 632.864 280.087 630.326 269.391L609.479 285.344C588.631 285.525 579.566 271.566 579.566 259.964ZM619.087 264.859C621.987 264.859 626.519 263.227 629.783 261.414V234.04C625.069 236.216 620.9 238.029 616.005 240.385C609.841 243.467 606.578 247.818 606.578 253.257C606.578 259.783 610.929 264.859 619.087 264.859Z" fill="#06260F"/>
<path d="M716.612 269.028C718.969 269.028 722.232 268.666 724.408 267.941C725.495 266.128 726.039 264.678 726.039 263.046C726.039 260.145 723.864 257.064 719.15 254.344C710.267 249.087 703.016 244.917 694.314 239.479C684.706 233.315 675.823 228.42 675.823 214.643C675.823 198.327 697.215 189.081 712.624 187.631C731.115 188.9 742.355 195.789 748.7 208.116L729.846 218.087L725.495 214.643C722.595 206.666 715.343 203.04 708.998 203.04C704.829 203.04 702.291 203.947 701.022 204.309C700.115 205.578 699.572 206.485 699.572 208.298C699.572 213.011 705.01 215.912 713.168 220.988C721.507 226.064 731.84 230.958 739.273 235.853C747.068 240.748 750.332 247.093 750.332 255.795C750.332 270.841 736.191 281.356 710.811 285.344C688.151 285.344 676.911 273.017 673.285 261.596L691.958 251.444L697.215 255.432C700.297 263.59 707.729 269.028 716.612 269.028Z" fill="#06260F"/>
<path d="M838.078 265.947L810.885 284.075C806.897 284.8 803.09 285.163 799.283 285.163C771.002 285.163 752.148 264.496 752.148 236.76C752.148 209.023 773.903 189.444 796.02 187.631C819.587 189.444 834.271 205.76 836.084 228.783L781.335 243.467C785.868 254.707 794.751 263.59 809.979 263.59C819.587 263.59 828.651 260.327 833.908 258.333L838.078 265.947ZM778.435 232.771L806.353 222.982C804.177 213.736 797.107 205.216 786.955 205.216C785.142 205.216 783.33 205.397 781.335 205.941C778.616 211.38 777.71 217.543 777.71 223.344C777.71 226.426 777.891 229.689 778.435 232.771Z" fill="#06260F"/>
<path d="M902.785 269.028L882.481 285.344C857.101 285.344 839.879 265.403 839.879 239.479C839.879 210.836 869.428 189.807 891.727 187.631C895.715 188.175 899.159 189.081 902.241 189.988V182.193C902.241 172.041 896.44 169.503 889.37 170.772L885.925 163.339L913.118 145.029C923.089 147.204 929.434 153.912 929.434 167.146V247.455C929.434 258.514 933.241 260.327 940.674 258.333L944.481 267.397L917.469 285.344C915.294 284.8 905.142 279.906 902.785 269.028ZM889.923 264.859C894.455 264.859 899.531 262.502 902.25 259.783V216.818C897.537 211.38 887.929 204.672 878.683 204.672C877.595 204.672 875.601 204.853 875.057 205.035C867.625 213.011 866.174 223.344 866.174 231.684C866.174 249.087 875.964 264.859 889.923 264.859Z" fill="#06260F"/>
</g>
<defs>
<clipPath id="clip0_1397_3068">
<rect width="944.48" height="324.864" fill="white"/>
</clipPath>
</defs>
</svg>
