<svg width="332" height="1064" viewBox="0 0 332 1064" fill="none" xmlns="http://www.w3.org/2000/svg">
<g clip-path="url(#clip0_1397_1904)">
<mask id="mask0_1397_1904" style="mask-type:luminance" maskUnits="userSpaceOnUse" x="65" y="106" width="614" height="836">
<path d="M329.749 891.473C310.025 862.29 274.439 846.56 239.881 835.865C205.323 825.17 168.938 817.526 138.694 798.06C80.2749 760.463 44.5156 674.603 78.8783 618.164C113.248 561.729 198.467 538.028 260.891 569.056C303.396 590.179 348.602 627.225 387.906 653.492C427.211 679.76 488.247 694.72 511.311 656.114C524.326 634.331 518.919 613.719 502.811 593.005C486.703 572.29 449.984 553.975 424.738 544.875C384.777 530.474 353.282 521.531 314.686 503.932C276.086 486.341 252.659 451.248 255.858 411.298C258.892 373.437 314.705 310.662 371.69 315.043C430.486 319.558 461.845 372.836 498.053 390.264C524.23 402.865 565.438 410.995 584.836 397.672C604.233 384.348 624.483 358.065 599.788 331.793C572.655 302.935 447.397 307.675 411.32 246.432C391.704 213.126 416.68 136.96 548.397 106.017L560.996 124.348C431.737 162.615 443.065 219.134 463.748 240.135C492.08 268.907 573.457 252.255 643.166 302.291C680.932 329.394 689.93 377.487 664.373 416.662C620.372 484.116 578.697 514.124 492.063 461.511C433.949 426.218 375.72 344.425 342.424 409.36C327.592 438.286 344.397 456.467 376.598 468.636C408.798 480.804 444.236 491.461 477.391 500.805C537.438 517.72 611.172 586.791 596.523 643.668C581.873 700.545 514.882 750.603 454.185 736.219C419.483 727.998 356.639 690.872 328.009 670.089C299.383 649.3 268.605 628.513 233.321 623.565C198.036 618.617 157.503 635.18 149.212 667.722C141.679 697.26 163.062 728.354 190.296 745.53C217.527 762.714 249.944 769.877 280.492 780.561C317.023 793.333 352.291 812.048 378.246 839.868C404.194 867.685 419.823 905.556 413.816 941.533" fill="white"/>
</mask>
<g mask="url(#mask0_1397_1904)">
<path d="M329.749 891.473C310.025 862.29 274.439 846.559 239.881 835.865C205.323 825.17 168.938 817.526 138.694 798.06C80.2748 760.463 44.5156 674.603 78.8782 618.164C113.248 561.729 198.467 538.028 260.891 569.056C303.396 590.179 348.602 627.225 387.906 653.492C427.211 679.76 488.247 694.72 511.311 656.114C524.326 634.331 518.919 613.719 502.811 593.005C486.702 572.29 449.984 553.975 424.738 544.875C384.776 530.474 353.282 521.531 314.686 503.932C276.086 486.341 252.659 451.248 255.858 411.298C258.892 373.437 314.589 312.337 371.69 315.043C419.972 317.325 466.587 375.391 502.796 392.819C528.973 405.42 566.07 409.552 589.426 392.919C600.991 384.678 621.023 353.11 599.785 331.8C571.834 303.746 447.393 307.683 411.316 246.439C391.7 213.133 416.676 136.967 548.393 106.024L560.992 124.355C431.733 162.622 443.061 219.141 463.744 240.142C492.076 268.914 573.453 252.262 643.162 302.298C680.928 329.401 689.488 373.993 663.935 413.178C619.934 480.633 553.012 499.3 466.382 446.68C408.268 411.388 375.72 344.425 342.431 409.364C327.599 438.29 344.404 456.471 376.605 468.64C408.805 480.808 444.243 491.464 477.398 500.808C537.445 517.724 611.179 586.795 596.53 643.672C581.88 700.549 514.889 750.607 454.192 736.222C419.49 728.002 356.646 690.876 328.016 670.093C299.39 649.304 268.612 628.517 233.328 623.569C198.044 618.621 157.51 635.184 149.219 667.726C141.686 697.264 163.069 728.357 190.303 745.534C217.533 762.717 249.951 769.881 280.499 780.565C317.03 793.337 352.298 812.052 378.253 839.872C404.201 867.689 419.83 905.56 413.823 941.537" fill="#B9FF33"/>
<path d="M386.196 305.058C359.167 302.224 330.158 311.504 307.825 326.676C285.493 341.849 267.599 364.114 260.071 390.893C252.543 417.671 255.453 445.143 268.547 468.633C283.254 495.023 309.449 513.432 335.927 526.68C352.273 534.863 369.364 541.426 386.213 548.472C404.204 555.995 421.61 564.045 438.417 573.986C442.197 576.223 447.371 574.803 449.808 571.332C452.113 568.055 452.404 562.386 448.826 559.672C422.716 539.899 391.277 529.256 361.74 515.879C337.076 504.715 312.163 491.414 294.927 470.111C287.454 460.872 282.404 450.925 279.435 439.439C276.811 429.299 276.296 417.012 277.848 406.863C281.42 383.523 292.878 363.764 310.857 348.012C332.509 329.043 359.583 320.723 386.427 312.152C389.633 311.125 390.046 305.467 386.193 305.065L386.196 305.058Z" fill="#11CF00"/>
<path d="M244.748 846.948C248.259 852.435 256.441 855.772 262.046 858.746C268.493 862.163 275.339 864.973 281.981 867.993C288.623 871.013 294.877 873.632 301.049 876.947C307.221 880.263 312.528 884.521 317.621 889.057C326.468 896.933 339.018 883.908 330.371 875.729C324.936 870.588 319.036 866.157 312.893 861.905C306.333 857.375 300.098 852.8 292.879 849.341C285.66 845.882 278.05 842.807 270.359 840.869C266.927 840.007 263.445 839.321 259.934 838.912C256.014 838.446 251.65 837.413 247.856 838.817C244.631 840.016 242.732 843.796 244.744 846.937L244.748 846.948Z" fill="#11CF00"/>
<path d="M191.851 548.34C184.959 547.243 178.148 546.575 171.175 547.209C164.202 547.843 157.67 549.629 151.236 551.844C137.956 556.426 125.085 562.865 113.838 571.313C89.6972 589.436 72.6917 615.079 65.8415 644.555C51.8659 704.731 85.0486 761.516 129.09 800.095C143.935 813.104 160.1 824.611 176.699 835.262C192.894 845.66 209.608 856.218 227.019 864.445C232.204 866.891 238.581 865.377 241.407 860.131C244.233 854.884 241.866 848.972 237.093 845.742C223.615 836.634 209.026 829.059 195.177 820.52C182.007 812.401 169.073 803.861 156.876 794.327C134.888 777.141 115.702 757.741 101.807 733.92C89.2307 712.355 82.3404 687.331 84.638 662.299C86.9355 637.268 98.6136 611.7 117.119 592.883C126.979 582.865 138.588 574.712 151.175 568.495C157.533 565.352 164.213 562.987 170.87 560.545C177.95 557.947 184.853 554.878 191.996 552.452C193.878 551.81 194.063 548.699 191.858 548.344L191.851 548.34Z" fill="#11CF00"/>
<path d="M330.094 371.92C328.993 371.995 327.199 372.318 326.398 371.548L326.472 374.771C329.095 372.059 331.303 369.947 335.29 369.661L332.388 366.15C331.917 369.555 328.339 371.323 325.182 370.427L327.116 374.697C329.588 370.651 334.014 368.973 338.609 369.272L335.631 365.665C334.312 369.455 330.129 371.107 326.412 370.961L329.452 374.639C329.93 371.85 331.994 369.87 334.835 369.553L332.774 364.958C331.986 365.878 331.301 366.844 330.646 367.855C329.021 370.363 332.658 372.441 334.615 370.743C335.367 370.096 336.042 369.453 336.706 368.713C338.201 367.04 337.112 363.901 334.644 364.118C329.352 364.587 324.84 368.038 323.585 373.289C323.238 374.731 324.236 376.732 325.849 376.896C332.846 377.61 339.239 373.791 341.392 366.975C342.006 365.038 340.163 363.432 338.414 363.368C331.799 363.134 325.557 366.385 321.944 371.902C320.815 373.626 322.216 375.643 323.879 376.173C330.591 378.316 337.465 373.604 338.075 366.698C338.202 365.239 336.504 363.757 335.104 363.926C329.929 364.551 324.269 367.383 322.616 372.694C322.216 373.979 323.247 375.019 324.327 375.427C326.945 376.407 331.009 375.331 330.175 371.973C330.172 371.944 330.137 371.925 330.108 371.928L330.094 371.92Z" fill="#11CF00"/>
<path d="M323.911 384.854C323.388 384.28 322.554 384.096 321.813 384.163C320.852 384.249 320.003 384.706 319.529 385.585C319.056 386.464 319.104 387.46 319.598 388.275C320.092 389.09 321.032 389.605 322.002 389.57C322.471 389.548 322.914 389.421 323.311 389.177C323.722 388.923 324.053 388.58 324.282 388.155C324.388 387.873 324.58 387.501 324.62 387.257C324.698 386.823 324.686 386.387 324.576 385.962C324.467 385.537 324.21 385.198 323.907 384.861L323.911 384.854Z" fill="#11CF00"/>
<path d="M275.448 605.703C279.986 605.531 284.466 608.456 285.582 612.954L288.258 609.227C284.016 609.037 280.181 606.935 278.924 602.663L276.873 606.47C279.715 605.815 282.935 607.357 283.964 610.152L286.137 606.118C284.333 606.784 282.329 606.107 281.793 604.163C280.623 599.883 273.864 601.904 275.194 606.142C276.83 611.322 282.856 614.449 287.99 612.321C289.487 611.7 290.878 610.035 290.163 608.287C287.705 602.289 281.433 599.093 275.113 600.619C273.516 601.003 272.597 602.913 273.062 604.426C275.017 610.766 281.651 615.803 288.452 615.031C290.78 614.766 291.734 612.673 290.824 610.628C288.149 604.623 281.299 601.701 275.058 603.388C273.743 603.741 274.095 605.769 275.441 605.717L275.448 605.703Z" fill="#11CF00"/>
<path d="M259.094 600.47C259.883 600.959 260.036 601.032 259.545 600.686C259.296 600.469 259.012 600.334 258.683 600.267C258.407 600.218 258.126 600.196 257.855 600.241C257.583 600.287 257.333 600.326 257.076 600.362C255.987 600.516 255.067 600.935 254.52 601.948C254.016 602.884 254.049 604.045 254.602 604.956C255.154 605.866 256.207 606.442 257.289 606.403C258.248 606.371 259.484 605.775 259.845 604.816C259.966 604.507 260.087 604.197 260.208 603.887C260.381 603.431 260.591 603.023 260.552 602.518L260.455 601.917C260.12 601.114 260.114 601.175 260.45 602.097C260.374 601.269 259.88 600.71 259.105 600.467L259.094 600.47Z" fill="#11CF00"/>
<path d="M311.023 819.748C313.48 818.702 315.325 820.574 316.011 822.764L316.181 821.108C315.372 822.813 312.236 823.456 311.8 821.108C311.48 819.408 313.13 818.706 314.514 819.396C316.005 820.144 315.689 821.886 314.252 822.566C312.392 823.439 310.313 821.881 309.415 820.372L309.492 823.304C310.802 821.33 313.832 819.916 315.267 822.482C315.37 822.665 315.349 823.093 315.421 822.501C315.402 822.673 314.575 822.255 314.745 822.466C314.915 822.677 315.76 823.672 314.714 822.065C314.391 821.544 313.964 821.131 313.418 820.837C313.791 823.15 314.137 823.748 314.455 822.648L313.596 824.243L313.059 824.576L311.317 824.635L311.761 824.746L310.166 823.887L309.786 822.621L310.63 821.054L310.652 821.066C307.314 822.762 309.802 828.145 313.31 826.998C318.124 825.43 317.281 817.758 311.962 817.903C307.278 818.023 305.892 824.96 310.191 826.845L308.538 824.821C311.254 832.513 323.899 829.025 321.4 820.91C320.365 817.535 316.992 815.188 313.509 815.132C309.62 815.068 306.4 817.413 304.316 820.516C303.75 821.364 303.906 822.619 304.393 823.448C307.284 828.371 314.351 830.687 318.72 826.208C322.626 822.202 320.869 815.987 315.585 814.421C310.3 812.855 305.536 817.267 306.988 822.568C308.441 827.869 315.992 829.303 319.238 824.721C321.03 822.193 319.927 819.486 317.052 818.523C314.984 817.829 312.686 818.256 310.898 819.47C310.755 819.566 310.848 819.836 311.026 819.759L311.023 819.748Z" fill="#11CF00"/>
<path d="M289.068 821.961C289.579 822.236 290.007 821.442 289.496 821.167C288.986 820.892 288.558 821.686 289.068 821.961Z" fill="#11CF00"/>
<path d="M288.024 820.117C288.301 820.028 288.152 820.186 288.18 819.963C288.174 820.042 288.101 819.481 288.071 819.877L288.254 819.079C288.208 819.164 288.173 819.246 288.128 819.331L288.842 818.582L288.685 818.652L289.798 818.319C289.539 818.307 289.282 818.343 289.031 818.418C288.765 818.504 288.79 818.508 289.103 818.42C289.32 818.391 289.524 818.437 289.708 818.554C289.474 818.428 289.455 818.445 289.66 818.592C289.815 818.694 289.93 818.838 290.015 819.003C290.237 819.406 290.31 819.83 290.221 820.267C290.056 821.065 289.324 821.576 288.529 821.642L285.495 820.007C285.793 820.506 285.733 820.227 285.305 819.155C285.396 818.628 285.402 818.549 285.326 818.91C285.552 818.135 285.916 817.783 286.672 817.55C286.998 817.369 287.327 817.336 287.681 817.444C287.295 817.345 287.38 817.373 287.937 817.545C288.242 817.709 288.483 817.94 288.651 818.241C288.84 818.772 288.884 818.86 288.784 818.486L288.5 821.288C288.702 820.93 288.635 821.004 288.31 821.505C288.589 821.226 288.519 821.27 288.093 821.636C288.683 821.221 287.357 821.916 288.232 821.582C288.497 821.515 288.396 821.533 287.91 821.637C288.313 821.635 288.242 821.615 287.695 821.577C287.857 821.6 288.018 821.641 288.182 821.692C287.838 821.635 287.54 821.475 287.303 821.219L286.304 819.592C286.211 819.204 286.205 818.808 286.303 818.421C286.586 817.778 286.633 817.639 286.45 817.997C286.877 817.459 286.946 817.331 286.67 817.622C286.861 817.386 287.097 817.221 287.38 817.136C287.705 817.008 287.73 816.995 287.457 817.095C289.135 817.121 289.255 817.085 287.828 816.983C287.121 817.005 286.306 817.279 285.724 817.68C284.139 818.755 283.498 820.862 284.538 822.565C287.201 826.927 293.916 823.391 293.713 818.946C293.51 814.501 287.831 813.089 284.435 815.183C282.529 816.361 281.105 818.53 281.809 820.821C282.393 822.709 284.181 824.093 286.087 824.443C288.252 824.84 290.421 823.868 291.546 821.968C292.496 820.357 292.506 817.994 291.335 816.485C290.436 815.333 288.961 814.438 287.445 814.994C285.842 815.575 284.57 816.765 284.165 818.468C283.798 820.017 284.277 821.656 285.415 822.754C287.508 824.778 292.269 824.004 292.201 820.565C292.187 819.826 291.711 818.91 290.995 818.626C290.44 818.4 290.086 818.31 289.485 818.306C289.195 818.351 289.195 818.351 289.485 818.306L289.123 818.367C288.955 818.423 288.787 818.497 288.624 818.546C289.129 818.389 288.258 818.596 288.1 818.685C287.793 818.849 287.577 819.08 287.409 819.374C287.188 819.785 287.597 820.298 288.048 820.157L288.024 820.117Z" fill="#11CF00"/>
</g>
<path d="M331.534 890.385C305.192 850.905 256.66 837.659 213.634 825.211C189.191 818.136 164.483 810.635 142.652 797.201C125.675 786.757 111.017 772.605 99.2857 756.535C77.3508 726.499 63.0231 687.078 70.0116 649.636C77 612.194 107 584.587 140.666 570.398C175.949 555.533 217.676 553.497 253.215 568.653C273.357 577.244 292.075 589.769 310.101 602.049C329.652 615.371 348.62 629.503 367.93 643.17C383.17 653.95 398.435 664.377 415.775 671.513C431.161 677.844 447.715 682.279 464.453 682.332C478.744 682.375 493.24 678.694 504.182 669.112C516.094 658.681 523.017 641.738 521.087 625.963C519.157 610.188 508.981 593.794 497.052 582.557C482.618 568.956 464.604 559.014 446.688 550.79C427.195 541.844 406.605 535.427 386.348 528.476C363.567 520.658 340.926 512.496 318.95 502.606C301.374 494.703 285.498 483.507 274.31 467.584C263.649 452.411 258.109 434.289 258.681 415.736C259.082 402.835 264.019 390.97 270.614 380.034C278.613 366.781 289.082 354.987 300.877 344.995C312.923 334.791 326.878 326.374 342.016 321.687C360.173 316.065 379.149 317.158 397.042 323.421C416.731 330.305 433.135 343.458 448.509 357.164C462.21 369.374 475.595 382.392 492.29 390.471C509.187 398.649 526.647 407.77 545.763 408.774C561.569 409.605 577.604 404.221 589.932 394.343C599.249 386.877 606.829 376.508 609.222 364.644C611.616 352.78 607.987 340.517 599.821 331.325C590.053 320.338 575.705 314.237 561.709 310.759C545.542 306.742 528.952 304.565 512.635 301.236C475.123 293.579 434.145 280.149 413.82 244.933C404.371 228.565 408.234 207.844 416.319 191.783C430.397 163.831 457.486 144.361 484.978 130.97C505.4 121.025 527.193 114.087 549.269 108.865L545.886 107.573C550.084 113.685 554.283 119.798 558.481 125.91L560.165 121.512C538.16 128.062 516.289 136.01 496.25 147.351C483.356 154.647 470.814 163.614 461.484 175.263C449.986 189.613 444.395 208.38 451.424 226.032C454.148 232.878 458.376 239.308 463.961 244.155C473.937 252.804 487.378 256.532 500.001 259.316C517.276 263.124 534.855 265.368 552.195 268.854C572.839 273.014 593.265 278.684 612.367 287.676C631.229 296.555 650.322 308.231 662.431 325.638C672.389 339.957 677.171 357.433 675.164 374.828C673.018 393.448 663.788 409.632 652.47 424.207C642.795 436.667 631.447 447.952 618.178 456.573C592.018 473.571 560.863 477.46 530.685 470.708C492.809 462.232 459.61 440.882 430.665 415.759C418.966 405.606 407.604 394.556 394.393 386.342C385.101 380.568 373.913 376.563 363.308 381.223C349.873 387.129 340.51 403.508 336.135 416.792C331.299 431.474 335.724 445.758 347.32 455.782C353.958 461.526 361.835 465.732 369.878 469.141C381.079 473.885 392.711 477.745 404.23 481.627C429.048 489.993 454.269 496.865 479.311 504.491C512.764 514.673 543.589 536.884 566.259 563.228C577.071 575.793 586.468 590.185 591.61 606.044C596.751 621.902 596.375 636.014 591.185 650.963C579.251 685.394 549.607 714.107 516.043 727.529C499.301 734.224 480.917 737.364 462.963 734.782C445.758 732.301 429.405 724.845 413.877 717.35C395.584 708.52 377.821 698.586 360.5 687.985C344.032 677.906 328.604 666.559 312.683 655.668C274.71 629.697 227.194 607.45 181.734 628.082C164.021 636.121 148.968 651.044 145.531 670.77C142.212 689.818 149.838 708.808 161.507 723.619C193.365 764.031 248.034 770.521 293.037 788.434C338.04 806.346 382.579 835.799 402.465 881.9C410.451 900.407 414.126 920.854 410.911 940.882C410.306 944.636 416.102 946.002 416.707 942.212C423.486 899.946 402.823 858.448 372.58 829.928C353.906 812.313 331.614 798.815 308.261 788.375C284.908 777.935 258.377 770.797 233.346 762.079C210.247 754.036 187.323 743.562 170.582 725.196C157.588 710.943 147.741 691.306 151.401 671.572C155.234 650.907 172.754 636.874 191.819 630.414C214.46 622.753 238.237 625.307 260.319 633.626C284.463 642.717 305.837 657.679 326.612 672.684C340.932 683.032 355.925 692.453 371.172 701.37C388.389 711.45 406.028 720.952 424.349 728.9C439.76 735.592 455.588 741.136 472.533 741.721C508.882 742.98 544.238 724.413 568.681 698.377C580.783 685.487 590.558 670.364 596.585 653.708C601.904 639.011 602.767 624.045 598.739 608.905C590.048 576.189 564.547 548.713 538.107 528.891C524.098 518.391 508.892 509.331 492.598 502.868C483.652 499.32 474.402 496.88 465.165 494.228C452.257 490.512 439.382 486.686 426.573 482.65C413.765 478.614 401.046 474.396 388.419 469.854C378.511 466.291 368.52 462.729 359.467 457.258C346.013 449.123 336.803 436.607 341.21 420.395C343.494 412.012 348.295 403.677 353.672 396.887C357.389 392.193 361.972 387.71 367.844 385.944C378.815 382.643 390.055 390.252 398.389 396.516C411.706 406.535 423.683 418.245 436.536 428.837C451.67 441.307 467.899 452.034 485.487 460.73C515.448 475.543 549.481 484.565 582.837 477.708C612.8 471.549 637.955 452.528 656.504 428.758C667.658 414.452 677.174 398.723 680.334 380.614C683.259 363.859 680.681 346.655 672.898 331.524C663.908 314.049 648.811 301.544 632.227 291.578C613.655 280.412 593.198 272.712 572.24 267.386C554.077 262.779 535.559 260.003 517.112 256.807C503.009 254.36 487.974 251.996 475.22 245.125C461.189 237.567 452.656 222.132 453.996 206.179C456.087 181.292 479.407 163.761 499.336 152.471C519.266 141.181 540.314 133.64 561.846 127.22C563.599 126.7 564.627 124.419 563.53 122.822C559.331 116.709 555.129 110.604 550.93 104.491C550.14 103.343 548.889 102.88 547.547 103.199C508.159 112.541 468.098 127.667 437.649 155.207C419.728 171.411 404.718 193.281 402.701 217.961C401.99 226.652 403.084 235.574 406.619 243.579C413.508 259.181 427.224 272.112 441.273 281.299C472.561 301.748 510.492 306.521 546.377 313.412C561.263 316.272 576.391 319.738 588.743 329.071C598.896 336.745 605.736 348.296 603.876 361.325C599.559 391.617 563.58 407.213 536.366 401.682C526.73 399.72 517.612 395.915 508.726 391.796C500.018 387.755 491.123 383.824 483.148 378.439C467.47 367.862 454.464 353.749 439.828 341.85C423.384 328.482 404.925 317.633 383.883 313.616C366.954 310.388 350.049 311.818 333.943 317.978C304.973 329.054 279.801 351.908 264.274 378.594C257.78 389.749 253.116 401.854 252.576 414.844C251.822 432.868 256.641 450.904 266.14 466.229C275.749 481.722 289.789 494.17 305.752 502.842C326.089 513.889 348.713 521.557 370.513 529.175C410.758 543.253 454.544 554.528 488.085 582.273C501.38 593.267 513.743 609.439 515.553 627.135C517.202 643.261 508.873 660.251 495.198 668.947C481.522 677.642 465.438 678.006 450.426 675.736C433.576 673.191 417.284 667.03 402.352 658.923C383.953 648.929 367.177 635.721 350.226 623.499C330.962 609.61 311.697 595.674 291.535 583.112C273.969 572.168 255.733 561.805 235.517 556.714C216.96 552.041 197.417 551.237 178.489 553.892C141.805 559.029 105.53 577.127 82.967 607.094C60.4037 637.061 58.2487 674.207 68.8902 708.907C80.0987 745.458 104.331 778.955 136.392 799.957C178.679 827.666 231.001 831.447 276.214 852.537C296.147 861.838 315.119 874.4 327.965 892.579C329.502 894.752 333.028 892.654 331.522 890.407L331.534 890.385Z" fill="black"/>
<path d="M227.68 508.689C227.31 508.663 226.968 508.415 226.647 508.315C226.325 508.215 226.03 507.965 225.695 507.857C225.36 507.75 225.031 507.646 224.669 507.606C224.259 507.569 223.817 507.404 223.381 507.416C222.945 507.428 222.532 507.48 222.102 507.514C221.673 507.548 221.271 507.834 220.852 507.865C220.434 507.895 219.982 507.698 219.575 507.707C219.167 507.716 218.79 507.924 218.389 507.955C217.988 507.986 217.601 508.043 217.199 508.092C216.798 508.141 216.442 508.361 216.043 508.421C215.645 508.481 215.206 508.244 214.811 508.315C214.416 508.386 214.097 508.808 213.705 508.89C213.314 508.972 212.869 508.778 212.481 508.871C212.093 508.963 211.755 509.267 211.367 509.359C210.979 509.452 210.51 509.218 210.129 509.314C209.748 509.411 209.436 509.837 209.054 509.934C208.673 510.03 208.286 510.188 207.883 510.309C207.479 510.43 207.016 510.272 206.622 510.407C206.229 510.543 205.877 510.756 205.487 510.902C205.097 511.049 204.684 511.101 204.295 511.248C203.905 511.395 203.608 511.775 203.229 511.918C202.85 512.061 202.463 512.219 202.081 512.369C201.698 512.52 201.248 512.506 200.869 512.65C200.453 512.81 199.99 512.871 199.574 513.05C199.158 513.228 198.752 513.421 198.343 513.603C197.934 513.785 197.612 514.161 197.207 514.354C196.801 514.547 196.317 514.579 195.921 514.787C195.526 514.994 195.266 515.477 194.871 515.684C194.475 515.892 194.055 515.976 193.667 516.17C193.279 516.364 192.932 516.634 192.541 516.817C192.15 516.999 191.641 516.926 191.254 517.102C190.866 517.277 190.546 517.617 190.152 517.789C189.757 517.96 189.394 518.194 189.006 518.37C188.619 518.545 188.099 518.458 187.708 518.64C187.317 518.823 186.991 519.123 186.603 519.316C186.215 519.51 185.874 519.719 185.515 519.91C185.156 520.101 184.871 520.46 184.508 520.658C184.146 520.856 183.673 520.866 183.318 521.068C182.962 521.27 182.654 521.57 182.305 521.794C181.956 522.018 181.676 522.333 181.327 522.557C180.978 522.78 180.522 522.828 180.177 523.062C179.831 523.297 179.548 523.602 179.209 523.84C178.87 524.078 178.373 524.085 178.034 524.323C177.695 524.561 177.487 524.998 177.149 525.236C176.81 525.474 176.457 525.705 176.118 525.943C175.78 526.182 175.534 526.553 175.191 526.798C174.849 527.043 174.365 527.075 174.023 527.321C173.68 527.566 173.549 528.081 173.214 528.33C172.878 528.579 172.432 528.677 172.104 528.93C171.775 529.183 171.367 529.348 171.045 529.604C170.724 529.861 170.581 530.314 170.273 530.579C169.966 530.843 169.589 531.034 169.289 531.302C168.989 531.57 168.79 531.957 168.497 532.229C168.204 532.501 167.722 532.598 167.436 532.874C167.151 533.15 167.07 533.656 166.788 533.942C166.505 534.229 166.163 534.457 165.877 534.75C165.59 535.044 165.137 535.157 164.85 535.451C164.564 535.745 164.463 536.203 164.177 536.497C163.891 536.791 163.445 536.871 163.145 537.139C162.845 537.407 162.494 537.584 162.191 537.841C161.887 538.099 161.636 538.412 161.333 538.669C161.03 538.926 160.946 539.439 160.657 539.704C160.367 539.969 159.808 539.988 159.544 540.275C159.272 540.577 159.048 540.941 158.84 541.259C158.61 541.602 158.553 542.047 158.313 542.375C158.072 542.702 157.627 542.883 157.386 543.211C157.146 543.539 156.926 543.878 156.675 544.209C156.423 544.54 156.285 544.932 156.048 545.271C155.788 545.634 155.497 545.971 155.266 546.331C155.036 546.692 155.009 547.199 154.789 547.574C154.568 547.95 154.344 548.332 154.138 548.715C153.932 549.098 153.648 549.438 153.438 549.828C153.228 550.218 152.838 550.484 152.62 550.87C152.403 551.256 152.548 551.837 152.309 552.211C152.071 552.586 151.487 552.702 151.224 553.054C151.018 553.336 150.788 553.642 150.61 553.958C150.431 554.273 150.361 554.656 150.218 554.973C150.075 555.289 150.027 555.684 149.909 556.004C149.811 556.272 149.592 556.593 149.405 556.94C149.244 557.256 149.186 557.636 149.061 557.953C148.905 558.345 148.785 558.618 148.845 558.898C149.24 558.809 149.59 558.686 149.982 558.586C150.374 558.487 150.744 558.292 151.14 558.186C151.536 558.079 151.925 557.95 152.318 557.85C152.71 557.751 153.204 558.09 153.603 558.012C154.001 557.934 154.377 557.798 154.778 557.749C155.237 557.694 155.665 557.477 156.12 557.465C156.574 557.454 157.029 557.288 157.487 557.287C157.945 557.287 158.389 557.38 158.847 557.361C159.305 557.343 159.732 557.28 160.185 557.204C160.587 557.137 161.019 557.269 161.406 557.194C161.794 557.12 162.175 556.922 162.563 556.847C162.95 556.773 163.334 556.586 163.718 556.519C164.102 556.451 164.544 556.634 164.942 556.574C165.34 556.514 165.694 556.23 166.099 556.191C166.504 556.153 166.891 556.097 167.302 556.08C167.732 556.065 168.163 556.096 168.586 556.04C169.009 555.985 169.455 556.023 169.875 555.957C170.295 555.89 170.729 555.85 171.156 555.787C171.583 555.724 172.014 555.773 172.447 555.733C172.881 555.692 173.291 555.694 173.726 555.635C174.16 555.576 174.531 555.328 174.955 555.254C175.379 555.181 175.813 555.241 176.23 555.145C176.647 555.05 176.968 554.591 177.389 554.489C177.81 554.386 178.328 554.748 178.735 554.638C179.142 554.528 179.498 554.189 179.905 554.079C180.312 553.969 180.786 554.041 181.189 553.92C181.593 553.799 181.893 553.293 182.282 553.164C182.672 553.036 183.127 552.988 183.513 552.849C183.863 552.726 184.217 552.578 184.577 552.47C184.937 552.363 185.379 552.509 185.732 552.398C186.085 552.286 186.34 551.847 186.679 551.709C187.153 551.526 187.523 551.332 187.882 551.123C188.289 550.894 188.728 550.792 189.111 550.54C189.46 550.299 189.914 550.187 190.326 549.915C190.664 549.694 190.899 549.327 191.24 549.117C191.581 548.908 192.016 548.849 192.357 548.64C192.699 548.43 193.078 548.287 193.419 548.078C193.761 547.868 193.889 547.307 194.227 547.104C194.565 546.902 195.095 546.987 195.437 546.777C195.778 546.568 196.013 546.182 196.355 545.973C196.696 545.763 197.075 545.62 197.414 545.4C197.752 545.18 198.135 545.029 198.462 544.812C198.789 544.595 199.197 544.449 199.528 544.225C199.859 544.001 199.964 543.417 200.295 543.193C200.626 542.968 201.189 543.061 201.524 542.83C201.858 542.599 202.173 542.338 202.5 542.103C202.828 541.868 202.959 541.353 203.287 541.118C203.615 540.883 204.053 540.799 204.381 540.564C204.709 540.329 204.898 539.91 205.216 539.66C205.533 539.41 206.052 539.415 206.369 539.166C206.687 538.916 206.814 538.426 207.124 538.173C207.434 537.919 207.891 537.836 208.198 537.571C208.505 537.307 208.93 537.179 209.234 536.922C209.537 536.664 209.75 536.285 210.057 536.021C210.365 535.757 210.574 535.385 210.874 535.116C211.174 534.848 211.509 534.617 211.806 534.338C212.103 534.058 212.567 533.961 212.856 533.678C213.146 533.395 213.215 532.893 213.491 532.602C213.792 532.298 214.018 531.98 214.261 531.681C214.52 531.354 214.738 531.033 214.943 530.704C215.166 530.358 215.293 529.987 215.484 529.632C215.675 529.278 215.862 528.931 216.031 528.565C216.201 528.199 216.491 527.898 216.672 527.529C216.852 527.159 216.915 526.754 217.121 526.389C217.289 526.077 217.723 525.9 217.938 525.585C218.153 525.271 218.226 524.881 218.444 524.578C218.663 524.274 218.941 524.013 219.141 523.709C219.346 523.38 219.336 522.973 219.472 522.653C219.639 522.276 219.807 521.964 219.848 521.565C219.889 521.166 220.047 520.822 220.221 520.431C220.376 520.075 220.652 519.767 220.911 519.421C221.17 519.076 221.149 518.571 221.312 518.219C221.474 517.868 221.552 517.553 221.642 517.199C221.732 516.845 222.212 516.582 222.306 516.221C222.399 515.86 222.2 515.432 222.362 515.081C222.567 514.633 222.788 514.222 222.995 513.803C223.203 513.384 223.52 513.015 223.742 512.586C223.964 512.157 224.32 511.836 224.546 511.4C224.832 510.868 224.893 510.416 225.107 509.9C225.227 509.609 225.1 509.183 225.278 508.904C225.455 508.625 225.647 508.371 225.739 508.082" fill="#10A800"/>
<path d="M227.841 508.391C222.12 504.34 212.786 506.913 206.561 508.791C202.553 509.999 198.341 511.553 194.697 513.596C190.783 515.787 186.537 517.232 182.634 519.52C174.516 524.284 167.918 530.435 160.97 536.644C157.407 539.828 155.115 543.743 152.658 547.88C150.569 551.402 148.174 554.218 147.215 558.495C146.931 559.751 148.12 560.821 149.345 560.484C153.865 559.241 158.471 559.299 163.062 558.434C165.758 557.928 168.497 557.684 171.235 557.458C173.485 557.27 175.674 556.62 177.704 556.213C180.561 555.648 183.426 555.033 186.247 553.973C189.541 552.748 193.091 550.215 195.929 548.258C199.23 545.985 202.327 543.921 205.543 541.601C208.759 539.282 212.161 536.888 214.603 533.85C217.838 529.83 220.375 524.849 222.303 520.116C222.836 518.803 223.379 517.439 223.833 516.138C224.508 514.188 225.63 510.968 227.082 509.308C229.037 507.087 224.891 504.698 223.984 507.639C222.881 511.198 221.336 514.83 219.708 518.242C217.653 522.55 215.49 527.77 212.387 531.476C207.56 537.228 200.217 541.843 193.81 545.553C190.597 547.408 187.682 549.679 184.126 550.846C181.437 551.73 179.166 552.464 176.523 553.007C167.277 554.905 157.482 554.751 148.38 557.248L150.51 559.236C151.436 555.125 154.284 551.976 156.294 548.33C157.656 545.853 159.186 543.522 160.981 541.378C162.058 540.093 163.805 539.04 165.072 537.893C171.097 532.431 176.696 526.977 183.802 522.819C187.61 520.59 191.995 519.376 195.755 517.084C199.077 515.059 202.854 513.243 206.638 512.162C209.284 511.411 211.829 510.66 214.513 510.176C216.578 509.806 218.746 509.382 220.9 509.034C221.791 508.891 222.448 508.486 223.427 508.419C224.769 508.337 226.327 508.893 227.7 509.01C228.077 509.04 228.082 508.539 227.849 508.377L227.841 508.391Z" fill="#021B01"/>
<path d="M148.591 558.439C150.844 557.924 152.54 556.661 154.514 555.493C156.793 554.15 159.184 553.242 161.55 552.093C162.815 551.476 163.663 550.515 164.845 549.78C165.756 549.209 166.843 548.889 167.747 548.297C168.652 547.705 168.923 547.083 169.699 546.44C170.538 545.748 171.728 545.493 172.606 544.795C174.626 543.203 176.484 542.182 178.423 540.501C179.333 539.711 180.353 539.364 181.321 538.687C182.484 537.869 183.317 536.799 184.488 535.966C185.968 534.916 187.543 533.843 188.865 532.68C189.664 531.977 189.886 531.31 190.883 530.767C191.425 530.474 192.026 530.377 192.561 530.098C193.619 529.543 194.429 528.735 195.276 527.911C195.699 527.498 195.103 526.72 194.613 527.087C192.718 528.499 190.394 528.738 188.518 530.115C186.642 531.492 184.923 532.935 182.955 534.244C181.157 535.443 179.202 536.558 177.494 537.861C176.377 538.713 175.573 539.542 174.381 540.245C173.592 540.707 172.814 541.047 172.06 541.684C170.289 543.172 168.521 544.314 166.84 545.805C165.892 546.648 164.56 547.083 163.484 547.738C162.408 548.394 161.766 549.264 160.745 549.903C158.53 551.298 155.958 551.861 153.833 553.497C152.095 554.839 150.239 556.757 148.327 557.776C147.942 557.98 148.236 558.522 148.62 558.437L148.591 558.439Z" fill="#021B01"/>
<path d="M299.033 223.94C298.79 224.358 298.188 224.491 297.867 224.83C297.547 225.17 297.454 225.733 297.134 226.073C296.814 226.412 296.392 226.652 296.139 227.055C295.866 227.493 295.372 227.849 295.141 228.329C294.911 228.808 294.879 229.376 294.687 229.868C294.496 230.359 294.482 230.928 294.294 231.412C294.107 231.896 293.761 232.351 293.556 232.816C293.351 233.282 292.877 233.704 292.689 234.206C292.501 234.708 292.818 235.392 292.651 235.905C292.484 236.419 292.247 236.895 292.098 237.409C291.949 237.923 291.517 238.368 291.386 238.883C291.255 239.397 291.124 239.93 291.007 240.453C290.89 240.975 291.195 241.597 291.086 242.123C290.976 242.65 290.658 243.137 290.56 243.66C290.461 244.183 290.204 244.694 290.116 245.214C290.028 245.734 289.967 246.305 289.904 246.865C289.84 247.425 290.165 247.993 290.122 248.547C290.08 249.101 289.913 249.632 289.889 250.186C289.865 250.741 289.967 251.298 289.946 251.846C289.926 252.393 289.815 252.955 289.799 253.495C289.782 254.035 289.351 254.598 289.327 255.134C289.308 255.645 289.451 256.161 289.45 256.673C289.449 257.184 289.476 257.693 289.486 258.202C289.496 258.71 289.419 259.226 289.447 259.735C289.474 260.244 289.614 260.749 289.663 261.251C289.713 261.754 289.979 262.245 290.039 262.744C290.101 263.308 290.037 263.886 290.077 264.456C290.118 265.027 290.36 265.578 290.386 266.141C290.412 266.704 290.2 267.285 290.226 267.848C290.252 268.411 290.127 268.983 290.149 269.553C290.171 270.123 290.385 270.677 290.418 271.244C290.451 271.811 290.275 272.392 290.326 272.96C290.377 273.527 290.478 274.02 290.548 274.534C290.619 275.048 290.512 275.621 290.59 276.138C290.668 276.656 291.303 277.09 291.399 277.608C291.495 278.126 291.272 278.71 291.378 279.225C291.485 279.74 291.686 280.232 291.818 280.752C291.95 281.271 292.308 281.71 292.444 282.223C292.579 282.735 292.221 283.383 292.375 283.896C292.528 284.409 293.22 284.772 293.377 285.296C293.534 285.819 293.258 286.467 293.412 286.979C293.566 287.492 293.864 287.973 294.025 288.49C294.186 289.006 294.463 289.494 294.628 290.003C294.792 290.513 295.048 291.007 295.223 291.513C295.399 292.019 295.45 292.586 295.647 293.086C295.844 293.586 295.754 294.177 295.967 294.649C296.18 295.12 296.746 295.443 296.974 295.904C297.201 296.365 297.622 296.738 297.864 297.189C298.106 297.639 298.289 298.131 298.549 298.582C298.809 299.034 299.128 299.443 299.389 299.894C299.649 300.345 299.916 300.782 300.187 301.23C300.458 301.678 300.524 302.235 300.784 302.686C301.044 303.137 300.978 303.769 301.205 304.266C301.431 304.763 301.913 305.123 302.115 305.616C302.316 306.109 302.608 306.568 302.824 307.05C303.04 307.532 303.057 308.145 303.328 308.593C303.599 309.041 304.227 309.233 304.587 309.619C304.915 309.96 305.103 310.427 305.412 310.786C305.722 311.145 305.973 311.545 306.276 311.9C306.578 312.255 306.796 312.684 307.105 313.042C307.415 313.401 307.829 313.652 308.139 314.011C308.487 314.4 308.974 314.616 309.342 314.97C309.709 315.323 309.697 316.094 310.079 316.437C310.461 316.78 311.153 316.769 311.547 317.091C311.941 317.412 312.203 317.91 312.593 318.239C312.983 318.568 313.395 318.873 313.777 319.216C314.16 319.559 314.412 320.024 314.776 320.385C315.14 320.745 315.7 320.91 316.034 321.31C316.434 321.772 316.796 322.324 317.298 322.732C317.801 323.14 318.379 323.442 318.907 323.753C319.36 324.016 319.805 324.667 320.379 325.095C320.953 325.524 321.843 326.012 322.408 326.015C322.509 325.539 322.731 324.89 322.814 324.413C322.897 323.936 322.919 323.454 322.995 322.974C323.07 322.493 322.723 321.949 322.813 321.476C322.903 321.004 323.369 320.614 323.491 320.15C323.614 319.685 323.439 319.143 323.597 318.679C323.776 318.144 323.962 317.595 324.201 317.083C324.44 316.572 324.949 316.187 325.202 315.684C325.455 315.18 325.506 314.576 325.727 314.064C325.948 313.552 326.044 313 326.197 312.46C326.363 311.882 326.913 311.437 327.045 310.887C327.177 310.336 327.106 309.703 327.249 309.149C327.392 308.595 327.482 308.021 327.647 307.46C327.812 306.9 327.79 306.294 327.991 305.734C328.184 305.207 328.488 304.694 328.728 304.146C328.944 303.659 329.321 303.249 329.49 302.764C329.66 302.279 329.802 301.761 329.95 301.265C330.099 300.769 330.283 300.274 330.432 299.777C330.58 299.281 330.689 298.773 330.878 298.27C331.05 297.814 330.941 297.253 331.093 296.767C331.244 296.282 331.57 295.881 331.715 295.392C331.859 294.903 332.186 294.484 332.298 293.986C332.41 293.489 332.204 292.939 332.301 292.452C332.399 291.965 332.615 291.496 332.699 291.001C332.782 290.506 332.823 290.007 332.895 289.515C332.968 289.024 333.16 288.533 333.221 288.044C333.283 287.556 333.313 287.042 333.361 286.546C333.408 286.051 333.395 285.531 333.435 285.05C333.483 284.417 333.909 283.796 333.998 283.139C334.086 282.483 334.161 281.8 334.173 281.167C334.187 280.598 334.167 280.057 334.099 279.59C334.021 279.072 333.514 278.671 333.378 278.177C333.251 277.716 333.191 277.217 333.059 276.679C332.941 276.186 333.099 275.621 332.992 275.124C332.884 274.628 332.458 274.197 332.35 273.7C332.243 273.203 332.426 272.643 332.329 272.143C332.233 271.642 332.126 271.146 332.022 270.642C331.918 270.138 331.742 269.649 331.635 269.153C331.528 268.656 331.529 268.126 331.422 267.629C331.315 267.132 331.171 266.634 331.046 266.137C330.921 265.64 330.44 265.225 330.314 264.728C330.189 264.23 330.013 263.742 329.877 263.248C329.74 262.754 329.553 262.269 329.41 261.771C329.267 261.273 329.468 260.677 329.321 260.186C329.174 259.695 329.202 259.134 329.044 258.647C328.886 258.159 328.346 257.786 328.188 257.298C328.03 256.811 327.919 256.303 327.743 255.815C327.567 255.327 327.216 254.909 327.025 254.431C326.834 253.953 326.935 253.358 326.734 252.884C326.532 252.409 326.513 251.85 326.307 251.383C326.102 250.915 325.473 250.622 325.256 250.158C325.04 249.694 325.131 249.066 324.9 248.612C324.669 248.158 324.039 247.901 323.79 247.447C323.541 246.993 323.269 246.563 323.005 246.119C322.7 245.598 322.381 245.188 322.03 244.77C321.658 244.323 321.549 243.66 321.128 243.287C320.707 242.914 320.291 242.498 319.836 242.153C319.382 241.807 318.901 241.512 318.44 241.163C317.979 240.813 317.328 240.747 316.882 240.369C316.436 239.992 316.217 239.398 315.83 238.961C315.443 238.524 315.235 237.927 314.844 237.515C314.453 237.103 313.795 236.914 313.333 236.601C312.92 236.314 312.487 235.998 311.976 235.86C311.465 235.722 310.977 235.642 310.557 235.352C310.169 235.088 309.778 234.795 309.462 234.414C309.145 234.034 309.001 233.435 308.621 233.157C308.24 232.878 307.79 232.645 307.37 232.456C306.951 232.266 306.493 232.148 306.067 231.955C305.64 231.762 305.076 231.842 304.691 231.57C304.215 231.232 303.829 230.795 303.389 230.457C302.948 230.119 302.64 229.588 302.194 229.228C301.747 228.869 301.175 228.725 300.718 228.351C300.166 227.898 299.628 227.691 299.06 227.32C298.413 226.908 297.954 226.231 297.278 225.857" fill="#10A800"/>
<path d="M298.907 223.525C296.179 224.736 294.352 226.752 293.233 229.542C291.887 232.906 289.798 235.952 289.142 239.632C287.725 247.577 286.789 255.615 287.894 263.684C288.45 267.779 287.524 272.165 288.42 276.224C289.154 279.564 290.057 283.051 291.232 286.218C292.407 289.384 292.793 293.763 294.791 296.641C297.242 300.175 299.09 304.079 300.798 307.972C302.506 311.865 306.446 316.182 309.775 318.68C313.798 321.688 316.918 326.644 321.935 328.13C323.078 328.471 324.243 327.58 324.528 326.508C324.985 324.76 325.15 322.874 325.4 321.188C325.686 319.265 326.548 317.919 327.315 316.173C328.995 312.358 329.283 308.224 331.054 304.495C332.647 301.146 333.936 296.8 334.516 293.161C334.894 290.794 335.264 288.478 335.581 286.106C335.856 284.05 336.577 282.015 336.271 279.901C336.026 278.233 335.421 276.452 335.032 274.798C334.643 273.143 334.266 271.431 333.88 269.686C333.427 267.64 332.959 265.842 332.2 263.906C331.498 262.119 331.591 260.248 331.034 258.448C330.066 255.32 328.64 251.872 327.101 249.04C325.371 245.867 323.56 242.284 320.47 240.09C319.744 239.57 318.739 239.212 318.105 238.605C317.349 237.887 317.034 236.739 316.275 236.009C314.654 234.45 312.065 233.467 310.323 232.099C308.694 230.828 306.686 230.478 305.031 229.34C303.203 228.081 300.652 226.313 299.299 224.615C296.679 221.31 293.014 226.416 296.187 227.896C298.247 228.859 300.128 229.936 301.81 231.483C303.492 233.029 304.68 233.065 306.456 234.15C307.984 235.083 308.837 236.658 310.547 237.525C312.615 238.575 313.38 239.38 314.892 241.073C316.101 242.428 317.824 242.862 319.107 244.148C320.391 245.434 321.756 247.551 322.687 249.168C324.264 251.929 325.014 254.867 326.289 257.849C329.133 264.522 329.556 272.058 331.506 279.017C332.578 282.851 330.985 287.252 330.395 291.234C329.86 294.824 328.747 299.081 327.247 302.426C325.566 306.176 325.072 310.182 323.505 313.975C322.696 315.935 321.972 317.466 321.377 319.487C320.782 321.508 320.856 323.442 320.321 325.522L322.914 323.901C319.151 322.788 315.631 317.911 312.809 315.356C310.277 313.06 307.262 310.338 305.287 307.399C303.312 304.46 302.215 300.604 300.405 297.461C298.595 294.318 297.043 291.086 295.953 287.489C294.025 281.1 292.077 274.343 292.426 267.479C292.625 263.68 291.443 260.034 291.552 256.214C291.601 254.595 291.949 252.998 292.02 251.354C292.103 249.368 291.837 247.212 292.209 245.281C293.615 237.935 295.402 230.491 299.429 224.136C299.618 223.835 299.269 223.363 298.922 223.515L298.907 223.525Z" fill="#021B01"/>
<path d="M321.436 326.05C321.747 323.858 321.483 321.886 321.203 319.741C321.048 318.551 320.815 317.557 320.785 316.425C320.747 315.188 320.596 314.365 320.31 313.095C319.732 310.534 319.87 307.919 319.032 305.501C318.253 303.261 317.719 300.687 317.003 298.298C315.596 293.625 314.831 289.051 313.02 284.5C311.97 281.848 311.416 279.09 310.14 276.5C309.36 274.909 309.13 273.367 308.647 271.698C308.058 269.652 307.092 267.879 306.826 265.723C306.719 264.852 305.486 264.883 305.456 265.772C305.368 268.752 306.344 271.373 306.846 274.313C307.347 277.254 308.737 279.631 309.223 282.5C309.494 284.119 309.5 284.753 310.245 286.188C311.092 287.824 311.081 289.272 311.515 290.979C312.079 293.176 312.623 295.189 313.378 297.352C313.876 298.772 314.449 300.288 314.833 301.748C315.133 302.907 314.765 304.236 315.095 305.338C315.334 306.134 315.965 306.694 316.237 307.48C316.717 308.864 316.884 310.829 317.195 312.323C317.62 314.336 317.657 316.322 317.957 318.295C318.132 319.431 318.334 321.178 318.737 322.264C319.24 323.605 320.246 324.421 320.495 325.946C320.571 326.416 321.336 326.609 321.418 326.031L321.436 326.05Z" fill="#021B01"/>
<path d="M152.904 520.563C152.639 520.749 152.305 520.826 151.995 520.942C151.686 521.059 151.345 521.114 151.07 521.285C150.691 521.53 150.482 522.002 150.145 522.306C149.808 522.609 149.369 522.812 149.033 523.097C148.763 523.326 148.598 523.667 148.345 523.915C148.092 524.164 147.844 524.405 147.609 524.671C147.374 524.938 147.145 525.208 146.925 525.483C146.704 525.757 146.317 525.914 146.11 526.196C145.896 526.493 145.865 526.906 145.676 527.188C145.431 527.541 145.19 527.887 144.984 528.27C144.778 528.653 144.554 529.017 144.373 529.404C144.192 529.791 143.879 530.135 143.694 530.511C143.476 530.951 143.31 531.411 143.142 531.86C142.973 532.309 142.961 532.824 142.839 533.288C142.729 533.696 142.601 534.121 142.448 534.523C142.295 534.926 142.036 535.289 141.883 535.691C141.73 536.094 141.584 536.5 141.457 536.907C141.349 537.242 141.317 537.591 141.242 537.916C141.167 538.242 140.938 538.566 140.888 538.896C140.838 539.226 140.784 539.581 140.749 539.919C140.713 540.257 140.868 540.614 140.858 540.956C140.842 541.359 140.841 541.752 140.825 542.155C140.809 542.558 140.689 542.951 140.688 543.344C140.686 543.736 140.761 544.142 140.788 544.532C140.814 544.994 140.909 545.429 140.989 545.857C141.07 546.284 141.081 546.757 141.198 547.185C141.314 547.614 141.496 548.023 141.616 548.463C141.704 548.775 141.657 549.116 141.691 549.445C141.724 549.774 141.934 550.079 141.993 550.395C142.052 550.71 142.155 550.994 142.334 551.273C142.534 551.582 142.568 551.976 142.735 552.294C142.902 552.613 143.021 552.952 143.206 553.271C143.391 553.59 143.673 553.815 143.887 554.095C144.102 554.375 144.413 554.579 144.643 554.849C144.872 555.119 145.031 555.452 145.235 555.736C145.439 556.019 145.636 556.317 145.806 556.629C146.031 557.043 146.367 557.507 146.757 557.836C147.097 558.12 147.49 558.597 148.009 558.721C148.313 558.326 148.539 557.991 148.818 557.592C149.097 557.194 149.441 556.876 149.802 556.513C150.129 556.177 150.555 555.912 150.946 555.611C151.337 555.309 151.644 554.926 151.954 554.571C152.234 554.256 152.545 554.002 152.788 553.703C153.031 553.404 153.38 553.181 153.66 552.883C153.916 552.61 154.139 552.282 154.468 552.011C154.819 551.715 155.051 551.337 155.341 551.018C155.632 550.699 155.982 550.439 156.305 550.128C156.565 549.884 156.713 549.524 156.955 549.244C157.198 548.963 157.606 548.835 157.827 548.542C158.049 548.25 158.193 547.898 158.4 547.598C158.607 547.298 158.815 546.98 158.994 546.683C159.194 546.361 159.441 546.073 159.605 545.768C159.842 545.329 160.031 544.808 160.242 544.364C160.535 543.736 160.533 543.35 160.606 542.722C160.655 542.291 160.826 541.871 160.901 541.427C160.976 540.982 160.889 540.533 160.96 540.095C161.031 539.658 161.03 539.218 161.083 538.78C161.123 538.4 161.203 538.031 161.232 537.653C161.262 537.276 161.273 536.898 161.289 536.513C161.304 536.128 161.405 535.753 161.399 535.374C161.392 534.996 161.419 534.607 161.39 534.235C161.362 533.863 161.345 533.47 161.299 533.098C161.253 532.725 161.073 532.363 160.998 531.993C160.922 531.623 160.851 531.247 160.754 530.883C160.657 530.52 160.498 530.169 160.284 529.871C160.07 529.573 159.871 529.246 159.609 528.968C159.347 528.689 159.147 528.399 158.904 528.103C158.696 527.845 158.333 527.686 158.166 527.385C157.998 527.085 157.874 526.789 157.636 526.551C157.342 526.265 156.921 526.011 156.613 525.717C156.329 525.445 156.125 525.179 155.859 524.908C155.66 524.7 155.405 524.563 155.147 524.396C154.889 524.23 154.695 523.997 154.496 523.789C154.24 523.533 153.932 523.358 153.709 523.11C153.486 522.861 153.393 522.491 153.163 522.221C152.979 522.003 152.667 521.954 152.46 521.76C152.229 521.544 152.138 521.239 151.888 521.04" fill="#10A800"/>
<path d="M152.979 520.219C149.934 519.521 146.636 522.876 144.895 525.039C142.116 528.5 140.296 533.712 139.316 537.994C138.335 542.277 139.012 547.234 140.447 551.346C141.574 554.587 144.081 558.608 147.161 560.295C148.089 560.795 149.015 560.351 149.572 559.572C152.405 555.619 156.933 552.936 159.699 548.938C162.138 545.413 162.444 542.23 162.809 538.037C163.128 534.422 163.111 531.193 161.007 528.12C159.893 526.487 158.468 525.024 156.954 523.76C156.079 523.023 153.908 521.79 153.687 520.536C153.026 516.805 147.365 521.32 150.919 522.787C152.983 523.642 155.464 527 156.96 528.638C160.105 532.071 159.859 535.788 159.278 540.177C158.22 548.187 150.81 551.787 146.427 557.887L148.838 557.164C146.198 555.715 144.036 551.102 143.376 548.405C142.371 544.26 142.18 540.37 143.581 536.341C144.845 532.722 145.976 529.28 148.437 526.224C149.931 524.367 151.984 522.729 153.201 520.741C153.326 520.543 153.179 520.272 152.968 520.223L152.979 520.219Z" fill="#021B01"/>
<path d="M147.972 558.875C148.8 556.183 149.689 554.092 150.074 551.271C150.459 548.451 150.3 545.996 150.543 543.338C150.743 541.131 150.864 537.867 149.989 535.841C149.754 535.293 148.837 535.33 148.885 536.023C148.978 537.345 148.215 539.321 148.016 540.659C147.852 541.76 147.874 542.961 147.874 544.132C147.879 547.025 147.637 550.023 147.299 552.941C147.055 555.06 146.394 556.863 147.226 558.902C147.37 559.263 147.856 559.26 147.972 558.875Z" fill="#021B01"/>
<path d="M266.207 517.534C266.198 518.196 265.632 518.669 265.449 519.229C265.267 519.789 265.592 520.458 265.547 521.12C265.518 521.598 265.149 522.095 265.18 522.615C265.209 523.106 265.208 523.617 265.264 524.124C265.321 524.63 265.544 525.098 265.609 525.59C265.673 526.082 265.639 526.603 265.682 527.083C265.725 527.564 265.653 528.037 265.718 528.511C265.783 528.985 266.257 529.378 266.34 529.853C266.423 530.327 266.082 530.857 266.18 531.321C266.277 531.786 266.897 532.129 267.006 532.59C267.114 533.05 267.147 533.516 267.263 533.981C267.378 534.446 267.356 534.928 267.483 535.389C267.609 535.851 267.929 536.242 268.059 536.697C268.189 537.151 267.934 537.727 268.072 538.167C268.21 538.607 268.372 539.07 268.517 539.514C268.662 539.958 269.196 540.309 269.372 540.779C269.549 541.249 269.271 541.868 269.451 542.331C269.631 542.794 269.874 543.226 270.069 543.679C270.264 544.132 270.471 544.581 270.666 545.034C270.861 545.487 271.399 545.795 271.602 546.234C271.805 546.672 272.051 547.116 272.253 547.554C272.456 547.993 272.315 548.612 272.514 549.057C272.733 549.55 273.332 549.864 273.573 550.351C273.814 550.837 273.902 551.387 274.147 551.867C274.392 552.346 274.611 552.839 274.874 553.319C275.137 553.799 275.587 554.152 275.857 554.618C276.128 555.083 275.991 555.796 276.272 556.259C276.554 556.721 276.906 557.085 277.159 557.532C277.412 557.98 277.522 558.505 277.772 558.96C278.021 559.414 278.72 559.627 278.959 560.084C279.197 560.542 279.391 561.03 279.629 561.488C279.868 561.946 279.948 562.492 280.19 562.943C280.432 563.393 280.78 563.8 281.029 564.255C281.279 564.709 281.517 565.167 281.77 565.614C282.023 566.061 281.972 566.665 282.237 567.091C282.501 567.517 282.783 567.943 283.052 568.362C283.32 568.781 283.801 569.077 284.08 569.493C284.359 569.908 284.649 570.321 284.932 570.729C285.215 571.138 285.568 571.502 285.869 571.911C286.17 572.32 286.479 572.697 286.788 573.092C287.097 573.487 287.129 574.089 287.444 574.488C287.76 574.887 288.402 575.004 288.725 575.388C289.048 575.773 289.179 576.328 289.495 576.727C289.811 577.125 289.912 577.701 290.228 578.1C290.543 578.499 291.228 578.603 291.548 578.994C291.867 579.386 291.85 580.063 292.174 580.447C292.497 580.832 292.945 581.137 293.269 581.522C293.592 581.906 293.859 582.361 294.194 582.743C294.528 583.124 295.043 583.356 295.381 583.73C295.719 584.104 296.047 584.482 296.385 584.838C296.724 585.194 296.891 585.75 297.244 586.096C297.597 586.442 298.251 586.502 298.608 586.84C298.966 587.179 299.095 587.788 299.463 588.124C299.831 588.459 300.214 588.785 300.586 589.113C300.958 589.441 301.441 589.647 301.813 589.975C302.185 590.304 302.617 590.573 302.988 590.901C303.36 591.23 303.769 591.523 304.141 591.851C304.513 592.18 304.711 592.661 305.061 593.014C305.41 593.367 305.816 593.632 306.155 593.988C306.494 594.344 306.992 594.54 307.331 594.896C307.669 595.252 307.737 595.874 308.076 596.212C308.415 596.55 309.029 596.616 309.395 596.922C309.76 597.229 309.947 597.833 310.361 598.083C310.796 598.345 311.198 598.653 311.618 598.925C312.039 599.197 312.534 599.364 312.958 599.647C313.382 599.93 313.897 600.061 314.32 600.344C314.744 600.627 315.013 601.129 315.441 601.405C315.847 601.67 316.234 601.97 316.638 602.205C317.041 602.441 317.623 602.397 318.041 602.623C318.459 602.848 318.847 603.148 319.273 603.359C319.699 603.57 320.224 603.579 320.65 603.79C321.076 604.001 321.395 604.429 321.817 604.647C322.239 604.866 322.756 604.907 323.175 605.132C323.593 605.357 323.806 605.947 324.216 606.187C324.627 606.426 325.001 606.683 325.403 606.954C325.767 607.196 326.204 607.386 326.602 607.6C326.999 607.814 327.503 607.811 327.905 607.982C328.307 608.153 328.752 608.31 329.156 608.445C329.498 608.556 329.97 608.664 330.425 608.873C330.83 609.055 331.183 609.418 331.589 609.564C332.081 609.738 332.606 609.782 332.958 609.707C332.824 609.241 332.921 608.671 332.773 608.217C332.624 607.762 332.407 607.316 332.252 606.857C332.097 606.398 331.85 605.973 331.706 605.511C331.561 605.049 331.402 604.597 331.279 604.129C331.157 603.66 330.726 603.254 330.643 602.78C330.548 602.244 330.464 601.686 330.426 601.163C330.388 600.639 330.61 600.073 330.587 599.539C330.564 599.005 330.363 598.494 330.315 597.956C330.266 597.418 330.198 596.933 330.081 596.403C329.98 595.928 330.3 595.369 330.187 594.915C330.075 594.461 329.477 594.111 329.365 593.658C329.252 593.204 329.529 592.639 329.428 592.182C329.326 591.725 329.203 591.275 329.109 590.803C329.016 590.332 328.964 589.884 328.893 589.406C328.821 588.928 328.621 588.501 328.578 588.02C328.532 587.511 328.664 586.978 328.578 586.475C328.493 585.971 328.295 585.49 328.187 584.993C328.08 584.496 327.9 584.015 327.804 583.515C327.707 583.014 327.68 582.506 327.601 582.006C327.523 581.506 327.11 581.083 327.018 580.576C326.925 580.069 327.056 579.554 326.942 579.053C326.827 578.552 326.698 578.08 326.568 577.59C326.439 577.099 326.521 576.558 326.38 576.071C326.24 575.584 325.889 575.166 325.727 574.685C325.565 574.205 325.615 573.655 325.449 573.181C325.283 572.708 324.958 572.277 324.781 571.806C324.604 571.336 324.173 570.948 324 570.489C323.826 570.03 323.764 569.484 323.575 569.035C323.404 568.623 323.146 568.237 322.993 567.807C322.841 567.377 322.859 566.902 322.702 566.479C322.546 566.056 322.572 565.549 322.382 565.154C322.122 564.602 321.948 564.042 321.672 563.619C321.366 563.153 320.639 563.008 320.292 562.565C319.98 562.159 319.629 561.741 319.269 561.255C318.986 560.864 318.865 560.342 318.581 559.951C318.298 559.561 317.797 559.318 317.517 558.921C317.237 558.523 316.976 558.108 316.704 557.714C316.431 557.32 316.435 556.719 316.159 556.314C315.883 555.909 315.29 555.736 315.014 555.331C314.739 554.927 314.705 554.36 314.426 553.962C314.146 553.565 313.763 553.24 313.48 552.849C313.196 552.459 313.071 551.943 312.788 551.553C312.504 551.162 312.325 550.663 312.023 550.272C311.722 549.881 311.066 549.756 310.768 549.358C310.471 548.96 310.424 548.368 310.118 547.984C309.813 547.6 309.22 547.427 308.915 547.043C308.61 546.659 308.626 546 308.321 545.616C308.015 545.232 307.422 545.077 307.106 544.696C306.789 544.315 306.403 543.997 306.076 543.62C305.748 543.242 305.698 542.639 305.371 542.262C305.044 541.884 304.794 541.448 304.463 541.077C304.132 540.707 303.634 540.494 303.3 540.13C302.965 539.767 302.648 539.386 302.303 539.026C301.957 538.666 301.444 538.481 301.094 538.128C300.745 537.775 300.447 537.377 300.094 537.031C299.74 536.685 299.443 536.287 299.078 535.945C298.714 535.602 298.26 535.376 297.892 535.04C297.524 534.705 297.244 534.289 296.872 533.961C296.476 533.61 296.085 533.317 295.69 533.031C295.267 532.73 295.006 532.196 294.584 531.96C294.138 531.701 293.488 531.872 293.037 531.657C292.586 531.441 292.216 531.059 291.757 530.858C291.298 530.656 290.967 530.185 290.501 529.98C290.035 529.775 289.567 529.66 289.106 529.429C288.708 529.233 288.307 529.027 287.9 528.78C287.494 528.534 286.975 528.511 286.59 528.257C286.205 528.004 285.787 527.797 285.397 527.569C284.987 527.329 284.628 527.045 284.215 526.877C283.734 526.682 283.286 526.395 282.786 526.354C282.286 526.314 281.725 526.643 281.234 526.451C280.782 526.272 280.241 526.035 279.804 525.727C279.366 525.418 279.115 524.798 278.667 524.611C278.219 524.425 277.711 524.535 277.271 524.435C276.831 524.335 276.427 523.981 275.973 523.873C275.518 523.766 274.963 524.015 274.522 523.833C274.102 523.661 273.775 523.284 273.377 523.106C272.979 522.928 272.682 522.494 272.277 522.312C271.872 522.131 271.462 521.974 271.054 521.781C270.645 521.589 270.269 521.404 269.853 521.208C269.179 520.881 268.607 520.839 267.948 520.602C267.581 520.469 267.175 520.406 266.821 520.197C266.468 519.988 266.001 520.057 265.629 519.948" fill="#10A800"/>
<path d="M265.846 517.339C261.784 523.2 264.774 531.588 266.165 537.853C267.081 541.978 268.913 546.047 270.696 549.852C272.185 553.014 273.906 556.594 275.798 559.534C278.042 563.011 279.6 567.079 282.133 570.392C283.612 572.332 284.92 574.472 286.451 576.266C287.571 577.583 288.843 578.991 289.897 580.327C291.926 582.911 294.145 585.67 296.594 588.069C298.318 589.757 300.329 591.188 302.137 592.839C303.816 594.374 305.212 596.334 306.874 597.833C310.296 600.938 314.652 603.312 318.799 605.326C320.819 606.314 322.477 607.6 324.427 608.733C326.775 610.098 330.271 611.826 333.016 611.722C334.051 611.686 335.115 610.713 334.982 609.617C334.734 607.48 333.968 605.54 333.226 603.521C332.537 601.659 332.592 600.097 332.407 598.132C332.05 594.244 331.109 590.691 330.62 586.76C329.648 578.955 326.826 571.883 324.308 564.536C323.606 562.493 322.215 561.798 320.953 560.185C319.69 558.572 318.829 556.673 317.653 555.07C315.716 552.434 313.86 549.377 311.71 546.966C309.324 544.281 307.262 541.249 304.593 538.732C302.439 536.703 300.397 534.533 298.188 532.556C296.16 530.75 294.682 530.201 292.35 528.926C289.791 527.53 286.772 525.391 283.934 524.649C283.101 524.429 282.166 524.721 281.407 524.45C280.548 524.142 279.959 523.148 279.076 522.782C277.223 522.013 275.432 522.127 273.668 521.14C271.319 519.829 268.665 518.711 266.128 517.783C263.242 516.723 262.277 522.368 265.711 522.141C268.177 521.978 270.309 523.301 272.34 524.523C273.96 525.505 275.423 525.489 277.098 526.235C278.342 526.795 279.389 527.89 280.808 528.279C281.876 528.571 282.824 528.442 283.887 528.896C285.538 529.602 287.3 530.524 288.885 531.368C290.47 532.213 292.226 532.994 293.818 533.824C296.191 535.075 298.474 538.07 300.385 539.905C303.059 542.479 305.243 545.302 307.466 548.155C308.489 549.465 309.742 550.552 310.794 551.841C311.847 553.131 312.397 554.945 313.375 556.287C315.371 559.035 317.499 561.792 319.618 564.479C320.76 565.926 320.939 567.852 321.542 569.568C322.193 571.382 323.025 573.064 323.683 574.864C324.83 578.016 325.332 581.515 326.035 584.812C326.848 588.652 327.326 592.724 328.041 596.438C328.449 598.551 328.122 600.772 328.6 602.822C329.155 605.17 330.628 607.326 330.91 609.756L332.877 607.65C332.001 607.681 329.749 606.496 328.979 606.209C327.351 605.598 326.228 604.865 324.834 603.903C323.44 602.942 321.696 602.021 320.042 601.304C316.17 599.611 312.256 597.046 309.238 594.158C306.07 591.125 302.644 588.145 299.554 585.035C297.233 582.705 295.148 580.275 293.101 577.708C291.053 575.142 288.775 572.46 286.659 569.647C284.069 566.203 282.786 562.081 280.36 558.588C276.487 553.026 273.133 546.143 270.997 539.751C268.593 532.566 266.026 525.274 266.616 517.506C266.648 517.057 266.046 517.035 265.85 517.332L265.846 517.339Z" fill="#021B01"/>
<path d="M331.876 610.275C330.945 607.469 330.323 605.533 328.631 603.122C327.111 600.968 326.323 598.357 324.805 596.387C324.319 595.759 323.783 595.736 323.224 594.922C322.962 594.543 323.005 593.954 322.747 593.55C321.933 592.26 320.971 591.294 320.042 590.116C319.112 588.939 318.765 587.545 317.915 586.373C316.967 585.076 315.546 583.825 314.421 582.671C312.664 580.855 312.222 578.55 310.498 576.725C308.393 574.503 306.308 572.346 304.255 570.078C302.097 567.7 299.985 565.373 297.935 562.878C295.885 560.384 294.285 557.564 291.718 555.605C291.07 555.11 290.22 555.941 290.821 556.54C292.902 558.603 294.014 561.379 295.711 563.729C297.554 566.286 299.507 568.637 301.352 571.121C302.902 573.201 304.652 575.387 306.443 577.257C307.822 578.704 308.634 579.608 309.539 581.358C310.056 582.368 310.381 582.919 311.23 583.806C313.482 586.162 315.175 588.3 316.947 591.038C317.728 592.254 318.876 593.01 319.709 594.181C320.49 595.279 320.749 596.562 321.551 597.588C324.791 601.693 328.118 606.129 331.09 610.63C331.355 611.038 332.052 610.763 331.886 610.272L331.876 610.275Z" fill="#021B01"/>
<path d="M322.043 696.346C321.428 696.893 321.071 697.743 320.457 698.272C319.842 698.801 318.987 699.082 318.352 699.599C317.716 700.117 317.153 700.737 316.514 701.244C315.876 701.75 315.077 702.079 314.42 702.567C313.764 703.055 313.097 703.546 312.438 704.023C311.778 704.501 310.994 704.819 310.317 705.278C309.64 705.736 309.262 706.658 308.575 707.102C307.888 707.545 307.265 708.125 306.574 708.557C305.884 708.99 304.897 708.971 304.196 709.389C303.495 709.808 302.842 710.324 302.131 710.728C301.419 711.131 300.857 711.835 300.136 712.224C299.414 712.612 298.699 713.041 297.97 713.408C297.242 713.775 296.123 713.373 295.385 713.725C294.646 714.078 294.002 714.627 293.254 714.965C292.505 715.302 291.934 716.056 291.186 716.375C290.437 716.695 289.476 716.543 288.718 716.848C287.959 717.153 287.383 717.949 286.621 718.243C285.859 718.537 285.014 718.63 284.238 718.898C283.462 719.167 282.532 718.958 281.753 719.215C280.974 719.473 280.419 720.436 279.637 720.682C278.854 720.929 277.955 720.782 277.162 721.014C276.37 721.246 275.566 721.38 274.774 721.593C273.982 721.807 273.187 721.992 272.385 722.191C271.582 722.39 270.782 722.517 269.98 722.697C269.179 722.878 268.507 723.633 267.709 723.806C266.893 723.998 265.951 723.674 265.132 723.854C264.312 724.034 263.584 724.639 262.757 724.816C261.93 724.992 261.054 724.904 260.234 725.067C259.415 725.229 258.638 725.67 257.804 725.825C256.971 725.98 256.071 725.715 255.245 725.855C254.42 725.996 253.672 726.636 252.839 726.773C252.007 726.909 251.089 726.507 250.264 726.629C249.439 726.752 248.57 726.65 247.738 726.768C246.905 726.887 246.063 726.872 245.22 726.976C244.377 727.08 243.626 727.865 242.791 727.954C241.956 728.044 241.122 728.199 240.284 728.278C239.446 728.357 238.538 727.63 237.697 727.698C236.855 727.766 236.064 728.42 235.227 728.481C234.389 728.542 233.542 728.552 232.701 728.602C231.86 728.652 231.025 728.861 230.184 728.893C229.344 728.925 228.493 728.704 227.649 728.725C226.805 728.746 225.969 728.89 225.126 728.893C224.282 728.897 223.447 728.511 222.601 728.503C221.755 728.495 220.921 728.293 220.082 728.271C219.244 728.249 218.388 728.785 217.546 728.753C216.704 728.72 215.851 728.91 215.01 728.859C214.168 728.808 213.344 728.52 212.5 728.458C211.655 728.397 210.832 728.209 209.995 728.133C209.157 728.057 208.27 728.448 207.433 728.354C206.597 728.26 205.819 727.667 204.979 727.563C204.139 727.458 203.314 727.325 202.486 727.198C201.657 727.072 200.79 727.154 199.962 727.01C199.134 726.866 198.41 726.155 197.579 726C196.748 725.845 195.902 725.82 195.082 725.643C194.262 725.467 193.409 725.455 192.586 725.268C191.763 725.081 190.955 724.865 190.14 724.664C189.325 724.463 188.372 724.754 187.561 724.528C186.75 724.301 185.983 723.907 185.173 723.662C184.363 723.418 183.774 722.506 182.972 722.248C182.169 721.989 181.226 722.177 180.435 721.897C179.644 721.617 178.994 720.938 178.21 720.644C177.427 720.349 176.448 720.554 175.668 720.235C174.889 719.915 174.001 719.849 173.229 719.515C172.458 719.182 171.668 718.866 170.903 718.519C170.139 718.171 169.434 717.681 168.67 717.316C167.907 716.95 167.449 715.999 166.708 715.609C165.967 715.219 165.062 715.134 164.321 714.726C163.581 714.318 162.855 713.899 162.133 713.474C161.421 713.045 160.584 712.749 159.87 712.274C159.157 711.798 158.564 711.149 157.903 710.628C157.241 710.107 156.299 709.819 155.693 709.246C155.06 708.639 154.701 707.76 154.202 707.107C153.669 706.399 153.096 705.697 152.769 704.945C152.429 704.149 152.079 703.238 152.051 702.39C152.022 701.543 152.676 700.788 152.997 699.936C153.268 699.213 153.628 698.493 154.195 697.746C154.664 697.13 155.293 696.609 155.982 695.974C156.561 695.444 156.851 694.43 157.599 693.89C158.29 693.421 159.008 692.939 159.724 692.474C160.441 692.01 161.597 692.276 162.328 691.819C163.059 691.362 163.509 690.525 164.232 690.082C164.956 689.64 165.785 689.391 166.515 688.952C167.246 688.513 167.92 688.008 168.654 687.58C169.388 687.152 170.1 686.694 170.837 686.277C171.574 685.86 172.236 685.311 172.98 684.898C173.724 684.484 174.737 684.573 175.481 684.16C176.225 683.746 176.914 683.248 177.661 682.846C178.409 682.444 179.047 681.836 179.794 681.434C180.541 681.031 181.381 680.798 182.131 680.406C182.882 680.015 183.647 679.631 184.393 679.246C185.14 678.862 185.865 678.383 186.611 677.999C187.358 677.614 187.984 676.945 188.737 676.565C189.491 676.184 190.474 676.211 191.217 675.833C191.957 675.445 192.349 674.394 193.088 674.024C193.827 673.654 194.885 673.949 195.637 673.604C196.39 673.26 196.816 672.163 197.575 671.84C198.335 671.518 199.232 671.498 200.002 671.19C200.772 670.882 201.479 670.385 202.251 670.106C203.023 669.827 204.052 670.225 204.835 669.961C205.618 669.697 206.321 669.188 207.111 668.946C207.9 668.703 208.673 668.388 209.469 668.167C210.265 667.947 211.135 667.995 211.93 667.792C212.726 667.589 213.548 667.456 214.353 667.268C215.159 667.08 215.798 666.098 216.603 665.928C217.408 665.758 218.34 666.15 219.151 666.002C219.963 665.853 220.755 665.521 221.566 665.391C222.377 665.26 223.25 665.456 224.068 665.348C224.885 665.24 225.683 664.965 226.511 664.871C227.339 664.777 228.112 664.225 228.939 664.149C229.767 664.073 230.656 664.918 231.483 664.861C232.31 664.803 233.108 664.391 233.934 664.352C234.76 664.312 235.595 664.597 236.421 664.575C237.246 664.553 238.071 664.348 238.896 664.344C239.721 664.34 240.553 663.627 241.378 663.642C242.203 663.656 243.025 664.456 243.846 664.477C244.667 664.48 245.493 664.102 246.31 664.113C247.128 664.123 247.935 664.612 248.755 664.634C249.576 664.655 250.388 664.727 251.202 664.762C252.015 664.798 252.838 664.729 253.655 664.776C254.471 664.822 255.308 664.56 256.124 664.624C256.94 664.689 257.758 664.8 258.566 664.879C259.374 664.957 260.192 665.087 261.007 665.187C261.822 665.288 262.6 665.625 263.404 665.747C264.207 665.868 265.031 665.919 265.833 666.058C266.636 666.198 267.48 666.159 268.279 666.324C269.077 666.489 269.853 666.797 270.647 666.987C271.442 667.177 272.207 667.488 272.993 667.711C273.778 667.933 274.771 667.516 275.549 667.77C276.327 668.025 276.969 668.7 277.738 668.986C278.508 669.273 279.444 669.165 280.195 669.487C280.945 669.808 281.713 670.149 282.452 670.51C283.19 670.871 283.683 671.722 284.395 672.115C285.118 672.504 285.948 672.714 286.649 673.128C287.349 673.542 288.268 673.653 288.958 674.088C289.647 674.523 289.825 675.772 290.503 676.228C291.181 676.685 292.262 676.563 292.935 677.045C293.609 677.526 294.208 678.096 294.866 678.588C295.525 679.08 296.368 679.333 297.015 679.846C297.662 680.359 297.935 681.33 298.572 681.846C299.208 682.363 300.17 682.497 300.802 683.02C301.435 683.544 302.127 684.008 302.756 684.539C303.384 685.07 303.483 686.211 304.097 686.752C304.711 687.294 305.601 687.526 306.215 688.067C306.829 688.608 307.301 689.311 307.919 689.863C308.536 690.415 308.934 691.187 309.551 691.739C310.169 692.291 310.921 692.678 311.531 693.227C312.141 693.775 312.774 694.298 313.395 694.843C314.016 695.388 314.813 695.726 315.43 696.26C316.048 696.794 316.441 697.61 317.063 698.137C317.685 698.664 318.796 698.622 319.428 699.145" fill="#10A800"/>
<path d="M321.737 696.063C319.391 698.092 316.335 699.757 313.719 701.439C312.37 702.314 310.798 703.04 309.509 703.974C307.858 705.17 306.809 706.489 304.865 707.262C302.396 708.246 300.487 710.228 298.062 711.198C296.869 711.681 295.563 711.609 294.378 712.077C292.547 712.81 291.09 714.038 289.206 714.733C279.703 718.231 269.741 721.289 259.631 723.059C256.802 723.557 253.881 724.379 251.029 724.545C248.365 724.701 245.863 724.661 243.313 725.455C240.588 726.302 238.187 725.631 235.448 726.25C231.78 727.082 227.391 726.876 223.69 726.547C221.002 726.307 218.838 726.623 216.205 726.705C212.783 726.81 208.761 726.143 205.448 725.502C199.677 724.378 193.772 723.676 188.026 722.474C186.479 722.153 185.386 720.887 183.964 720.386C182.424 719.85 180.744 719.283 179.203 718.782C175.621 717.621 172.279 717.321 169.12 714.933C165.313 712.05 152.392 708.071 154.627 701.29C155.516 698.586 158.941 695.081 161.558 694.112C164.317 693.083 166.657 691.233 169.199 689.639C174.761 686.141 180.854 683.624 186.6 680.344C188.899 679.031 191.206 678.042 193.385 676.663C194.31 676.082 194.734 676.027 195.833 675.65C197.191 675.183 198.09 674.075 199.402 673.474C201.569 672.474 203.765 672.422 205.934 671.706C209.18 670.637 212.606 669.931 215.809 668.775C216.807 668.416 217.297 668.168 218.387 667.996C219.868 667.76 221.393 667.475 222.889 667.33C224.385 667.184 225.674 667.119 227.076 666.74C228.609 666.322 229.097 666.503 230.617 666.654C233.203 666.912 236.617 666.721 239.199 666.191C240.33 665.959 240.995 665.759 242.123 665.891C243.789 666.075 245.405 666.012 247.111 666.191C254.445 666.94 261.813 666.729 269.051 668.506C270.553 668.876 271.963 669.416 273.491 669.653C275.018 669.891 275.774 670.271 277.313 670.861C280.846 672.216 285.509 673.831 288.301 676.561C290.253 678.472 292.828 679.228 295.028 680.917C296.497 682.046 297.201 683.166 298.79 684.105C300.641 685.202 301.313 686.451 302.667 687.894C303.815 689.125 305.455 689.918 306.667 691.165C308.013 692.539 309.279 693.669 310.78 694.89C313.382 697.005 315.635 699.224 318.377 701.095C320.858 702.788 323.283 698.067 319.941 696.934C316.957 695.921 314.219 693.312 311.791 691.163C309.363 689.013 306.861 686.595 304.865 684.221C301.04 679.673 295.423 676.958 290.883 673.296C288.678 671.514 285.84 670.314 283.375 668.776C280.911 667.238 277.13 666.089 274.214 665.781C272.329 665.579 270.591 664.798 268.725 664.424C267.124 664.102 265.455 664.144 263.85 663.847C260.131 663.161 256.767 662.766 252.989 662.835C249.56 662.9 245.969 662.401 242.635 661.968C241.634 661.841 241.027 661.761 240.009 661.953C237.914 662.361 235.999 662.281 233.878 662.383C231.334 662.503 229.228 662.082 226.766 662.731C223.439 663.61 219.833 663.104 216.546 663.858C215.566 664.08 214.938 664.702 214.062 665.09C212.276 665.875 210.156 665.821 208.292 666.326C206.813 666.728 205.424 667.626 203.927 667.908C202.351 668.203 201.603 668.165 200.041 668.806C197.68 669.775 195.531 671.014 193.325 671.783C191.995 672.247 191.781 672.662 190.651 673.434C189.522 674.207 188.3 674.437 187.127 675.103C181.026 678.585 174.579 681.451 168.663 685.115C163.279 688.454 157.707 690.647 153.502 695.398C149.106 700.366 149.231 705.976 154.25 710.701C156.579 712.897 159.927 714.765 162.783 716.203C165.995 717.814 168.817 720.047 172.248 721.301C175.18 722.378 178.283 723.207 181.247 724.054C182.704 724.473 183.915 725.299 185.314 725.861C187.005 726.543 188.385 726.527 190.132 726.782C193.504 727.281 196.746 728.36 200.033 729.033C203.656 729.778 207.158 730.018 210.79 730.273C212.454 730.392 214.048 730.829 215.715 730.859C217.465 730.887 219.138 730.379 220.875 730.364C224.428 730.339 227.902 731.039 231.502 730.774C234.207 730.575 236.811 729.884 239.375 730.185C242.706 730.571 245.742 728.841 249.05 728.729C252.357 728.617 255.118 728.229 258.386 727.767C260.267 727.5 262.301 726.985 264.139 726.476C265.571 726.076 266.892 726.102 268.29 725.748C269.899 725.343 271.297 724.514 272.966 724.114C275.126 723.604 277.627 723.341 279.698 722.655C281.034 722.213 282.096 721.395 283.481 720.997C284.866 720.6 286.279 720.474 287.637 719.888C288.874 719.357 290.077 718.806 291.335 718.304C293.093 717.604 294.433 716.305 296.256 715.705C297.88 715.171 299.069 715.034 300.575 714.107C302.396 712.984 303.955 711.583 305.893 710.67C309.132 709.14 311.407 706.478 314.279 704.339C317.409 702.009 320.469 699.963 322.404 696.523C322.644 696.094 322.078 695.753 321.741 696.038L321.737 696.063Z" fill="#021B01"/>
<path d="M151.688 703.914C154.168 703.997 156.937 703.476 159.359 703.802C161.038 704.029 162.378 704.495 164.118 704.509C168.678 704.55 173.309 702.645 177.855 703.475C180.106 703.883 181.204 703.44 183.519 703.252C185.614 703.081 187.822 703.584 189.934 703.533C191.813 703.493 193.62 702.94 195.488 702.784C198.374 702.537 201.005 703.579 203.87 703.677C205.623 703.734 207.343 703.224 209.084 703.065C211.638 702.84 212.479 703.759 214.613 703.821C215.405 703.845 215.996 703.477 216.742 703.367C218.765 703.075 219.296 703.617 221.112 703.727C221.778 703.765 222.393 703.539 223.05 703.526C224.715 703.491 226.452 704.207 228.027 704.168C231.64 704.084 235.117 703.606 238.738 703.37C241.012 703.223 243.349 703.86 245.624 703.951C247.898 704.042 250.215 703.781 252.521 703.56C253.352 703.477 253.328 702.248 252.474 702.254C247.793 702.284 243.305 701.312 238.665 701.145C234.519 700.997 230.451 701.248 226.39 700.551C224.114 700.158 221.831 700.355 219.527 700.184C217.582 700.041 215.47 700.669 213.59 700.287C212.021 699.973 211.465 699.426 209.742 699.687C206.94 700.117 204.587 700.716 201.7 700.285C199.784 700.004 198.079 699.451 196.137 699.557C193.813 699.678 191.562 700.358 189.254 700.432C185.327 700.558 181.162 700.903 177.408 700.417C173.202 699.871 168.781 701.66 164.627 702.002C162.575 702.177 160.673 701.565 158.671 701.648C156.377 701.747 153.956 702.675 151.661 703.012C151.097 703.092 151.109 703.885 151.692 703.907L151.688 703.914Z" fill="#021B01"/>
</g>
<defs>
<clipPath id="clip0_1397_1904">
<rect width="644.849" height="920.471" fill="white" transform="translate(436.531 -53) rotate(28.3103)"/>
</clipPath>
</defs>
</svg>
