<svg width="912" height="419" viewBox="0 0 912 419" fill="none" xmlns="http://www.w3.org/2000/svg">
<path d="M24.8922 37.77C16.8422 19.6 8.33219 18.91 0.742188 18.22L1.43219 5.33997H76.1822L76.8722 18.22C65.8322 18.91 59.6222 22.82 66.5222 38.23L103.552 121.72L131.842 43.52L129.542 37.77C122.182 19.6 116.432 18.91 108.842 18.22L109.532 5.33997H187.732L188.422 18.22C177.382 18.91 164.732 22.59 170.942 38.23L204.292 122.64L236.722 37.08C242.932 20.98 232.122 18.22 219.472 18.22L220.162 5.33997H282.032L282.262 18.22C273.752 19.37 264.322 20.06 255.812 41.91L205.442 171.4L190.492 181.06H188.882L142.882 69.97L104.702 171.4L89.7522 181.06H88.1422L24.8922 37.77ZM296.014 178.99C269.564 179.22 258.064 161.51 258.064 146.79C258.064 124.25 277.384 115.74 296.014 108.84C304.754 105.62 313.034 102.86 321.774 99.87C321.084 85.38 313.034 80.78 303.834 80.78C293.254 80.78 283.594 84.92 267.954 92.05L262.204 81.47L299.694 56.17C305.674 55.02 311.654 54.33 317.174 54.33C339.484 54.33 356.274 63.53 356.274 90.44V130.92C356.274 141.73 359.034 145.64 364.784 145.64C366.394 145.64 368.464 145.41 370.534 144.72L375.824 156.22L341.094 178.99C338.334 178.3 325.684 172.32 322.464 158.75L296.014 178.99ZM292.334 138.28C292.334 146.56 297.854 153 308.204 153C311.884 153 317.634 150.93 321.774 148.63V113.9C315.794 116.66 310.504 118.96 304.294 121.95C296.474 125.86 292.334 131.38 292.334 138.28ZM371.628 214.87C388.648 212.11 405.208 209.12 424.068 178.99L387.498 92.74C384.048 84.69 379.218 82.39 370.708 85.15L366.568 76.64L398.768 55.02C412.568 58.47 417.628 67.44 422.918 81.47L441.548 124.25L444.538 140.81L465.008 92.51C462.938 85.61 450.518 77.79 439.248 82.39L434.878 73.88L463.168 55.02C463.168 55.25 484.328 54.79 492.148 75.03L416.248 229.13H372.088L371.628 214.87ZM540.605 48.12C540.605 35.24 533.245 32.02 524.275 33.63L519.905 24.2L554.405 0.969971C567.055 3.72998 575.105 12.24 575.105 29.03V130.92C575.105 144.95 579.935 147.25 589.365 144.72L594.195 156.22L559.925 178.99C556.705 178.3 540.605 170.25 540.605 152.08V48.12ZM702.553 144.72L707.843 154.38L673.343 177.38C668.283 178.3 663.453 178.76 658.623 178.76C622.743 178.76 598.823 152.54 598.823 117.35C598.823 81.01 626.423 57.32 654.483 55.02C684.383 57.32 703.013 78.02 705.313 107.23L635.853 125.86C641.603 140.12 652.873 151.39 672.193 151.39C684.383 151.39 695.883 147.25 702.553 144.72ZM631.253 100.33C631.253 104.24 631.483 108.38 632.173 112.29L667.593 99.87C664.833 88.14 655.863 77.33 642.983 77.33C640.683 77.33 638.383 77.56 635.853 78.25C632.403 85.15 631.253 92.97 631.253 100.33ZM741.748 141.04C745.658 151.39 755.088 158.29 766.358 158.29C769.348 158.29 773.488 157.83 776.248 156.91C777.628 154.61 778.318 152.77 778.318 150.7C778.318 147.02 775.558 143.11 769.578 139.66C758.308 132.99 749.108 127.7 738.068 120.8C725.878 112.98 714.608 106.77 714.608 89.29C714.608 68.59 741.748 56.86 761.298 55.02C784.758 56.63 799.018 65.37 807.068 81.01L783.148 93.66L777.628 89.29C773.948 79.17 764.748 74.57 756.698 74.57C751.408 74.57 748.188 75.72 746.578 76.18C745.428 77.79 744.738 78.94 744.738 81.24C744.738 87.22 751.638 90.9 761.988 97.34C772.568 103.78 785.678 109.99 795.108 116.2C804.998 122.41 809.138 130.46 809.138 141.5C809.138 160.59 791.198 173.93 758.998 178.99C730.248 178.99 715.988 163.35 711.388 148.86L735.078 135.98L741.748 141.04ZM844.009 141.04C847.919 151.39 857.349 158.29 868.619 158.29C871.609 158.29 875.749 157.83 878.509 156.91C879.889 154.61 880.579 152.77 880.579 150.7C880.579 147.02 877.819 143.11 871.839 139.66C860.569 132.99 851.369 127.7 840.329 120.8C828.139 112.98 816.869 106.77 816.869 89.29C816.869 68.59 844.009 56.86 863.559 55.02C887.019 56.63 901.279 65.37 909.329 81.01L885.409 93.66L879.889 89.29C876.209 79.17 867.009 74.57 858.959 74.57C853.669 74.57 850.449 75.72 848.839 76.18C847.689 77.79 846.999 78.94 846.999 81.24C846.999 87.22 853.899 90.9 864.249 97.34C874.829 103.78 887.939 109.99 897.369 116.2C907.259 122.41 911.399 130.46 911.399 141.5C911.399 160.59 893.459 173.93 861.259 178.99C832.509 178.99 818.249 163.35 813.649 148.86L837.339 135.98L844.009 141.04ZM208.836 330.04C212.746 340.39 222.176 347.29 233.446 347.29C236.436 347.29 240.576 346.83 243.336 345.91C244.716 343.61 245.406 341.77 245.406 339.7C245.406 336.02 242.646 332.11 236.666 328.66C225.396 321.99 216.196 316.7 205.156 309.8C192.966 301.98 181.696 295.77 181.696 278.29C181.696 257.59 208.836 245.86 228.386 244.02C251.846 245.63 266.106 254.37 274.156 270.01L250.236 282.66L244.716 278.29C241.036 268.17 231.836 263.57 223.786 263.57C218.496 263.57 215.276 264.72 213.666 265.18C212.516 266.79 211.826 267.94 211.826 270.24C211.826 276.22 218.726 279.9 229.076 286.34C239.656 292.78 252.766 298.99 262.196 305.2C272.086 311.41 276.226 319.46 276.226 330.5C276.226 349.59 258.286 362.93 226.086 367.99C197.336 367.99 183.076 352.35 178.476 337.86L202.166 324.98L208.836 330.04ZM419.656 335.79L424.026 345.22L389.756 367.99C379.406 366.61 371.586 360.17 369.286 348.21L342.376 367.99C309.716 369.83 299.826 355.57 299.826 325.67V291.17C299.826 278.29 292.926 274.61 283.956 276.22L279.586 266.79L314.086 244.02C326.736 246.78 334.326 255.29 334.326 272.08V312.79C334.326 327.97 335.246 331.65 339.386 335.79C342.146 338.55 346.516 339.7 349.736 339.7C357.786 339.7 366.756 333.49 369.286 331.88V291.17C369.286 278.29 362.386 274.61 353.416 276.22L349.046 266.79L383.546 244.02C396.196 246.78 403.786 255.29 403.786 272.08V320.84C403.786 333.72 410.686 337.4 419.656 335.79ZM482.06 330.5C476.77 330.04 471.94 329.12 467.11 327.74L461.36 333.03C461.59 341.31 485.51 341.54 508.97 345.22C535.88 349.36 542.55 363.16 542.55 376.5C542.55 400.42 517.71 409.16 481.6 418.13C442.5 417.67 421.8 400.88 421.8 377.19L441.58 363.39C433.07 358.56 428.93 351.66 428.93 341.08L455.38 322.91C440.89 315.32 431.46 302.44 431.46 287.95C431.46 265.64 453.31 247.7 482.06 245.4C488.96 246.09 494.94 247.24 500 248.62L542.32 241.95L546.23 249.77L538.87 262.19L509.89 259.2L509.43 260.81C524.84 266.33 532.89 278.06 532.89 290.94C532.89 310.95 511.5 328.2 482.06 330.5ZM453.31 370.98C453.31 389.38 474.93 399.5 494.25 399.5C500.46 399.5 504.37 398.81 508.28 397.89C509.43 395.59 510.12 393.06 510.12 390.76C510.12 382.25 501.38 374.2 482.29 372.36C471.94 371.44 462.97 370.06 455.61 368.45L453.31 370.98ZM464.81 281.51C464.81 298.07 476.08 310.72 491.26 310.72C492.64 310.72 494.25 310.49 495.63 310.26C498.62 304.28 499.77 298.76 499.77 293.24C499.77 277.6 489.42 265.18 474.01 265.18C472.17 265.18 470.33 265.41 468.49 265.87C465.27 272.54 464.81 279.44 464.81 281.51ZM585.225 367.99C558.775 368.22 547.275 350.51 547.275 335.79C547.275 313.25 566.595 304.74 585.225 297.84C593.965 294.62 602.245 291.86 610.985 288.87C610.295 274.38 602.245 269.78 593.045 269.78C582.465 269.78 572.805 273.92 557.165 281.05L551.415 270.47L588.905 245.17C594.885 244.02 600.865 243.33 606.385 243.33C628.695 243.33 645.485 252.53 645.485 279.44V319.92C645.485 330.73 648.245 334.64 653.995 334.64C655.605 334.64 657.675 334.41 659.745 333.72L665.035 345.22L630.305 367.99C627.545 367.3 614.895 361.32 611.675 347.75L585.225 367.99ZM581.545 327.28C581.545 335.56 587.065 342 597.415 342C601.095 342 606.845 339.93 610.985 337.63V302.9C605.005 305.66 599.715 307.96 593.505 310.95C585.685 314.86 581.545 320.38 581.545 327.28ZM673.233 352.12C676.223 351.66 686.343 350.74 686.343 338.32V291.17C686.343 278.29 679.443 275.07 670.473 276.68L666.103 267.25L700.603 244.02C710.953 246.32 717.853 252.3 720.153 263.34L740.853 244.02C761.093 244.02 771.213 255.29 775.123 272.31L750.283 289.79L742.463 285.65C741.313 279.21 736.943 273.46 730.733 273.46C726.593 273.46 723.603 274.61 720.843 276.45V333.95C720.843 350.74 737.173 351.66 740.163 352.12L739.703 365H673.693L673.233 352.12Z" fill="#06260F"/>
</svg>
