<svg width="421" height="294" viewBox="0 0 421 294" fill="none" xmlns="http://www.w3.org/2000/svg">
<g clip-path="url(#clip0_1397_2506)">
<path d="M398.837 56.1381C398.383 52.8628 395.841 50.2643 392.57 49.742C388.344 49.0668 384.279 48.9509 380.482 49.3819C371.46 50.4061 363.731 54.569 357.808 61.524C357.254 61.257 356.689 61.0186 356.124 60.7803C356.281 60.5838 356.452 60.3857 356.607 60.1756C360.854 54.6069 362.876 47.1599 361.872 40.7438C361.326 37.2726 359.866 34.0014 357.654 31.2693C355.475 28.5884 352.603 26.4811 349.356 25.1999C346.008 23.8753 342.319 23.428 338.413 23.8714C332.915 24.4954 327.929 26.7111 323.518 28.6553C322.625 29.0454 321.787 29.4293 320.984 29.7678C315.646 32.0372 311.484 33.4995 307.519 34.5132C307.505 34.5148 307.478 34.5179 307.464 34.5194C306.758 31.5751 305.788 28.977 304.482 26.5819C302.387 22.6955 299.289 19.569 295.528 17.5213C291.679 15.4287 287.324 14.5894 282.942 15.0868C281.867 15.2089 280.788 15.4139 279.731 15.6988C274.594 17.0656 270.172 20.372 267.296 25.029C264.467 29.6119 263.436 34.9804 264.395 40.1507C265.391 45.5229 268.693 50.3309 273.447 53.3519C276.67 55.3919 280.38 56.868 284.565 57.7951C284.393 59.4369 284.192 61.0681 283.961 62.6753C283.036 62.0518 282.024 61.5204 280.953 61.0647C277.447 59.5655 273.47 59.0134 269.455 59.4691C265.794 59.8846 262.226 61.1145 259.122 63.034C254.68 65.7929 251.086 69.9539 248.148 75.759C247.349 77.3481 246.648 78.94 246.014 80.5241C247.897 75.375 249.425 70.3762 250.656 65.4385C251.187 63.3161 253.07 61.2052 255.246 58.7586C255.601 58.3609 255.955 57.9632 256.296 57.5671C257.92 55.7193 258.542 53.1879 257.94 50.7954C257.389 48.6171 255.902 46.8063 253.891 45.8522C254.041 43.5256 254.081 41.0877 253.923 38.6036C253.673 34.7002 252.454 27.4836 247.115 23.0717C244.135 20.6193 240.185 19.4591 236.266 19.904C234.198 20.1388 232.194 20.82 230.44 21.8851C229.164 22.6624 228.08 23.5553 227.139 24.5007C225.891 24.1887 224.586 24.1032 223.252 24.2545C220.789 24.5341 218.611 25.9911 217.453 28.171C216.294 30.3509 216.257 32.9397 217.402 35.133C218.149 36.6155 219.112 39.022 219.615 41.1507C219.296 41.7369 219.052 42.3832 218.895 43.0609C218.409 45.2194 217.97 47.3039 217.549 49.3038C217.41 48.5635 217.212 47.7886 216.984 46.9897C214.876 39.9565 209.662 34.7056 202.295 32.215C201.234 31.8542 200.117 31.7335 199.029 31.8571C198.022 31.9714 197.051 32.2878 196.157 32.788C194.5 33.7322 193.267 35.2606 192.701 37.0708C191.464 35.8914 190.071 34.9085 188.525 34.1629C185.799 32.8502 182.764 32.3424 179.743 32.6853C176.136 33.0946 172.696 34.7224 170.062 37.2623C166.585 40.6265 164.303 45.0511 163.287 50.4317C162.334 55.5165 162.752 60.2944 163.285 63.4096C164.941 73.2574 168.466 79.0574 170.884 82.0273C169.403 87.3096 167.625 92.7767 165.638 98.5838C165.525 98.9266 165.399 99.2708 165.274 99.6287C165.31 99.4597 165.346 99.2906 165.368 99.1231C165.437 98.7578 165.506 98.3926 165.576 98.0409C165.793 96.9165 166.025 95.8041 166.263 94.6223C167.021 90.9756 167.805 87.2022 168.166 83.2157C168.545 79.1447 167.681 76.1495 165.528 74.0569C163.776 72.3448 161.366 71.5185 158.93 71.795C156.943 72.0206 155.091 72.9457 153.426 74.5507C150.794 77.1041 149.32 80.1447 148.151 82.6007C148.005 82.8922 147.873 83.1822 147.725 83.4602C146.035 86.9101 144.515 90.3959 143.052 93.7789C141.545 97.2631 140.091 100.604 138.499 103.823C138.449 100.708 138.66 97.4668 138.874 94.1294L138.933 93.1879C140.685 90.6519 142.253 87.9581 144.815 83.4468C146.09 81.1987 146.122 78.4455 144.886 76.18C144.05 74.639 142.718 73.4704 141.141 72.8108C141.521 67.901 141.446 62.6304 139.446 57.2759C137.861 53.0291 135.068 49.5518 131.372 47.2219C127.66 44.88 123.313 43.8612 118.797 44.2775C118.648 44.2945 118.484 44.313 118.335 44.33C111.408 45.1163 105.539 49.0269 100.733 53.4356C99.2286 52.3278 97.7016 51.8687 96.4823 51.6909C95.8378 51.5991 95.1889 51.5903 94.5493 51.6629C92.9844 51.8405 91.4885 52.5053 90.3156 53.587C90.2925 53.3834 90.2694 53.1798 90.2463 52.9762C89.6701 48.6286 87.4537 44.646 84.0356 41.7345C81.0145 39.163 77.0925 37.5186 73.0172 37.0738C70.6164 36.8102 68.1905 36.8106 65.7955 37.0825C59.903 37.7513 54.5085 40.0134 50.1905 43.6242C44.9547 48.0129 40.9736 55.0774 39.2434 63.0274C37.6435 70.4265 37.6939 77.1846 39.4304 83.1327C40.2713 86.0479 41.5731 88.7734 43.2737 91.2474C42.9743 91.2814 42.7158 91.3107 42.4844 91.337C41.9673 91.3957 41.615 91.4494 41.4941 91.4769C39.6693 91.794 38.0697 92.7592 36.9563 94.1229C35.6594 93.7477 34.343 93.4434 33.0071 93.2102C29.435 92.5846 25.7974 92.4751 22.1776 92.886C19.0341 93.2428 16.971 93.8894 16.5856 94.0156C13.3558 95.0696 11.2388 98.1557 11.4168 101.545C11.7776 108.488 13.253 114.685 15.805 120.046C13.9591 122.606 12.5919 125.497 11.741 128.687C10.6891 132.656 10.4442 137.055 11.0301 141.732C11.9681 149.145 14.6706 154.86 14.9759 155.485C15.9662 157.531 17.8296 159.01 20.0508 159.514C20.2914 159.57 20.5304 159.611 20.768 159.639C21.6836 162.849 23.1361 166.052 25.1194 169.195C28.664 174.8 32.6898 178.33 33.1458 178.704C34.7337 180.064 36.8175 180.693 38.886 180.459C39.0765 180.437 39.2671 180.415 39.4681 180.365C41.7207 179.931 43.652 178.488 44.7186 176.47C45.1148 175.71 45.4973 174.951 45.8527 174.196C46.6738 176.33 47.6157 178.313 48.5647 180.116C47.1422 184.828 46.8473 189.879 47.672 195.202C48.2115 198.619 49.1988 202.095 50.6428 205.588C47.0372 212.074 45.7275 220.086 46.8427 229.061C47.7886 236.666 50.1296 242.353 50.3925 242.969C51.2208 244.923 52.8256 246.432 54.8204 247.127C55.3581 250.406 56.3043 253.763 57.6318 257.201C59.7591 262.706 62.1624 266.392 62.4294 266.802C63.6932 268.707 65.7481 269.931 68.0323 270.139C68.5481 270.19 69.0562 270.174 69.5597 270.117C71.288 269.921 72.9077 269.132 74.1406 267.851C75.1276 266.831 76.0586 265.805 76.9457 264.755C77.3753 264.775 77.8154 264.767 78.2508 264.717C79.9791 264.521 81.5988 263.732 82.8317 262.451C85.3097 259.874 87.4912 257.234 89.3383 254.564C96.7851 251.56 102.125 247.118 105.235 241.363C106.157 239.65 106.871 237.809 107.357 235.898C109.918 238.783 112.72 240.76 114.44 241.83C115.783 242.97 117.51 243.612 119.288 243.617C119.592 243.623 119.893 243.603 120.179 243.571C120.546 243.529 120.911 243.46 121.272 243.364C121.553 243.291 121.821 243.219 122.085 243.121C122.879 242.824 123.616 242.397 124.272 241.869C124.746 241.911 125.227 241.898 125.703 241.844C127.037 241.692 128.317 241.19 129.408 240.365C133.534 237.243 136.745 233.84 138.932 230.279C139.677 229.067 140.296 227.842 140.817 226.601C141.761 227.511 142.952 228.173 144.257 228.492C145.248 229.576 146.331 230.498 147.49 231.232C150.193 232.946 153.321 233.663 156.519 233.3C158.383 233.089 160.098 232.537 161.603 231.83C162.82 232.351 164.153 232.558 165.46 232.409C166.058 232.341 166.636 232.207 167.218 231.99C169.19 231.271 170.769 229.758 171.569 227.825C172.815 224.838 173.7 221.947 174.213 219.18C176.672 222.146 178.801 223.897 179.163 224.172C180.738 225.423 182.731 225.981 184.705 225.757C185.018 225.721 185.343 225.671 185.651 225.594C187.569 225.129 189.211 223.926 190.237 222.283C191.832 222.006 193.342 221.216 194.494 219.958C196.64 217.611 198.273 215.116 199.367 212.489C200.057 213.47 200.84 214.412 201.714 215.316C205.853 219.603 210.719 221.663 211.253 221.877C212.438 222.361 213.697 222.521 214.935 222.38C215.684 222.295 216.42 222.102 217.115 221.789C217.666 221.548 218.183 221.242 218.652 220.886C219.082 220.906 219.509 220.899 219.944 220.849C221.427 220.681 222.875 220.077 224.052 219.036C227.978 215.607 230.409 212.375 231.835 209.395C234.561 212.646 237.154 214.483 237.498 214.719C238.949 215.723 240.695 216.17 242.414 216.017C243.527 216.591 244.738 217.059 246.032 217.407C249.102 218.227 251.892 218.158 253.445 217.995C253.637 217.987 253.843 217.977 254.034 217.956C256.143 217.716 258.084 216.602 259.333 214.852C259.44 214.703 259.545 214.539 259.639 214.391C259.801 214.125 259.949 213.847 260.082 213.557C260.614 213.387 261.124 213.15 261.602 212.862C263.201 211.897 264.381 210.389 264.925 208.622C268.188 212.596 271.592 214.904 272.159 215.28C273.634 216.253 275.404 216.671 277.146 216.473C277.405 216.444 277.677 216.413 277.931 216.343C278.482 216.225 279.013 216.041 279.524 215.805C285.654 218.449 292.023 218.331 295.874 217.894C297.425 217.718 298.447 217.492 298.636 217.457C299.214 217.323 299.758 217.137 300.281 216.885C301.553 217.044 302.82 217.037 304.086 216.893C305.583 216.724 307.055 216.336 308.45 215.752C308.748 215.952 308.984 216.09 309.133 216.183C310.533 216.986 312.157 217.325 313.749 217.144C314.13 217.101 314.494 217.032 314.869 216.934C315.043 216.887 315.203 216.841 315.376 216.78C316.078 218.722 317.541 220.315 319.468 221.141C320.687 221.677 322.016 221.856 323.309 221.709C323.636 221.672 323.959 221.608 324.281 221.53C326.552 224.049 329.359 226.315 332.636 228.225C336.858 230.688 340.484 231.788 340.882 231.895C341.852 232.183 342.867 232.26 343.847 232.149C344.935 232.026 345.996 231.658 346.951 231.082C347.569 230.696 348.123 230.234 348.6 229.699C351.489 230.622 354.689 231.248 358.198 231.565C363.783 232.072 368.156 231.617 368.632 231.563C369.381 231.478 370.103 231.286 370.773 230.99C380.186 234.623 390.56 233.61 392.003 233.447C395.418 233.059 398.137 230.413 398.608 227.033C398.795 225.651 398.96 224.312 399.073 222.993C400.098 222.19 400.914 221.121 401.43 219.839C404.329 212.471 404.586 205.142 402.208 198.4C405.4 191.549 405.382 184.829 405.366 183.964C405.322 181.509 404.074 179.258 402.073 177.904C402.626 174.762 402.484 172.414 402.463 171.99C402.227 168.937 400.168 166.339 397.25 165.405C393.917 164.34 390.692 163.978 387.671 164.321C383.575 164.786 379.912 166.521 376.889 169.394C378.789 164.641 379.188 160.142 378.905 156.311C382.336 150.23 384.737 144.06 386.063 137.888C387.177 137.143 388.081 136.119 388.673 134.897C390.951 130.198 392.596 125.626 393.611 121.207C393.956 121.086 394.297 120.937 394.637 120.775C396.642 119.736 398.07 117.869 398.536 115.658C400.414 106.825 400.762 98.5921 399.55 91.196C398.747 86.3105 397.278 81.7481 395.139 77.5917C397.048 73.5257 398.291 69.0541 398.803 64.4592C399.321 59.795 398.903 56.4743 398.848 56.1094" fill="#001506"/>
<path d="M95.5377 137.583L96.7227 137.944C99.2772 138.712 102.1 138.928 105.094 138.588C107.856 138.275 109.995 137.565 110.774 137.27C111.873 127.522 109.838 120.398 104.719 116.099L104.17 115.638L104.711 115.178C106.811 113.4 108.115 111.657 108.625 110.926C106.496 108.446 104.219 106.477 101.854 105.068L101.484 104.849L101.574 104.426C102.012 102.452 102.158 100.951 102.214 100.229C97.2775 98.6314 92.6242 98.0736 88.3376 98.5602C81.1387 99.3773 74.8807 103.14 69.7719 109.741L69.327 110.314L68.8509 109.763C58.8073 98.2691 45.9022 99.0879 43.4119 99.3706L43.371 99.3752C43.254 101.258 43.2291 103.103 43.319 104.866L43.3698 106.043L42.3869 105.398C35.1282 100.71 27.8937 100.362 23.1035 100.906C21.4297 101.096 20.1947 101.387 19.5795 101.553C20.0445 109.172 22.0573 115.611 25.5555 120.685L25.868 121.131L25.4528 121.481C22.5617 123.94 20.599 127.049 19.6115 130.736C18.8192 133.713 18.6477 137.059 19.1014 140.692C19.7105 145.572 21.304 149.653 21.9788 151.226C24.0126 149.593 25.8163 147.876 27.3402 146.122L29.0345 144.17L28.3803 146.664C26.4731 153.905 29.2788 160.529 31.9844 164.814C34.221 168.368 36.7612 170.953 37.872 171.996C40.1448 167.49 41.5559 163.164 42.0602 159.106L42.2967 157.182L43.194 158.895C44.3374 161.075 45.4479 162.722 46.0531 163.561C47.5434 161.632 48.84 159.697 49.9022 157.762L51.1257 155.547L51.0281 158.088C50.6954 166.814 54.8473 174.976 57.3513 179.064L57.5197 179.334L57.3872 179.624C53.1179 189.127 56.3254 199.169 59.7651 205.914L59.9412 206.251L59.6998 206.554C57.3602 209.5 55.7948 213.073 55.0728 217.156C54.4823 220.454 54.4263 224.089 54.9078 227.967C55.5538 233.172 57.0041 237.448 57.6139 239.056C59.0682 238.025 60.4362 236.962 61.7043 235.87L62.9347 234.809L62.6885 236.404C60.9847 247.623 67.1499 258.829 68.8027 261.611C71.2489 258.996 73.344 256.325 75.0384 253.644L75.5991 252.756L76.0775 253.691C76.6591 254.807 77.1585 255.686 77.4818 256.226C80.0155 253.533 82.1558 250.774 83.8576 248.038L83.9752 247.859L84.1747 247.795C90.9288 245.489 95.5949 242.031 98.0431 237.491C99.8661 234.123 100.44 230.194 99.7777 225.815L99.6306 224.883L100.543 225.151C101.571 225.46 102.408 225.668 102.96 225.798C101.888 213.203 98.626 202.919 93.2848 195.208L91.472 192.595L94.1133 194.371C95.172 195.076 96.0593 195.608 96.6635 195.952C96.7346 185.77 94.7567 177.21 90.7832 170.499L89.7936 168.824L91.5543 169.641C92.4414 170.049 93.1649 170.352 93.6554 170.544C94.8623 160.412 93.6999 151.993 90.1927 145.504L89.5809 144.363L90.8518 144.632C93.8295 145.242 96.2007 145.124 97.3574 144.993C97.4935 144.978 97.616 144.964 97.7249 144.951C97.3482 142.726 96.7781 140.618 96.0194 138.67L95.5724 137.524L95.5377 137.583Z" fill="#00D12E"/>
<path d="M318.91 172.373L318.771 172.128L319.016 171.976C320.508 171.037 321.57 170.188 322.061 169.775C318.747 167.786 315.518 166.297 312.445 165.326L312.159 165.235L312.237 164.951C312.277 164.823 312.304 164.696 312.334 164.596L312.13 164.619L312.392 164.136C312.59 163.811 312.737 163.533 312.84 163.343C306.355 162.319 297.526 162.249 291.473 167.335C288.353 169.958 287.217 172.946 286.93 173.818C287.635 174.081 288.35 174.303 289.047 174.498L289.418 174.608L289.222 174.946C287.658 177.681 287.314 180.112 287.25 180.889C290.898 181.575 294.283 181.52 297.336 180.734L297.926 180.584L297.686 181.148C296.541 183.807 296.656 186.64 296.765 187.727L296.801 188.04L296.486 188.061C291.986 188.366 288.114 189.589 284.977 191.705L284.516 192.018L284.509 191.469C284.344 183.583 282.53 177.795 279.124 174.264L277.36 172.443L279.499 173.809C280.852 174.673 281.936 175.237 282.475 175.492C283.336 169.964 283.427 164.936 282.736 160.546L282.619 159.762L283.226 160.257C284.169 161.03 284.947 161.574 285.35 161.844C287.4 154.765 287.847 148.501 286.685 143.243L286.634 143.043L286.801 142.928C287.951 142.137 289.011 141.275 289.958 140.384L290.356 140.008L290.459 140.547C291.065 143.585 292.414 146.236 294.465 148.395L294.574 148.507L294.536 148.662C293.497 152.987 296.208 157.078 296.989 158.131C297.759 157.384 298.444 156.618 299.049 155.876L299.218 155.664L299.441 155.804C302.021 157.408 305.326 157.624 306.238 157.645C306.413 156.759 306.551 155.904 306.638 155.097L306.662 154.82L306.939 154.829C312.996 155.008 317.89 153.311 321.478 149.825C327.337 144.128 327.955 135.245 328.013 133.452C326.826 133.559 325.656 133.692 324.543 133.846L323.879 133.948L324.243 133.385C324.983 132.256 325.473 131.348 325.708 130.868C323.042 130.455 320.496 130.249 318.114 130.272L318.005 130.285L317.913 130.199C312.057 125.241 306.449 122.949 301.246 123.375L300.66 123.441L300.972 122.911C301.379 122.246 301.637 121.722 301.768 121.419C292.069 118.065 284.656 121.244 280.133 124.507L279.739 124.799L279.684 124.31C279.355 122.382 278.6 120.955 278.325 120.478C273.427 121.652 270.15 123.99 268.585 127.44L268.421 127.816L268.113 127.535C265.593 125.25 262.496 125.162 261.685 125.185C260.393 129.951 261.125 133.731 263.844 136.433L264.045 136.63L263.849 136.845C256.667 144.726 260.871 156.264 261.658 158.223L262.364 157.882L261.882 158.734C259.872 162.275 259.353 166.445 260.324 171.119C261.091 174.84 262.596 177.776 263.217 178.874L263.288 179.017L263.222 179.162C260.882 183.923 261.544 189.031 262.515 192.481C263.373 195.546 264.63 197.878 265.061 198.64C265.676 198.226 266.277 197.815 266.849 197.392L267.168 197.163L267.306 197.533C269.554 203.615 274.912 207.709 276.157 208.598C276.69 207.713 277.209 206.816 277.685 205.909L277.867 205.572L278.158 205.828C284.711 211.71 294.704 210.246 296.566 209.897C296.374 209.177 296.17 208.471 295.969 207.793L295.75 207.075L296.413 207.454C301.246 210.205 305.45 209.714 308.943 206.004L309.189 205.742L309.4 206.021C310.836 207.865 312.207 208.892 312.76 209.269C316.436 202.679 317.1 195.895 314.731 189.111L314.323 187.948L315.219 188.795C315.822 189.372 316.346 189.739 316.628 189.913C322.564 182.957 321.146 176.533 318.894 172.361" fill="#00D12E"/>
<path d="M251.908 132.316C253.554 132.129 254.772 131.317 255.315 130.884C253.787 127.621 251.566 125.907 248.729 125.803L247.649 125.761L248.25 124.868C249.455 123.095 249.401 121.163 249.295 120.35C248.346 120.251 247.45 120.243 246.633 120.336C243.816 120.656 241.835 122.145 240.753 124.756L240.58 125.175L240.134 125.129C239.701 125.082 239.27 125.048 238.842 125.042L238.815 125.045L238.788 125.048C237.88 124.945 236.957 124.953 236.032 125.059C230.915 125.639 226.981 129.234 225.673 130.579C226.813 131.274 227.959 131.9 229.052 132.422L229.563 132.667L229.346 133.186C226.502 140.067 234.392 148.616 234.47 148.703L234.474 148.73L234.504 148.754L234.713 149.019L234.585 149.35C234.316 150.013 232.095 156.066 235.848 163.999L237.861 168.252L234.832 164.637C234.498 164.248 234.115 163.783 233.698 163.267C231.19 160.238 226.99 155.175 225.05 153.745L224.869 153.615L224.818 153.4L224.813 153.36L224.805 153.292L224.585 152.327L225.537 152.576C226.774 152.903 227.787 152.967 228.365 152.957C228.229 146.786 225.584 142.178 220.526 139.274L219.347 138.597L220.651 138.187C221.887 137.786 222.786 137.326 223.327 136.99C221.82 135.855 220.201 134.953 218.503 134.321L217.711 134.026L218.257 133.373C219.654 131.715 220.277 130.036 220.507 129.268C217.359 127.769 214.368 127.16 211.606 127.474C209.047 127.764 206.66 128.833 204.525 130.67L204.275 130.89L203.96 130.789C201.517 130.035 198.99 130.116 197.303 130.307C196.718 130.374 196.231 130.456 195.894 130.522C196.547 134.091 197.593 136.997 199.011 139.159L199.227 139.492L199.003 139.82C196.004 144.243 195.251 149.388 196.742 155.116C197.57 158.281 198.885 160.757 199.548 161.864C199.99 161.388 200.432 160.911 200.871 160.408L202.261 158.807L201.919 160.894C201.317 164.578 202.142 168.444 204.352 172.372L204.525 172.682L204.338 172.978C198.987 181.697 202.201 190.337 204.586 194.713L204.724 194.958L204.629 195.216C202.551 200.704 203.533 205.597 207.533 209.748C209.846 212.152 212.547 213.605 213.713 214.161C214.194 212.814 214.595 211.49 214.894 210.232L215.154 209.13L215.924 209.964C217.136 211.284 218.404 212.253 219.017 212.679C224.273 207.985 226.278 203.785 224.985 200.165L224.581 199.042L225.722 199.38C226.393 199.579 226.947 199.722 227.343 199.814C227.226 191.62 225.315 185.348 221.669 181.157L221.543 181.02L221.522 180.83C221.426 179.988 220.316 175.55 219.713 173.158C219.509 172.329 219.36 171.741 219.303 171.486L220.447 171.122C225.186 182.393 229.239 182.277 229.28 182.272L229.971 182.167L229.941 182.871C229.977 184.764 231.682 186.069 232.693 186.834C232.934 187.013 233.13 187.17 233.283 187.303L233.53 187.537L233.472 187.873C232.44 193.104 233.584 198.089 236.853 202.722C238.511 205.063 240.296 206.703 241.313 207.522C241.403 206.866 241.466 206.199 241.529 205.545L241.714 203.407L242.663 205.334C243.754 207.534 245.587 208.989 248.118 209.678C250.123 210.22 251.985 210.105 252.747 210.018C253.385 208.351 253.93 206.722 254.385 205.144L254.603 204.391L255.269 204.797C256.039 205.259 256.762 205.562 257.237 205.742C257.983 201.863 257.588 198.87 256.074 196.828L255.944 196.65L255.96 196.429C256.287 190.329 254.647 185.469 251.084 182.011L248.326 179.327L251.773 181.039C252.43 181.363 252.981 181.603 253.372 181.765C255.304 175.469 255.776 170.04 254.79 165.602C254.007 162.103 252.331 159.241 249.8 157.095L248.166 155.699L250.286 156.036C251.732 156.271 252.951 156.325 253.641 156.329C253.106 150.89 251.697 146.61 249.467 143.605L248.608 142.465L250.022 142.662C251.226 142.828 252.223 142.866 252.816 142.867C252.444 139.102 251.65 135.878 250.458 133.264L250.055 132.389L251.023 132.416C251.313 132.425 251.601 132.406 251.887 132.373" fill="#00D12E"/>
<path d="M191.515 132.133C189.038 131.562 186.784 131.378 184.797 131.603C183.096 131.796 181.58 132.284 180.276 133.065L180.032 133.216L179.759 133.123C177.177 132.234 174.782 132.259 173.244 132.433C172.672 132.498 172.226 132.576 171.918 132.653C171.912 133.203 171.905 133.754 171.926 134.301L171.953 135.027L171.238 134.916C170.592 134.81 169.943 134.801 169.289 134.876C166.445 135.198 164.306 137.118 163.614 137.816C164.727 140.947 166.244 143.14 168.155 144.311L168.616 144.603L168.381 145.083C165.187 151.673 166.22 158.347 167.66 162.776C168.824 166.355 170.418 169.103 171.189 170.307C171.708 169.657 172.198 168.997 172.698 168.308L174.389 165.957L173.773 168.791C172.524 174.541 173.688 180.307 177.191 185.903L177.377 186.212L177.206 186.52C174.909 190.575 173.852 194.737 174.046 198.881C174.203 202.203 175.161 205.545 176.895 208.799C179.206 213.129 182.296 216.187 183.586 217.347C184.37 215.512 185.045 213.689 185.577 211.938L185.937 210.742L186.647 211.775C187.457 212.962 188.316 213.73 188.815 214.114C192.401 210.008 193.622 205.581 192.417 200.92L192.37 200.746L192.433 200.574C197.191 186.877 193.69 178.738 189.909 174.328L189.702 174.09L189.779 173.793C191.308 167.955 192.131 159.544 187.35 152.636L186.59 151.526L187.918 151.691C189.806 151.931 191.376 151.918 192.212 151.878C191.187 146.371 189.472 141.947 187.092 138.711L186.751 138.255L187.192 137.889C189.525 135.974 190.933 133.326 191.487 132.136" fill="#00D12E"/>
<path d="M166.487 187.173C165.678 183.086 163.893 179.618 161.183 176.873L160.934 176.627L161.033 176.286C162.334 171.959 162.633 167.91 161.928 164.251C161.379 161.358 160.195 158.701 158.425 156.345L157.612 155.255L158.978 155.389C159.94 155.486 160.742 155.505 161.252 155.502C160.233 149.926 158.317 145.676 155.545 142.87L155.125 142.45L155.546 142.031C157.313 140.235 158.454 138.264 158.951 137.3C155.614 136.318 152.627 135.983 150.027 136.278C147.714 136.541 145.707 137.319 144.06 138.592L143.782 138.816L143.449 138.675C141.36 137.757 139.295 137.414 137.294 137.641C134.11 138.003 131.91 139.751 131.122 140.459C131.779 141.512 132.492 142.448 133.257 143.241L133.633 143.638L133.266 144.051C131.948 145.548 131.311 147.105 131.063 147.834C133.094 148.965 135.072 149.634 136.967 149.817L137.86 149.909L137.439 150.699C134.887 155.539 136.904 160.067 137.601 161.348C137.802 161.298 138.03 161.245 138.27 161.176L139.153 160.939L139.02 161.833C138.655 164.446 139.764 168.265 140.505 170.78C140.599 171.126 140.702 171.431 140.777 171.725L140.96 172.364L140.298 172.48C134.604 173.443 129.956 176.692 127.06 179.235L125.694 180.434L126.071 178.659C127.189 173.446 125.717 166.794 124.278 164.194L123.704 163.146L124.893 163.3C125.733 163.411 126.409 163.416 126.808 163.412C128.137 158.243 127.391 154.094 124.567 151.074L124.189 150.663L124.569 150.249C126.397 148.254 126.913 145.638 127.043 144.716C124.185 142.855 121.571 142.052 119.272 142.313C117.53 142.51 115.942 143.337 114.546 144.76L114.324 144.992L114.014 144.93C112.692 144.696 111.28 144.65 109.824 144.815C104.789 145.386 100.456 148.257 99.0306 149.298C100.593 151.046 102.171 152.557 103.745 153.795L104.139 154.108L103.886 154.549C98.1962 164.777 103.391 175.446 105.896 179.547L106.05 179.805L105.931 180.093C101.583 190.361 106.487 201.751 107.806 204.502C108.772 203.788 109.71 203.063 110.617 202.314L112.356 200.879L111.574 202.975C110.072 206.981 109.651 211.29 110.315 215.807L110.332 215.956L110.293 216.098C108.637 220.809 109.379 225.289 112.507 229.402C114.953 232.616 118.189 234.654 119.296 235.299C120.668 233.782 121.956 232.261 123.11 230.769L123.819 229.85L124.164 230.952C124.495 232.042 124.857 232.922 125.098 233.472C130.806 228.988 133.931 224.22 134.39 219.274C134.767 215.19 133.153 212.142 132.432 211.014L132.315 210.835L132.346 210.625C133.301 202.763 132.434 201.679 130.135 198.792C129.892 198.476 129.621 198.149 129.345 197.782L128.6 196.808L129.827 196.806C130.02 196.812 130.211 196.79 130.415 196.767C133.45 196.422 136.64 193.682 136.992 192.418C136.995 192.322 136.997 192.212 137.013 192.114L137.311 186.966L138.205 192.047C138.225 192.223 138.231 192.401 138.197 192.584C138.139 194.02 138.22 195.221 138.287 195.928C139.15 195.638 139.996 195.322 140.8 194.997L142.288 194.388L141.568 195.817C140.4 198.149 139.995 200.532 140.346 202.898C140.512 203.993 140.799 204.826 141.006 205.312C141.69 205.028 142.36 204.732 143 204.425L144.15 203.869L143.837 205.114C142.194 211.652 145.237 218.304 146.262 220.291C146.58 220.049 146.895 219.793 147.223 219.522L147.815 219.029L148.141 219.72C150.07 223.722 152.583 225.581 155.618 225.237C158.013 224.965 160.139 223.417 161.181 222.516L161.545 222.199L161.937 222.499C162.919 223.253 163.779 223.788 164.324 224.097C167.232 216.811 167.419 210.809 164.89 206.257L164.769 206.037L164.838 205.796C166.993 198.677 167.563 192.399 166.526 187.155" fill="#00D12E"/>
<path d="M385.813 77.757L386.01 77.4321C391.399 68.8056 391.007 59.7629 390.839 57.6786C387.515 57.176 384.35 57.0955 381.41 57.4291C372.429 58.4486 365.335 63.3506 360.361 71.9851L360.005 72.6166L359.455 72.1429C356.084 69.2811 351.844 67.3841 346.838 66.5089C343.111 65.8596 339.021 65.7739 334.708 66.2636C331.836 66.5895 329.578 67.0933 328.467 67.3844C329.509 69.0395 330.612 70.6191 331.743 72.0854L332.681 73.2987L331.163 73.0448C328.803 72.6528 326.288 72.5947 323.716 72.8866C313.795 74.0127 305.205 79.9369 302.852 81.675C304.783 83.023 306.738 84.2171 308.646 85.2378L309.293 85.5906L308.819 86.153C303.181 92.9519 301.893 102.611 301.64 105.238C302.475 105.185 303.306 105.104 304.109 105.013C305.946 104.805 307.732 104.506 309.384 104.126L310.634 103.846L310.061 104.984C308.586 107.901 308.14 111.017 308.01 112.42C309.408 112.11 310.714 111.715 311.887 111.238L312.442 111.024L312.67 111.575C314.541 116.037 319.895 119.127 321.479 119.965C322.441 118.605 323.239 117.263 323.868 115.996L324.438 114.831L324.96 116.023C326.412 119.35 328.987 121.876 330.151 122.898C331.657 119.291 332.231 115.967 331.895 113.008L331.824 112.384L332.453 112.34C332.863 112.307 333.259 112.276 333.654 112.231C339.329 111.587 344.001 109.16 347.568 105.002L349.271 103.007L348.608 105.544C347.364 110.249 347.254 115.348 348.291 120.716L348.353 121.025L348.131 121.256C338.706 130.63 335.213 141.392 337.743 153.23L337.802 153.512L337.621 153.739C329.519 163.718 327.09 174.497 330.409 185.764L330.523 186.164L330.194 186.421C324.112 191.126 322.484 198.404 322.2 203.674C321.968 208.059 322.573 211.812 322.888 213.371C324.104 212.669 325.262 211.947 326.336 211.206L326.937 210.794L327.232 211.448C330.79 219.361 340.018 223.057 342.53 223.94C342.835 222.132 343.035 220.377 343.123 218.718L343.191 217.5L344.121 218.288C348.32 221.881 354.497 223.118 358.94 223.521C362.84 223.876 366.126 223.681 367.286 223.577C367.409 222.725 367.52 221.874 367.61 220.97L367.733 219.87L368.598 220.569C372.699 223.911 378.549 225.048 382.727 225.426C386.445 225.76 389.524 225.562 390.656 225.461C391.112 222.069 391.276 218.902 391.158 216.042L391.109 215.003L392.031 215.476C392.91 215.926 393.63 216.201 394.089 216.356C396.5 209.909 396.237 203.835 393.333 198.281L393.173 197.969L393.374 197.671C396.87 192.408 397.233 186.015 397.265 184.472C395.683 183.648 394.136 183.012 392.668 182.588L391.955 182.38L392.307 181.721C394.295 178.1 394.408 174.238 394.393 173.016C392.311 172.4 390.371 172.194 388.616 172.393C385.35 172.764 382.618 174.559 380.495 177.714L380.294 178.012L379.931 177.971C378.55 177.825 377.213 177.826 375.961 177.968C373.566 178.24 371.341 179.042 369.355 180.367L369.087 180.549L368.782 180.419C366.233 179.333 363.81 178.632 361.612 178.332L360.323 178.148L361.3 177.281C368.839 170.596 371.965 163.038 370.574 154.796L370.549 154.579L370.652 154.389C375.557 146.353 378.381 138.21 379.054 130.174L379.132 129.161L379.982 129.725C380.698 130.207 381.277 130.568 381.661 130.799C384.819 124.13 386.518 117.847 386.724 112.132L386.764 111.152L387.618 111.632C389.002 112.41 390.11 112.944 390.779 113.253C393.66 99.0411 392.082 87.2048 386.069 78.0716L385.854 77.7523L385.813 77.757Z" fill="#00D12E"/>
<path d="M210.131 55.4528C210.211 54.5776 210.337 52.0475 209.477 49.2032C208.103 44.6299 204.943 41.4418 200.101 39.7093C199.96 40.6464 199.64 43.4185 200.392 46.3988C201.607 51.155 204.874 54.1936 210.116 55.4408" fill="#F6F9EE"/>
<path d="M354.141 41.9653C353.459 37.6572 350.588 34.1062 346.459 32.4578C344.294 31.6037 341.947 31.3203 339.293 31.6215C334.993 32.1097 330.584 34.0674 326.685 35.7885C325.766 36.1952 324.887 36.5837 324.032 36.942C318.311 39.3648 313.818 40.9472 309.451 42.0615C307.563 42.5508 305.685 42.8876 303.725 43.1101C300.664 43.4576 297.415 43.4965 293.786 43.221C290.505 42.9748 287.312 42.6499 284.386 41.4011C280.156 39.599 279.25 36.3476 280.241 33.9117C280.974 32.11 282.602 30.9079 284.589 30.6824C285.65 30.5619 286.732 30.7416 287.721 31.193C289.742 32.1184 290.706 34.181 291.456 36.0481C291.992 37.3757 292.366 38.8455 292.6 40.6612C295.016 40.9368 298.738 41.0642 300.624 41.0426C300.125 36.645 299.157 33.2217 297.571 30.2949C294.744 25.0617 289.471 22.2096 283.797 22.8537C283.103 22.9325 282.401 23.0671 281.718 23.2409C275.135 24.9917 270.809 31.9304 272.075 38.7154C272.678 41.9602 274.706 44.8919 277.646 46.7441C282.561 49.8567 289.205 51.3159 297.391 51.0603C299.191 51.0072 300.805 50.8928 302.329 50.7198C304.588 50.4634 306.611 50.0688 308.506 49.5237C311.883 48.5493 315.16 47.0637 318.319 45.6328C318.791 45.4143 319.264 45.2094 319.735 44.9909C320.285 44.736 320.85 44.4931 321.4 44.2382C324.273 42.9498 327.222 41.6115 330.167 40.3561C332.863 39.2115 336.003 37.9752 339.01 37.6338C342.78 37.2059 345.5 38.3406 347.098 41.005C348.321 43.0383 348.479 47.4609 346.404 51.642C345.125 54.2205 343.398 55.7638 341.561 55.9723C341.329 55.9985 341.081 55.9992 340.845 55.9848C339.511 55.8887 338.424 55.2973 337.717 54.2914C336.862 53.0688 336.643 51.2652 337.128 49.5879C337.268 49.1184 337.411 48.676 337.555 48.2472C337.801 47.5043 338.168 46.3629 338.036 46.1717C338.036 46.1717 338.009 46.1748 337.954 46.1809C337.873 46.1902 337.753 46.2313 337.608 46.289C334.434 47.5842 332.522 51.1419 333.26 54.3712C333.998 57.5869 336.903 59.9929 340.499 60.3408C341.181 60.4008 341.871 60.405 342.538 60.3293C346.239 59.9092 348.84 57.4419 350.363 55.4405C353.28 51.6312 354.788 46.2086 354.112 41.9548" fill="#F6F9EE"/>
<path d="M188.979 71.5597C190.541 65.0447 192.149 58.3184 191.217 51.5642C190.811 48.5995 189.466 43.3081 185.106 41.2048C183.721 40.5371 182.175 40.2727 180.623 40.4488C178.718 40.6651 176.901 41.5313 175.497 42.8867C173.198 45.0998 171.681 48.1314 170.977 51.882C170.239 55.8288 170.576 59.64 170.997 62.1355C172.681 72.1175 176.561 76.7911 177.778 78.0415C177.986 77.083 178.578 74.4038 180.207 66.8915C178.22 63.5976 177.196 54.338 178.935 50.47C179.409 49.4263 180.057 48.8167 180.855 48.6848C180.882 48.6817 180.91 48.6786 180.937 48.6755C181.359 48.6277 181.746 48.7624 182.087 49.0949C183.446 50.3841 183.658 54.4294 183.54 56.1887C182.615 70.7424 178.683 84.6751 173.053 101.138C171.264 106.386 168.937 111.627 164.115 114.443C163.392 114.868 162.675 115.115 161.981 115.193C159.164 115.513 157.367 112.913 156.839 110.209C156.037 106.052 156.875 101.778 157.687 97.644C157.758 97.2923 157.827 96.9271 157.897 96.5754C158.123 95.4087 158.373 94.2118 158.602 93.0722C159.315 89.6369 160.054 86.0748 160.381 82.5183C160.51 81.1015 160.382 79.9749 160.056 79.6545C159.994 79.5928 159.921 79.5598 159.812 79.5722C159.649 79.5907 159.359 79.7061 158.875 80.1735C157.235 81.7619 156.198 83.9143 155.193 85.9942C155.049 86.2993 154.891 86.606 154.746 86.9111C153.133 90.1874 151.66 93.5991 150.228 96.896C148.338 101.249 146.382 105.76 144.097 110.034C143.868 110.444 143.635 110.938 143.376 111.449C141.782 114.654 139.58 119.056 136.137 119.447C135.933 119.47 135.714 119.481 135.507 119.477C132.739 119.379 131.882 114.623 131.472 112.346C131.456 112.211 131.427 112.077 131.4 111.956C130.273 105.911 130.668 99.68 131.059 93.6554L131.087 93.2947C130.556 93.8362 130.228 94.1071 129.462 94.7578C129.4 94.8198 129.307 94.8578 129.226 94.8671C129.035 94.8887 128.86 94.7986 128.772 94.6299C128.629 94.3437 128.607 93.9063 128.848 93.6039C132.57 88.9885 133.843 86.9742 137.784 80.0381C137.313 80.0227 136.861 80.0465 136.426 80.096C135.16 80.2396 134.021 80.6439 132.942 81.3437C132.905 81.3755 132.864 81.3802 132.809 81.3863C132.741 81.3941 132.684 81.3731 132.626 81.3521C132.523 81.2951 132.47 81.1911 132.483 81.0659C132.595 79.6234 132.759 78.1476 132.915 76.7277C133.523 71.1596 134.152 65.4104 132.134 60.0167C130.134 54.6622 125.19 51.5391 119.544 52.0701C119.448 52.0809 119.339 52.0933 119.244 52.1041C112.181 52.9058 105.981 58.8749 101.364 63.977C100.787 64.6061 100.702 66.0455 100.626 67.1952C100.569 68.1502 100.518 68.9122 100.242 69.2734C100.169 69.3641 100.067 69.4308 99.9442 69.4447C99.8217 69.4586 99.7067 69.4167 99.6022 69.346C99.5113 69.2739 99.443 69.1579 99.4427 69.0342C99.2355 66.8444 97.984 60.6763 95.8598 59.5701C96.0842 60.5757 96.2907 62.3945 96.0519 64.6624C95.6765 68.1557 94.336 71.5248 92.1823 74.4088C83.4979 85.939 73.942 87.8485 71.2203 88.1575C68.8389 88.4278 66.4368 88.2743 64.0839 87.7028C60.4977 86.8313 57.6784 84.5806 55.9473 81.2302C54.3939 78.2308 53.7175 74.4583 53.9766 70.3046C54.2813 65.5821 55.8426 60.7582 58.2382 57.0906C60.9293 52.9908 64.3802 50.6057 68.2177 50.1701C69.1839 50.0604 70.1928 50.0833 71.1882 50.2315C75.282 50.8392 76.467 53.3854 76.7269 55.4318C77.0327 57.7617 76.2917 60.7053 74.7049 63.4837C73.177 66.173 71.0867 68.2799 69.1284 69.1208C69.0105 69.1755 68.9319 69.2119 68.8806 69.2452C69.1743 69.4043 69.9898 69.5455 70.3618 69.5445C70.6235 69.5423 70.9108 69.5234 71.183 69.4925C73.0881 69.2763 75.0963 68.3884 76.8538 66.9929C80.7478 63.8976 83.1352 58.4575 82.5497 54.0285C82.2149 51.5644 81.0019 49.3788 79.0338 47.705C77.1885 46.141 74.771 45.1232 72.2311 44.8478C70.3886 44.6446 68.5284 44.6495 66.7185 44.855C62.3638 45.3493 58.4017 46.9951 55.2674 49.6192C51.3405 52.9107 48.2984 58.4113 46.9443 64.6965C45.6125 70.8141 45.6285 76.2976 46.9873 80.9825C48.4101 85.8664 51.6327 90.0922 56.0804 92.8455C60.4099 95.5298 65.5878 96.7017 70.6773 96.124C71.3986 96.0421 72.1288 95.918 72.8287 95.7698C76.153 95.0625 79.4989 93.8166 82.8014 92.067C88.0406 89.2864 93.1034 85.3161 98.2404 79.935C100.101 77.9916 101.857 75.8539 103.551 73.7782C106.081 70.6865 108.709 67.4874 111.784 64.8288L111.834 64.7819C113.78 63.1037 117.03 60.2877 120.092 59.9401C120.977 59.8397 121.789 59.9537 122.528 60.2686C125.212 61.4486 125.44 65.0383 125.587 67.1801C125.874 71.6566 125.237 76.2382 124.611 80.681C124.389 82.246 124.171 83.8516 123.99 85.4119C123.317 91.386 122.695 97.808 122.816 104.338C122.835 105.353 122.905 106.335 123.597 107.205C124.547 108.417 125.021 109.793 125.348 110.979C125.399 111.18 125.325 111.381 125.144 111.484L125.002 111.569C125.002 111.569 124.884 111.623 124.816 111.631C124.666 111.648 124.507 111.584 124.412 111.471C124.363 111.407 124.299 111.332 124.233 111.23C123.373 110.09 120.745 106.608 117.683 106.955C117.628 106.962 117.587 106.966 117.533 106.972C117.703 107.256 117.858 107.527 118.028 107.81C118.896 109.265 119.785 110.786 120.88 112.05C121.262 112.502 121.685 112.949 122.091 113.37C122.578 113.892 123.079 114.426 123.543 114.992C124.118 115.683 124.377 116.506 124.634 117.316C124.721 117.595 124.808 117.873 124.906 118.137C126.96 123.596 129.692 125.691 131.129 126.449C132.816 127.344 134.606 127.69 136.429 127.484C141.886 126.864 146.748 121.487 149.28 117.075C149.649 116.442 150.003 115.797 150.367 115.123C150.551 114.8 150.722 114.478 150.917 114.14C150.963 114.052 151.053 114.001 151.149 113.99C151.162 113.988 151.189 113.985 151.203 113.984C151.315 113.998 151.419 114.069 151.459 114.174L151.576 114.477C151.652 114.661 151.711 114.819 151.769 114.964C152.495 116.861 153.432 118.446 154.662 119.805C156.918 122.312 159.878 123.502 163.022 123.145C163.947 123.04 164.898 122.795 165.835 122.427C167.96 121.595 169.82 120.256 171.546 118.342C173.248 116.458 174.606 114.214 175.605 112.451C182.32 100.691 185.611 86.3357 188.245 74.805C188.494 73.7182 188.754 72.6163 189.02 71.5551" fill="#F6F9EE"/>
<path d="M220.907 97.5757C219.727 99.813 218.513 102.109 217.237 104.344C215.626 107.152 212.076 111.46 208.933 111.816C207.109 112.023 205.717 110.93 204.761 108.578C203.493 105.423 202.033 98.7558 206.616 89.712C206.775 89.4053 206.978 89.0111 207.206 88.5866C207.433 88.1621 207.706 87.6499 207.885 87.2859C206.275 87.6749 204.213 89.6686 203.196 90.6639C202.899 90.9589 202.687 91.1616 202.547 91.26C202.42 91.3569 202.275 91.4146 202.125 91.4316C201.853 91.4625 201.593 91.3546 201.43 91.1393C201.253 90.912 201.219 90.6134 201.326 90.34C201.506 89.8659 201.893 89.5058 202.228 89.1791L202.29 89.1171C202.527 88.8977 202.75 88.6799 202.989 88.4741C203.301 88.1911 203.626 87.8931 203.923 87.5981L204.06 87.4726C204.459 87.0974 204.869 86.7071 204.965 86.2151C206.245 79.8834 207.56 73.1352 208.447 66.4908L208.46 66.3655C208.882 63.4032 208.52 62.7705 208.395 62.6336C208.349 62.5975 208.319 62.5735 208.251 62.5812C208.251 62.5812 208.224 62.5843 208.21 62.5858C207.793 62.6744 207.508 63.2017 207.296 63.6382L207.251 63.7258C205.821 66.4314 203.479 68.8694 200.657 70.6057C199.317 71.4314 197.838 72.1217 196.272 72.6569C194.534 73.2528 192.637 73.6607 190.65 73.8862C190.61 73.8908 190.569 73.8954 190.528 73.9001L188.487 82.394C189.324 82.4778 190.11 82.4847 190.913 82.3936C193.145 82.1403 195.056 81.2497 197.338 80.0971C197.365 80.094 197.404 80.0758 197.445 80.0712C197.513 80.0635 197.598 80.0814 197.658 80.1295C197.749 80.2016 197.802 80.3056 197.774 80.4188C197.76 80.544 195.934 92.9868 195.747 95.4688C195.34 100.629 195.239 107.267 197.965 112.828C200.368 117.724 204.947 120.421 209.901 119.859C210.064 119.84 210.241 119.82 210.404 119.802C215.387 119.016 219.915 115.189 224.264 108.083C223.663 106.556 221.942 102.077 220.908 97.5892L220.895 97.5908L220.907 97.5757Z" fill="#F6F9EE"/>
<path d="M300.092 64.8863C300.092 64.8863 299.976 64.9545 299.921 64.9607C299.867 64.9669 299.811 64.9595 299.752 64.9249C299.635 64.8694 299.567 64.7534 299.594 64.6267C299.821 62.6212 300.036 60.6309 300.253 58.6541C300.455 56.789 300.657 54.924 300.871 53.0438L292.835 53.1722C292.195 62.2221 290.824 70.7912 288.776 78.6124L288.566 79.4336C286.671 86.66 284.317 95.6706 278.546 101.055C276.927 102.572 274.668 103.557 272.204 103.837C270.231 104.061 268.221 103.835 266.423 103.173C263.748 102.198 259.296 99.2807 259.605 90.7084C259.605 90.7084 259.605 90.7084 259.603 90.6949C260.034 86.1093 262.38 80.4264 267.583 78.7909C266.916 78.6192 266.22 78.5607 265.499 78.6426C263.24 78.899 261.505 80.3744 261.493 80.3896C261.443 80.4365 261.39 80.4562 261.336 80.4624C261.282 80.4686 261.226 80.4612 261.168 80.4402C261.065 80.3832 260.998 80.2808 260.998 80.1571C261.121 77.2287 265.457 73.0521 270.672 72.2402C271.037 72.1849 271.403 72.1296 271.757 72.0895C277.554 71.4314 281.389 73.1545 283.45 77.3473C283.569 76.9351 283.668 75.989 283.429 74.7376C283.099 73.0429 281.921 69.946 277.894 68.2309C275.634 67.2639 273.017 66.9149 270.35 67.2176C267.832 67.5034 265.378 68.3457 263.252 69.6592C260.071 71.6288 257.424 74.7751 255.148 79.2539C253.471 82.5787 252.237 86.1557 251.03 89.6059C250.378 91.5083 249.69 93.4698 248.941 95.3695C248.738 95.8875 248.525 96.4341 248.312 96.9943C246.826 100.902 245.152 105.34 241.954 107.889C241.133 108.546 240.308 108.929 239.505 109.02C235.627 109.46 233.1 103.23 232.275 101.179C230.184 96.0002 229.127 90.085 229.079 83.1066C228.997 72.6678 230.244 61.5557 232.901 49.1424C232.939 48.9869 232.972 48.7907 233.025 48.5372C233.356 46.9599 234.032 43.68 234.856 40.7407C236.258 35.7287 237.113 34.9993 237.711 34.9313C237.752 34.9267 237.793 34.922 237.834 34.9174C238.209 34.9436 238.536 35.1539 238.785 35.5243C240.385 37.9684 238.854 47.9167 237.78 53.6339C236.182 62.2564 233.679 72.0263 231.4 78.5402C231.19 80.9423 230.903 86.9139 232.306 92.9548C237.225 82.4982 240.736 72.8749 243.054 63.5385C244.047 59.5352 246.761 56.4913 249.389 53.5397C249.622 53.2796 249.854 53.0195 250.099 52.7443C249.717 52.6639 249.315 52.6408 248.88 52.6902C247.138 52.888 245.378 54.1462 244.105 55.0743C244.016 55.1394 243.924 55.1774 243.829 55.1882C243.57 55.2176 243.305 55.0689 243.208 54.8188L243.095 54.5566C242.998 54.3064 243.076 54.0226 243.277 53.8486C243.632 53.5746 244.505 52.8844 244.968 52.4744C245.193 52.2701 245.347 52.0464 245.371 51.8925C245.903 48.079 246.412 43.5807 246.121 39.077C245.99 36.9473 245.324 31.6888 242.132 29.068C240.779 27.9567 238.969 27.4336 237.159 27.639C236.22 27.7456 235.304 28.0558 234.517 28.53C232.724 29.6134 231.232 31.405 229.824 34.1769C229.735 34.3657 229.631 34.5425 229.542 34.7313C229.431 34.9639 229.306 35.198 229.181 35.4322C229.136 35.5198 229.047 35.5849 228.951 35.5957C228.938 35.5973 228.924 35.5988 228.911 35.6004C228.8 35.5992 228.696 35.5285 228.642 35.4246C228.477 35.0584 227.085 32.027 224.597 31.9657C225.352 33.516 227.839 39.0351 227.828 43.6694C227.82 45.0588 227.732 46.471 227.653 47.8409L227.66 47.8952C227.631 48.1321 227.5 48.312 227.381 48.4767C227.297 48.5826 227.18 48.6508 227.058 48.6647C226.895 48.6832 226.736 48.6188 226.637 48.4787C226.52 48.2995 226.39 48.1219 226.364 47.8911C226.311 47.4297 226.245 46.9697 226.193 46.5083C222.163 64.9201 220.897 78.9075 222.113 91.6786C222.546 96.2211 223.844 101.105 226.084 106.625C227.254 109.53 229.358 112.275 231.831 114.152C233.763 115.624 236.845 117.281 240.588 116.857C240.969 116.813 241.36 116.741 241.737 116.657C247.353 115.374 252.8 107.868 254.278 104.016C254.322 103.915 254.411 103.849 254.505 103.825C254.505 103.825 254.505 103.825 254.518 103.824C254.614 103.813 254.715 103.856 254.779 103.931C258.008 107.854 260.46 109.542 264.884 110.868C267.538 111.667 270.282 111.919 273.031 111.607C278.216 111.018 282.892 108.494 286.186 104.491C292.317 97.0583 294.895 87.2249 297.023 77.8C297.335 76.4173 298.066 75.207 298.774 74.0406L298.88 73.8774C299.6 72.6958 300.339 71.4297 301.297 69.7949C302.727 67.3367 305.443 62.478 306.285 60.9114C303.802 61.3857 302.071 63.012 300.391 64.6049L300.13 64.8545L300.092 64.8863Z" fill="#F6F9EE"/>
<path d="M64.7666 128.539C63.9147 130.505 63.1172 132.465 61.867 134.202C60.5511 131.959 58.9509 129.762 58.1609 127.295C57.9478 126.632 56.8709 126.617 56.6288 127.276C55.7222 129.854 54.8579 132.44 53.7788 134.955C52.8637 137.093 51.7378 140.411 49.7387 141.985C48.9085 139.165 47.7035 136.442 46.7132 133.667C45.5767 130.456 44.6611 127.246 44.0204 123.91C43.9288 123.466 43.3028 123.537 43.3128 123.99C43.4869 130.624 46.1837 137.26 48.6662 143.344C48.8593 143.831 49.531 143.919 49.8583 143.525C51.7486 141.234 53.5485 139.119 54.8102 136.391C55.7859 134.301 56.6011 132.132 57.3875 129.954C57.6974 130.619 58.0602 131.266 58.4351 131.897C59.247 133.221 60.3624 134.304 61.3404 135.513C61.533 135.752 61.9975 135.837 62.1965 135.525C63.5003 133.411 64.9068 131.231 65.4385 128.751C65.53 128.342 64.9034 128.166 64.7394 128.542" fill="#001506"/>
<path d="M85.1707 211.65C85.8193 214.449 86.5994 217.193 86.9925 220.049C87.4224 223.107 87.2966 225.885 86.43 228.815C83.6303 227.95 81.1589 225.729 79.2897 223.59C77.3552 221.363 75.4557 218.471 75.1953 215.449C75.1598 215.137 74.6607 215.111 74.6296 215.445C74.3932 218.826 76.2722 222.022 78.3132 224.581C80.4179 227.215 83.2908 229.817 86.7733 230.261C87.1364 230.302 87.4414 230.075 87.5254 229.722C88.8348 223.772 88.9583 216.966 86.244 211.39C85.9918 210.869 85.0303 211.019 85.1859 211.662" fill="#001506"/>
<path d="M126.597 173.445C126.348 176.717 125.821 180.09 125.166 183.299C124.586 186.087 123.811 189.337 122.012 191.699C120.791 190.051 119.39 188.519 118.181 186.855C116.643 184.72 115.685 182.231 115.066 179.689C114.994 179.422 114.64 179.462 114.644 179.737C114.641 182.5 115.075 184.994 116.428 187.439C117.693 189.715 119.489 191.821 121.174 193.788C121.556 194.239 122.267 194.31 122.665 193.811C124.858 191.033 125.943 187.596 126.728 184.194C127.548 180.609 127.857 177.137 127.718 173.482C127.688 172.853 126.65 172.82 126.599 173.458" fill="#001506"/>
<path d="M153.079 194.483C153.244 196.54 153.06 198.321 152.229 200.23C151.66 201.532 150.975 202.778 150.375 204.056C149.382 202.835 148.493 201.561 147.82 200.125C147.621 199.708 147.072 199.605 146.769 199.97C144.554 202.558 142.188 205.026 139.28 206.855C139.164 206.923 139.27 207.131 139.4 207.061C142.316 205.548 144.795 203.713 147.07 201.407C147.84 202.969 148.847 204.312 150.005 205.651C150.322 206.014 150.927 206 151.135 205.523C152.679 201.883 155.117 198.472 154.274 194.32C154.121 193.581 153.016 193.679 153.076 194.456" fill="#001506"/>
<path d="M180.609 146.816C180.453 146.655 180.148 146.882 180.253 147.076C181.624 149.807 184.263 151.927 187.17 152.766C187.583 152.884 187.777 152.285 187.488 152.042C185.255 150.22 182.65 148.893 180.607 146.802" fill="#001506"/>
<path d="M186.431 189.845C186.294 191.675 186.714 193.428 186.413 195.277C186.104 197.168 185.571 198.906 184.437 200.45C182.438 198.986 180.702 196.929 180.202 194.47C180.164 194.254 179.822 194.279 179.848 194.51C180.147 197.391 181.957 199.728 184.254 201.392C184.45 201.535 184.708 201.506 184.867 201.323C186.182 199.799 187.163 197.873 187.617 195.924C188.032 194.117 188.459 191.443 187.601 189.712C187.352 189.218 186.467 189.194 186.417 189.846" fill="#001506"/>
<path d="M209.199 155.93C210.068 154.594 210.613 152.965 210.991 151.437C211.323 150.107 211.738 148.3 210.988 147.038C210.765 146.651 210.214 146.892 210.13 147.245C209.897 148.234 210.058 149.288 209.87 150.299C209.65 151.52 209.247 152.707 208.755 153.835C208.383 154.689 207.877 156.176 206.755 155.891C205.763 155.646 204.771 154.439 204.038 153.807C203.701 153.515 203.169 153.686 202.992 154.063C201.733 156.695 200.898 159.415 199.955 162.162C199.946 162.204 199.99 162.227 200.014 162.196C201.787 160.208 202.729 157.819 203.839 155.452C205.522 156.924 207.591 158.394 209.199 155.93Z" fill="#001506"/>
<path d="M216.704 189.736C216.134 190.9 216.243 192.469 216 193.734C215.852 194.493 215.747 195.385 215.413 196.082C215.092 196.779 214.816 196.535 214.228 196.093C212.556 194.839 211.24 192.597 210.512 190.672C210.472 190.567 210.283 190.602 210.311 190.723C210.985 193.506 212.557 196.668 215.387 197.68C215.675 197.785 215.98 197.681 216.114 197.405C216.676 196.159 217.048 194.824 217.335 193.472C217.587 192.289 217.971 190.939 217.644 189.753C217.523 189.299 216.885 189.385 216.704 189.736Z" fill="#001506"/>
<path d="M252.895 142.721C250.046 142.879 248.066 141.949 245.674 140.544C245.26 140.302 244.576 140.586 244.419 141.03C243.892 142.574 243.664 144.332 242.834 145.76C241.1 144.692 239.949 142.445 239.66 140.511C239.594 140.051 238.943 140.139 238.953 140.592C239.037 143.4 240.149 146.271 242.769 147.623C243.121 147.804 243.53 147.647 243.775 147.372C244.989 146.052 245.385 144.44 245.86 142.791C248.178 144.026 250.574 144.978 253.258 144.096C254.068 143.825 253.688 142.658 252.907 142.706" fill="#001506"/>
<path d="M268.148 149.472C265.159 154.1 261.114 157.57 256.447 160.41C255.648 160.899 256.221 162.305 257.124 162.12C262.755 160.972 267.066 154.997 268.622 149.762C268.702 149.491 268.335 149.176 268.148 149.472Z" fill="#001506"/>
<path d="M372.833 97.5834C372.118 101.115 371.186 104.562 369.453 107.755C368.918 108.751 368.412 109.757 367.788 110.694C367.508 111.138 367.142 111.798 366.678 112.085C365.892 112.573 365.251 111.903 364.609 111.467C362.118 109.798 360.184 107.941 359.076 105.098C357.966 102.241 358.37 98.8815 356.905 96.1745C356.609 95.6307 355.975 95.5102 355.545 95.9715C353.491 98.1568 351.924 100.864 349.423 102.633C349.092 102.877 348.434 103.391 347.977 103.251C347.349 103.061 347.084 101.702 346.97 101.179C346.62 99.6791 346.382 97.8227 346.58 96.288C346.631 95.8836 346.013 95.665 345.854 96.0817C345.035 98.223 344.685 105.577 348.617 104.759C350.394 104.392 351.891 102.641 353.058 101.382C354.063 100.278 354.975 99.0881 355.935 97.9481C356.419 99.4192 356.49 101.02 356.771 102.527C357.105 104.249 357.724 105.939 358.572 107.464C359.333 108.822 360.337 110.014 361.526 111.02C362.212 111.602 362.956 112.081 363.701 112.574C364.237 112.925 364.825 113.491 365.467 113.679C367.973 114.385 369.528 110.483 370.416 108.828C372.325 105.244 373.616 101.688 373.482 97.5922C373.465 97.1955 372.889 97.2197 372.805 97.5729" fill="#001506"/>
<path d="M363.537 194.061C363.43 196.396 363.292 198.46 362.441 200.674C362.281 201.091 362.024 202.344 361.639 202.593C361.226 202.846 359.887 202.586 359.477 202.495C356.215 201.807 355.73 197.779 354.774 195.179C354.576 194.652 353.877 194.813 353.753 195.295C353.446 196.595 352.783 197.921 352.321 199.197C351.83 200.572 351.323 201.936 350.701 203.258C349.654 205.452 348.244 207.358 347.002 209.41C346.645 209.052 346.048 208.776 345.712 208.484C345.056 207.926 344.518 207.314 344.076 206.58C343.006 204.805 342.412 202.728 342.017 200.71C341.618 198.652 341.466 196.58 341.449 194.492C341.434 192.775 341.29 190.661 341.917 189.022C341.917 189.022 341.914 188.995 341.89 189.025C340.172 193.07 339.96 197.397 340.657 201.717C341.015 203.903 341.64 206.128 342.951 207.959C343.572 208.823 345.879 211.297 347.148 210.205C349.479 209.005 350.992 206.428 352.14 204.153C352.825 202.783 353.434 201.353 353.903 199.897C354.168 199.07 354.32 198.228 354.461 197.401C355.535 200.427 356.674 203.418 360.463 203.648C362.198 203.754 362.51 203.347 363.172 201.773C364.147 199.435 365.043 196.516 364.384 193.992C364.282 193.577 363.562 193.673 363.554 194.086" fill="#001506"/>
<path d="M350.039 143.902C350.139 143.684 349.828 143.499 349.683 143.681C347.44 146.382 345.009 149.009 341.861 150.659C338.75 152.277 335.273 153.098 331.924 154.069C330.804 154.402 331.293 156.161 332.422 156.033C336.243 155.572 339.978 154.474 343.189 152.282C346.259 150.187 348.485 147.212 350.053 143.9" fill="#001506"/>
<path d="M86.6569 185.031C86.3346 184.256 85.2419 184.587 85.2632 185.381C85.3271 187.038 85.6974 189.085 84.8945 190.634C82.3336 188.958 80.889 185.947 78.9468 183.651C78.4374 183.049 77.5223 183.731 77.9562 184.396C79.8527 187.26 81.6385 190.728 84.8165 192.375C85.1102 192.534 85.5364 192.403 85.728 192.148C86.6436 190.985 86.8433 189.588 86.8479 188.171C87.6547 189.207 88.5747 190.147 89.528 191.139C91.1392 192.826 92.8726 194.375 94.8233 195.652C94.8823 195.686 94.9427 195.611 94.8836 195.576C91.224 192.843 88.3521 189.279 86.6297 185.034" fill="#001506"/>
<path d="M304.401 137.836C303.689 139.938 303.323 142.179 302.164 144.112C300.583 143.178 300.062 141.257 299.527 139.586C299.441 139.307 298.991 139.234 298.827 139.487C296.692 142.905 294.972 146.688 291.43 148.877C291.327 148.944 291.335 149.135 291.464 149.176C293.682 149.9 295.566 147.913 296.784 146.262C297.918 144.718 298.606 143.004 299.148 141.224C299.67 142.91 300.428 144.488 302.138 145.338C302.342 145.439 302.652 145.376 302.782 145.183C304.209 143.069 304.877 140.573 305.131 138.07C305.166 137.653 304.547 137.421 304.389 137.852" fill="#001506"/>
<path d="M211.536 57.0255C210.758 54.6667 208.771 52.5827 207.33 50.5741C205.758 48.3879 204.305 46.1471 202.545 44.1198C202.514 44.0957 202.46 44.1019 202.465 44.1426C203.021 46.7328 204.449 48.7564 206.013 50.8748C207.594 53.0187 209.07 55.5869 211.027 57.3994C211.287 57.6311 211.622 57.3043 211.536 57.0255Z" fill="#001506"/>
</g>
<defs>
<clipPath id="clip0_1397_2506">
<rect width="395" height="251" fill="white" transform="translate(0 44.5513) rotate(-6.47607)"/>
</clipPath>
</defs>
</svg>
