<svg width="599" height="326" viewBox="0 0 599 326" fill="none" xmlns="http://www.w3.org/2000/svg">
<path d="M221.491 16.8813H176.728L176.193 26.9325H176.673C180.799 26.9325 186.547 27.3044 188.741 30.5157C190.138 32.5477 190.047 35.6411 188.478 39.7051L165.884 99.3316L142.655 40.5124C141.195 36.8294 141.15 33.8631 142.528 31.695C144.278 28.9282 148.367 27.3226 154.659 26.9325L155.103 26.9053L154.569 16.8904H98.2365L97.7015 26.8962L98.1367 26.9325C103.241 27.3951 107.276 27.7671 112.444 40.5215L114.013 44.4403L94.3831 98.7238L68.5699 40.4943C66.412 35.6683 65.9859 32.2846 67.2824 30.1438C68.443 28.2297 71.0633 27.2046 75.5332 26.9234L75.9775 26.8962L75.4425 16.8813H21.5676L21.0508 26.4517L21.1052 26.8962L21.5404 26.9325C26.7447 27.4042 32.6472 27.9394 38.2233 40.5306L83.0949 142.23L83.2128 142.502H84.7813L95.6252 135.49L122.354 64.4338L154.659 142.502H156.237L167.081 135.49L202.867 43.4516C208.643 28.6107 214.817 27.7852 220.783 26.9869L221.663 26.869L221.482 16.8813H221.491Z" fill="#06260F"/>
<path d="M221.035 68.0354L217.59 60.5968L244.79 42.6354C254.764 44.8125 260.748 51.5254 260.748 64.7697V117.021C260.748 126.818 268.727 127.544 271.084 127.907L270.721 138.067H223.574L223.211 127.907C225.569 127.544 233.547 126.818 233.547 117.021V79.8282C233.547 69.6682 228.107 66.7654 221.035 68.0354ZM244.79 34.1082C258.934 29.2097 262.38 17.2354 262.38 17.2354C262.38 17.2354 259.841 5.98681 244.79 0.181091C231.19 5.80538 226.657 16.8725 226.475 17.2354C231.915 31.5682 244.79 34.1082 244.79 34.1082Z" fill="#06260F"/>
<path d="M269.988 25.7623L266.543 18.3237L293.743 -0.000549316C303.717 2.17659 310.064 8.88945 310.064 22.1337V102.507C310.064 113.574 313.872 115.388 321.306 113.392L325.115 122.464L298.095 140.425C295.557 139.881 282.863 133.531 282.863 119.198V37.1923C282.863 27.0323 277.06 24.4923 269.988 25.7623Z" fill="#06260F"/>
<path d="M389.853 124.097L369.544 140.425C344.157 140.425 326.93 120.468 326.93 94.5237C326.93 65.858 356.487 44.8123 378.792 42.6352C382.781 43.1795 386.227 44.0866 389.309 44.9937V37.1923C389.309 27.0323 383.507 24.4923 376.434 25.7623L372.989 18.3237L400.189 -0.000549316C410.163 2.17659 416.51 8.88945 416.51 22.1337V102.507C416.51 113.574 420.318 115.388 427.753 113.392L431.561 122.464L404.542 140.425C402.366 139.881 392.211 134.982 389.853 124.097ZM376.978 119.924C381.512 119.924 386.589 117.565 389.309 114.844V71.8452C384.595 66.4023 374.984 59.6895 365.736 59.6895C364.648 59.6895 362.653 59.8709 362.109 60.0523C354.674 68.0352 353.223 78.3766 353.223 86.7223C353.223 104.139 363.016 119.924 376.978 119.924Z" fill="#06260F"/>
<path d="M426.844 25.7623L423.398 18.3237L450.599 -0.000549316C460.572 2.17659 466.919 8.88945 466.919 22.1337V102.507C466.919 113.574 470.727 115.388 478.162 113.392L481.97 122.464L454.951 140.425C452.412 139.881 439.719 133.531 439.719 119.198V37.1923C439.719 27.0323 433.916 24.4923 426.844 25.7623Z" fill="#06260F"/>
<path d="M520.053 140.425L491.22 72.3893C488.5 66.0393 484.692 64.225 477.983 66.4022L474.719 59.6893L500.106 42.635C510.986 45.3564 514.975 52.4322 519.146 63.4993L533.834 97.245L536.192 110.308L552.331 72.2079C550.699 66.765 540.906 60.5964 532.021 64.225L528.576 57.5122L550.88 42.635C550.88 42.8164 567.563 42.4536 573.728 58.4193L513.887 179.976H479.071L478.708 168.728C492.127 166.551 505.183 164.192 520.053 140.425Z" fill="#06260F"/>
<path d="M-0.00390625 236.764C-0.00390625 208.098 27.7405 189.593 48.0502 187.778C73.9812 189.593 94.1095 208.098 94.1095 236.764C94.1095 265.43 66.5464 283.754 46.2368 285.568C21.0311 283.754 -0.00390625 265.248 -0.00390625 236.764ZM57.661 267.97C59.6557 267.97 61.8317 267.788 64.1891 267.063C66.7278 261.62 68.5411 254.544 68.5411 247.831C68.5411 227.148 52.9462 205.377 36.4446 205.377C34.2686 205.377 31.9112 205.74 29.5539 206.647C26.4712 212.271 25.0205 218.984 25.0205 226.06C25.0205 246.198 39.89 267.97 57.661 267.97Z" fill="#06260F"/>
<path d="M109.161 262.164V224.971C109.161 214.811 103.721 212.271 96.6485 213.541L93.2031 206.103L120.404 187.778C128.564 189.593 134.004 194.31 135.817 203.018L152.137 187.778C168.095 187.778 176.074 196.668 179.156 210.094L159.572 223.883L153.407 220.617C152.5 215.537 149.055 211.001 144.159 211.001C140.895 211.001 138.537 211.908 136.361 213.36V258.717C136.361 271.961 149.236 272.687 151.593 273.05L151.231 283.21H99.1872L98.8245 273.05C101.182 272.687 109.161 271.961 109.161 262.164Z" fill="#06260F"/>
<path d="M207.626 253.818L203.092 257.991C203.273 264.523 222.132 264.704 240.629 267.607C261.845 270.873 267.104 281.758 267.104 292.281C267.104 311.15 247.519 318.044 219.05 325.12C188.223 324.757 171.902 311.513 171.902 292.826L187.497 281.94C180.788 278.13 177.524 272.687 177.524 264.341L198.377 250.008C186.953 244.021 179.518 233.861 179.518 222.431C179.518 204.833 196.745 190.681 219.412 188.867C224.852 189.411 229.567 190.318 233.557 191.407L266.922 186.146L270.005 192.314L264.202 202.111L241.354 199.753L240.991 201.023C253.141 205.377 259.488 214.63 259.488 224.79C259.488 240.574 242.623 254.181 219.412 255.996C215.242 255.633 211.434 254.907 207.626 253.818ZM229.023 310.424C233.919 310.424 237.002 309.88 240.085 309.154C240.991 307.34 241.535 305.344 241.535 303.53C241.535 296.817 234.645 290.467 219.594 289.016C211.434 288.29 204.361 287.201 198.559 285.931L196.745 287.927C196.745 302.441 213.791 310.424 229.023 310.424ZM226.666 240.393C227.754 240.393 229.023 240.211 230.111 240.03C232.469 235.313 233.375 230.958 233.375 226.604C233.375 214.267 225.215 204.47 213.066 204.47C211.615 204.47 210.164 204.651 208.714 205.014C206.175 210.276 205.812 215.718 205.812 217.351C205.812 230.414 214.698 240.393 226.666 240.393Z" fill="#06260F"/>
<path d="M263.66 260.168C263.66 242.388 278.892 235.675 293.581 230.232C300.471 227.692 307 225.515 313.89 223.157C313.346 211.727 307 208.098 299.746 208.098C291.405 208.098 283.788 211.364 271.458 216.988L266.924 208.642L296.482 188.685C301.197 187.778 305.911 187.234 310.264 187.234C327.853 187.234 341.091 194.491 341.091 215.718V247.649C341.091 256.177 343.267 259.261 347.8 259.261C349.069 259.261 350.701 259.079 352.334 258.535L356.504 267.607L329.122 285.568C326.946 285.024 316.973 280.307 314.434 269.602L293.581 285.568C272.727 285.749 263.66 271.779 263.66 260.168ZM303.191 265.067C306.093 265.067 310.626 263.434 313.89 261.619V234.224C309.176 236.401 305.005 238.215 300.109 240.574C293.943 243.658 290.679 248.012 290.679 253.455C290.679 259.987 295.031 265.067 303.191 265.067Z" fill="#06260F"/>
<path d="M395.127 203.381L417.25 187.778C442.455 187.778 450.797 198.12 450.797 221.161V249.283C450.797 260.35 454.605 262.164 462.04 260.168L465.848 269.24L438.829 287.201C436.29 286.657 423.597 280.307 423.597 265.974V231.321C423.597 216.263 420.695 210.094 411.447 210.094C404.556 210.094 397.121 214.993 395.127 216.263V262.164C395.127 271.961 403.106 272.687 405.463 273.05L405.1 283.21H357.953L357.59 273.05C359.948 272.687 367.926 271.961 367.926 262.164V224.971C367.926 216.263 363.937 212.815 358.316 212.815C357.409 212.815 356.502 212.997 355.414 213.178L351.969 205.74L379.169 187.778C387.329 188.867 393.313 193.947 395.127 203.381Z" fill="#06260F"/>
<path d="M464.762 213.178L461.316 205.74L488.517 187.778C498.49 189.955 504.474 196.668 504.474 209.913V262.164C504.474 271.961 512.453 272.687 514.811 273.05L514.448 283.21H467.301L466.938 273.05C469.295 272.687 477.274 271.961 477.274 262.164V224.971C477.274 214.811 471.834 211.908 464.762 213.178Z" fill="#06260F"/>
<path d="M597.853 266.518L570.471 285.568C567.57 285.931 564.668 286.113 561.767 286.113C533.478 286.113 514.801 266.518 514.801 236.583C514.801 209.005 538.737 189.593 563.399 187.778C586.61 189.593 595.858 202.655 598.397 209.368L579.538 222.975L574.098 220.617C570.834 211.001 562.492 205.377 553.425 205.377C550.705 205.377 548.167 205.921 545.447 206.828C542.727 212.453 541.639 219.891 541.639 228.237C541.639 246.198 549.255 263.071 567.207 263.071C577.362 263.071 585.703 261.075 592.775 257.81L597.853 266.518Z" fill="#06260F"/>
</svg>
